SplineFontDB: 3.0
FontName: Overpass-Thin
FullName: Overpass Thin
FamilyName: Overpass Thin
Weight: Thin
Copyright: Copyright \\(c\\) 2016 by Red Hat, Inc. All rights reserved.
Version: 003.002
ItalicAngle: 0
UnderlinePosition: -122
UnderlineWidth: 33
Ascent: 750
Descent: 250
InvalidEm: 0
sfntRevision: 0x00030083
LayerCount: 2
Layer: 0 0 "Back" 1
Layer: 1 0 "Fore" 0
XUID: [1021 1017 285194369 4598]
StyleMap: 0x0040
FSType: 0
OS2Version: 4
OS2_WeightWidthSlopeOnly: 0
OS2_UseTypoMetrics: 1
CreationTime: 1480942622
ModificationTime: 1511879947
PfmFamily: 81
TTFWeight: 100
TTFWidth: 5
LineGap: 266
VLineGap: 0
Panose: 0 0 2 0 0 0 0 0 0 0
OS2TypoAscent: 750
OS2TypoAOffset: 0
OS2TypoDescent: -250
OS2TypoDOffset: 0
OS2TypoLinegap: 266
OS2WinAscent: 1062
OS2WinAOffset: 0
OS2WinDescent: 378
OS2WinDOffset: 0
HheadAscent: 982
HheadAOffset: 0
HheadDescent: -284
HheadDOffset: 0
OS2SubXSize: 650
OS2SubYSize: 600
OS2SubXOff: 0
OS2SubYOff: 75
OS2SupXSize: 650
OS2SupYSize: 600
OS2SupXOff: 0
OS2SupYOff: 350
OS2StrikeYSize: 33
OS2StrikeYPos: 306
OS2CapHeight: 700
OS2XHeight: 511
OS2Vendor: 'DELV'
OS2CodePages: 20000093.00000000
OS2UnicodeRanges: 00000003.00000020.00000000.00000000
Lookup: 1 0 0 "'aalt' Access All Alternates in Latin lookup 0" { "'aalt' Access All Alternates in Latin lookup 0 subtable"  } ['aalt' ('DFLT' <'dflt' > 'latn' <'AZE ' 'CAT ' 'CRT ' 'KAZ ' 'MOL ' 'NLD ' 'ROM ' 'TAT ' 'TRK ' 'dflt' > ) ]
Lookup: 3 0 0 "'aalt' Access All Alternates in Latin lookup 1" { "'aalt' Access All Alternates in Latin lookup 1 subtable"  } ['aalt' ('DFLT' <'dflt' > 'latn' <'AZE ' 'CAT ' 'CRT ' 'KAZ ' 'MOL ' 'NLD ' 'ROM ' 'TAT ' 'TRK ' 'dflt' > ) ]
Lookup: 6 0 0 "'locl' Localized Forms in Latin lookup 2" { "'locl' Localized Forms in Latin lookup 2 contextual 0"  "'locl' Localized Forms in Latin lookup 2 contextual 1"  } ['locl' ('latn' <'NLD ' > ) ]

StartChar: Eth
Encoding: 257 208 1
Width: 665
Flags: MW
HStem: 0 36<146 266 146 266> 331 36<40 110 40 110 146 321> 664 36<146 270 146 146>
VStem: 110 36<36 331 36 331 36 331 367 664> 541 39<278 427.5>
LayerCount: 2
Fore
SplineSet
110 331 m 1
 40 331 l 1
 40 367 l 1
 110 367 l 1
 110 700 l 1
 270 700 l 2
 502 700 580 523 580 350 c 0
 580 189 512 0 266 0 c 2
 110 0 l 1
 110 331 l 1
266 36 m 2
 482 36 541 206 541 350 c 0
 541 505 473 664 270 664 c 2
 146 664 l 1
 146 367 l 1
 321 367 l 1
 321 331 l 1
 146 331 l 1
 146 36 l 1
 266 36 l 2
EndSplineSet
Position2: "'cpsp' Capital Spacing in Latin lookup 0 subtable" dx=5 dy=0 dh=10 dv=0
EndChar

StartChar: eth
Encoding: 258 240 2
Width: 540
Flags: MW
HStem: -12 36<219 320 219 332.5> 420 36<222.5 313.5 211.5 317.5> 685 20G<385 385> 692 20G<142 142>
VStem: 68 39<165 279 165 291.5> 431 41<176.5 276>
LayerCount: 2
Fore
SplineSet
269 -12 m 0xdc
 146 -12 68 87 68 221 c 0
 68 362 154 456 269 456 c 0
 358 456 415 402 433 335 c 1
 423 456 376 555 300 613 c 1
 228 537 l 1
 206 559 l 1
 272 631 l 1
 235 654 191 670 142 677 c 1
 142 712 l 1
 202 702 254 683 297 657 c 1
 362 727 l 1xdc
 385 705 l 1
 323 639 l 1xec
 426 559 472 431 472 267 c 0
 472 86 396 -12 269 -12 c 0xdc
269 24 m 0
 371 24 431 109 431 220 c 0
 431 332 366 420 269 420 c 0
 176 420 107 337 107 221 c 0
 107 109 169 24 269 24 c 0
EndSplineSet
EndChar

StartChar: Lslash
Encoding: 259 321 3
Width: 533
Flags: MW
HStem: 0 33<146 493 146 493> 680 20G<110 146 146 146>
VStem: 110 36<33 299 299 299 367 700>
LayerCount: 2
Fore
SplineSet
110 0 m 1
 110 299 l 1
 35 241 l 1
 35 281 l 1
 110 339 l 1
 110 700 l 1
 146 700 l 1
 146 367 l 1
 274 466 l 1
 274 426 l 1
 146 326 l 1
 146 33 l 1
 493 33 l 1
 493 0 l 1
 110 0 l 1
EndSplineSet
Position2: "'cpsp' Capital Spacing in Latin lookup 0 subtable" dx=5 dy=0 dh=10 dv=0
EndChar

StartChar: lslash
Encoding: 260 322 4
Width: 243
Flags: MW
HStem: 0 21G<98 98 98 134> 684 20G<98 98>
VStem: 98 36<0 293 293 293 359 704 704 704>
LayerCount: 2
Fore
SplineSet
98 0 m 1
 98 293 l 1
 28 239 l 1
 28 278 l 1
 98 332 l 1
 98 704 l 1
 134 722 l 1
 134 359 l 1
 215 421 l 1
 215 382 l 1
 134 320 l 1
 134 0 l 1
 98 0 l 1
EndSplineSet
EndChar

StartChar: Scaron
Encoding: 261 352 5
Width: 579
GlyphClass: 2
Flags: MW
HStem: -12 35<254.5 345.5 254.5 354.5> 677 35<237.5 321.5> 765 36<288 288 288 304 272 288>
VStem: 98 38<512 594 512 602.5> 461 38<124.5 221.5>
AnchorPoint: "Anchor-0" 294 0 basechar 0
LayerCount: 2
Fore
SplineSet
304 765 m 1
 272 765 l 1
 121 921 l 1
 158 921 l 1
 288 801 l 1
 418 921 l 1
 455 921 l 1
 304 765 l 1
295 -12 m 0
 188 -12 108 56 75 135 c 1
 113 147 l 1
 146 73 213 23 296 23 c 0
 395 23 461 75 461 174 c 0
 461 269 380 325 292 359 c 0
 199 396 98 443 98 559 c 0
 98 646 165 712 287 712 c 0
 374 712 446 667 469 597 c 1
 433 586 l 1
 409 644 359 677 284 677 c 0
 191 677 136 631 136 557 c 0
 136 467 222 429 308 394 c 0
 396 358 499 301 499 173 c 0
 499 55 414 -12 295 -12 c 0
EndSplineSet
Position2: "'cpsp' Capital Spacing in Latin lookup 0 subtable" dx=5 dy=0 dh=10 dv=0
EndChar

StartChar: scaron
Encoding: 262 353 6
Width: 457
GlyphClass: 2
Flags: MW
HStem: -12 34<207.5 270.5 207.5 285.5> 489 34<186.5 249> 576 36<224 224 224 240 208 224>
VStem: 73 37<364 424.5 364 433> 352 37<87 155.5>
AnchorPoint: "Anchor-0" 235 0 basechar 0
LayerCount: 2
Fore
SplineSet
240 576 m 1
 208 576 l 1
 57 732 l 1
 94 732 l 1
 224 612 l 1
 354 732 l 1
 391 732 l 1
 240 576 l 1
236 -12 m 0
 166 -12 112 23 75 65 c 1
 103 89 l 1
 134 55 180 22 235 22 c 0
 306 22 352 54 352 120 c 0
 352 191 284 226 212 253 c 0
 128 284 73 321 73 397 c 0
 73 469 129 523 223 523 c 0
 280 523 334 498 370 460 c 1
 343 437 l 1
 315 463 276 489 222 489 c 0
 151 489 110 452 110 397 c 0
 110 331 168 309 235 282 c 0
 322 247 389 216 389 120 c 0
 389 42 335 -12 236 -12 c 0
EndSplineSet
EndChar

StartChar: Yacute
Encoding: 263 221 7
Width: 600
GlyphClass: 2
Flags: MW
HStem: 0 21G<282 282 282 318> 680 20G<54 93 93 93 507 546 546 546>
VStem: 282 36<0 277 0 277>
AnchorPoint: "Anchor-0" 300 0 basechar 0
LayerCount: 2
Fore
SplineSet
225 765 m 1
 376 921 l 1
 431 921 l 1
 262 765 l 1
 225 765 l 1
282 0 m 1
 282 277 l 1
 54 700 l 1
 93 700 l 1
 300 314 l 1
 507 700 l 1
 546 700 l 1
 318 277 l 1
 318 0 l 1
 282 0 l 1
EndSplineSet
Position2: "'cpsp' Capital Spacing in Latin lookup 0 subtable" dx=5 dy=0 dh=10 dv=0
EndChar

StartChar: yacute
Encoding: 264 253 8
Width: 510
GlyphClass: 2
Flags: MW
HStem: 491 20G<53 89 89 89 421 457 457 457>
VStem: 53 404<511 511>
AnchorPoint: "Anchor-0" 257 0 basechar 0
LayerCount: 2
Fore
SplineSet
196 576 m 1
 347 732 l 1
 402 732 l 1
 233 576 l 1
 196 576 l 1
161 -194 m 1
 237 12 l 1
 53 511 l 1
 89 511 l 1
 237 108 l 1
 255 57 l 1
 261 74 267 91 273 108 c 2
 421 511 l 1
 457 511 l 1
 197 -194 l 1
 161 -194 l 1
EndSplineSet
EndChar

StartChar: Thorn
Encoding: 265 222 9
Width: 599
Flags: MW
HStem: 0 21G<110 110 110 146> 150 36<146 328 146 329> 525 36<146 328 328 329 146 328> 525 175<110 329 110 146>
VStem: 110 36<0 150 186 525 561 700> 510 39<316.5 397>
LayerCount: 2
Fore
SplineSet
110 0 m 1xec
 110 700 l 1
 146 700 l 1xdc
 146 561 l 1
 328 561 l 2
 495 561 549 458 549 355 c 0
 549 262 490 150 328 150 c 2
 146 150 l 1
 146 0 l 1
 110 0 l 1xec
329 186 m 2
 462 186 510 278 510 355 c 0
 510 439 467 525 329 525 c 2
 146 525 l 1xec
 146 186 l 1
 329 186 l 2
EndSplineSet
Position2: "'cpsp' Capital Spacing in Latin lookup 0 subtable" dx=5 dy=0 dh=10 dv=0
EndChar

StartChar: thorn
Encoding: 266 254 10
Width: 558
Flags: MW
HStem: -203 21G<103 103> -12 36<257 340 257 348.5> 487 36<262 339> 684 20G<103 103>
VStem: 103 36<-185 84 134 389 437 704 704 704> 451 39<182 326>
LayerCount: 2
Fore
SplineSet
288 -12 m 0
 225 -12 168 25 139 84 c 1
 139 -185 l 1
 103 -203 l 1
 103 704 l 1
 139 722 l 1
 139 437 l 1
 174 494 228 523 296 523 c 0
 416 523 490 417 490 256 c 0
 490 82 409 -12 288 -12 c 0
288 24 m 0
 392 24 451 108 451 256 c 0
 451 396 390 487 288 487 c 0
 226 487 170 448 139 389 c 1
 139 134 l 1
 172 66 226 24 288 24 c 0
EndSplineSet
EndChar

StartChar: Zcaron
Encoding: 267 381 11
Width: 595
GlyphClass: 2
Flags: MW
HStem: 0 33<119 528 119 528> 667 33<90 480 90 528> 765 36<313 313 313 329 297 313>
VStem: 67 461<0 19 19 19>
AnchorPoint: "Anchor-0" 298 0 basechar 0
LayerCount: 2
Fore
SplineSet
329 765 m 1
 297 765 l 1
 146 921 l 1
 183 921 l 1
 313 801 l 1
 443 921 l 1
 480 921 l 1
 329 765 l 1
67 0 m 1
 67 19 l 1
 480 667 l 1
 90 667 l 1
 90 700 l 1
 528 700 l 1
 528 679 l 1
 119 33 l 1
 528 33 l 1
 528 0 l 1
 67 0 l 1
EndSplineSet
Position2: "'cpsp' Capital Spacing in Latin lookup 0 subtable" dx=5 dy=0 dh=10 dv=0
EndChar

StartChar: zcaron
Encoding: 268 382 12
Width: 495
GlyphClass: 2
Flags: MW
HStem: 0 33<115 421 115 421> 478 33<88 374 88 422> 576 36<248 248 248 264 232 248>
VStem: 68 354
AnchorPoint: "Anchor-0" 248 0 basechar 0
LayerCount: 2
Fore
SplineSet
264 576 m 1
 232 576 l 1
 81 732 l 1
 118 732 l 1
 248 612 l 1
 378 732 l 1
 415 732 l 1
 264 576 l 1
68 0 m 1
 68 22 l 1
 374 478 l 1
 88 478 l 1
 88 511 l 1
 422 511 l 1
 422 490 l 1
 115 33 l 1
 421 33 l 1
 421 0 l 1
 68 0 l 1
EndSplineSet
EndChar

StartChar: onehalf
Encoding: 269 189 13
Width: 719
Flags: MW
HStem: -12 21G<25 25 25 68> 0 40<443 654 443 654> 393 36<501.5 561> 617 22<36 92 36 36> 685 20G<106 130 130 130> 692 20G<503 546 546 546>
VStem: 92 38<283 617 617 617> 618 38<280 327.5>
LayerCount: 2
Fore
SplineSet
25 -12 m 1xb7
 503 712 l 1
 546 712 l 1
 68 -12 l 1
 25 -12 l 1xb7
92 283 m 1
 92 617 l 1
 36 617 l 1
 36 639 l 1
 86 641 100 662 106 705 c 1
 130 705 l 1x7b
 130 283 l 1
 92 283 l 1
400 0 m 1
 401 100 464 147 533 190 c 0
 589 224 618 252 618 308 c 0
 618 347 592 393 530 393 c 0
 473 393 446 362 433 318 c 1
 400 331 l 1
 414 384 460 429 530 429 c 0
 604 429 656 383 656 308 c 0
 656 235 620 198 550 157 c 0
 483 118 454 84 443 40 c 1
 654 40 l 1
 654 0 l 1
 400 0 l 1
EndSplineSet
EndChar

StartChar: onequarter
Encoding: 270 188 14
Width: 670
Flags: MW
HStem: -12 21G<25 25 25 68> 0 153<363 522 363 560> 117 36<363 522 363 522 560 616> 617 22<36 92 36 36> 685 20G<106 130 130 130> 692 20G<503 546 546 546>
VStem: 92 38<283 617 617 617> 522 38<0 117 0 117 153 360 360 360>
LayerCount: 2
Fore
SplineSet
25 -12 m 1xb7
 503 712 l 1
 546 712 l 1
 68 -12 l 1
 25 -12 l 1xb7
92 283 m 1
 92 617 l 1
 36 617 l 1
 36 639 l 1
 86 641 100 662 106 705 c 1
 130 705 l 1x5b
 130 283 l 1
 92 283 l 1
522 0 m 1
 522 117 l 1
 310 117 l 1
 310 137 l 1
 529 423 l 1
 560 423 l 1
 560 153 l 1
 616 153 l 1
 616 117 l 1
 560 117 l 1xb7
 560 0 l 1
 522 0 l 1
522 153 m 1
 522 360 l 1
 363 153 l 1
 522 153 l 1
EndSplineSet
EndChar

StartChar: uni00B9
Encoding: 271 185 15
Width: 196
Flags: MW
HStem: 778 22<26 82 26 26>
VStem: 82 38<444 778 778 778>
LayerCount: 2
Fore
SplineSet
82 444 m 1
 82 778 l 1
 26 778 l 1
 26 800 l 1
 76 802 90 823 96 866 c 1
 120 866 l 1
 120 444 l 1
 82 444 l 1
EndSplineSet
EndChar

StartChar: threequarters
Encoding: 272 190 16
Width: 814
Flags: MW
HStem: -12 21G<168 168 168 211> 0 153<506 665 506 703> 117 36<506 665 506 665 703 759> 271 36<152.5 208.5 152.5 217> 481 36<159 180 180 190 159 180> 676 36<158.5 208.5>
VStem: 261 38<580 621.5> 278 38<365 417.5> 665 38<0 117 0 117 153 360 360 360>
LayerCount: 2
Fore
SplineSet
180 271 m 0xbd80
 108 271 64 308 39 364 c 1
 74 377 l 1
 95 333 125 307 180 307 c 0
 237 307 278 338 278 392 c 0
 278 443 247 481 190 481 c 2xbd80
 159 481 l 1
 159 517 l 1
 180 517 l 2
 230 517 261 557 261 600 c 0
 261 643 235 676 182 676 c 0
 135 676 107 650 88 612 c 1
 54 626 l 1
 77 679 122 712 182 712 c 0
 250 712 299 671 299 600 c 0xbe80
 299 560 277 518 236 502 c 1
 284 491 316 451 316 392 c 0
 316 317 254 271 180 271 c 0xbd80
168 -12 m 1
 646 712 l 1
 689 712 l 1
 211 -12 l 1
 168 -12 l 1
665 0 m 1x5d80
 665 117 l 1
 453 117 l 1
 453 137 l 1
 672 423 l 1
 703 423 l 1
 703 153 l 1
 759 153 l 1
 759 117 l 1
 703 117 l 1xbd80
 703 0 l 1
 665 0 l 1x5d80
665 153 m 1
 665 360 l 1
 506 153 l 1
 665 153 l 1
EndSplineSet
EndChar

StartChar: uni00B3
Encoding: 273 179 17
Width: 363
Flags: MW
HStem: 433 36<150.5 206.5 150.5 215> 643 36<157 178 178 188 157 178> 838 36<156.5 206.5>
VStem: 259 38<742 783.5> 276 38<527 579.5>
LayerCount: 2
Fore
SplineSet
178 433 m 0xe8
 106 433 62 470 37 526 c 1
 72 539 l 1
 93 495 123 469 178 469 c 0
 235 469 276 500 276 554 c 0
 276 605 245 643 188 643 c 2xe8
 157 643 l 1
 157 679 l 1
 178 679 l 2
 228 679 259 719 259 762 c 0
 259 805 233 838 180 838 c 0
 133 838 105 812 86 774 c 1
 52 788 l 1
 75 841 120 874 180 874 c 0
 248 874 297 833 297 762 c 0xf0
 297 722 275 680 234 664 c 1
 282 653 314 613 314 554 c 0
 314 479 252 433 178 433 c 0xe8
EndSplineSet
EndChar

StartChar: uni00B2
Encoding: 274 178 18
Width: 366
Flags: MW
HStem: 444 41<90 301 90 301> 837 36<148.5 208>
VStem: 265 38<724 771.5>
LayerCount: 2
Fore
SplineSet
47 444 m 1
 48 544 111 591 180 634 c 0
 236 668 265 696 265 752 c 0
 265 791 239 837 177 837 c 0
 120 837 93 806 80 762 c 1
 47 775 l 1
 61 828 107 873 177 873 c 0
 251 873 303 827 303 752 c 0
 303 679 267 642 197 601 c 0
 130 562 101 529 90 485 c 1
 301 485 l 1
 301 444 l 1
 47 444 l 1
EndSplineSet
EndChar

StartChar: brokenbar
Encoding: 275 166 19
Width: 266
Flags: MW
HStem: -225 1050<115 151 115 151>
VStem: 115 36<-225 234 -225 234 366 825>
LayerCount: 2
Fore
SplineSet
115 366 m 1
 115 825 l 1
 151 825 l 1
 151 366 l 1
 115 366 l 1
115 -225 m 1
 115 234 l 1
 151 234 l 1
 151 -225 l 1
 115 -225 l 1
EndSplineSet
EndChar

StartChar: minus
Encoding: 276 8722 20
Width: 656
Flags: MW
HStem: 324 36<93 563 93 563>
VStem: 93 470<324 360 324 360>
LayerCount: 2
Fore
SplineSet
93 324 m 1
 93 360 l 1
 563 360 l 1
 563 324 l 1
 93 324 l 1
EndSplineSet
EndChar

StartChar: multiply
Encoding: 277 215 21
Width: 656
Flags: MW
HStem: 127 428<139 139 139 517>
VStem: 114 428<151 151 151 531>
LayerCount: 2
Fore
SplineSet
328 316 m 1
 139 127 l 1
 114 151 l 1
 304 341 l 1
 114 531 l 1
 139 555 l 1
 328 366 l 1
 517 555 l 1
 542 531 l 1
 352 341 l 1
 542 151 l 1
 517 127 l 1
 328 316 l 1
EndSplineSet
EndChar

StartChar: exclam
Encoding: 33 33 23
Width: 266
Flags: MW
HStem: -14 60<125 141.5> 692 20G<114 152 152 152>
VStem: 104 58<7 23.5> 114 38<460 712 460 712>
LayerCount: 2
Fore
SplineSet
128 193 m 1xd0
 114 460 l 1
 114 712 l 1
 152 712 l 1
 152 460 l 1
 138 193 l 1
 128 193 l 1xd0
133 -14 m 0xe0
 117 -14 104 -1 104 15 c 0
 104 32 117 46 133 46 c 0
 150 46 162 32 162 15 c 0
 162 -1 150 -14 133 -14 c 0xe0
EndSplineSet
EndChar

StartChar: quotedbl
Encoding: 34 34 24
Width: 362
Flags: MW
HStem: 680 20G<78 116 116 116 246 284 284 284>
VStem: 78 38<433 700 433 700> 246 38<433 700 433 700>
LayerCount: 2
Fore
SplineSet
78 700 m 1
 116 700 l 1
 116 433 l 1
 78 433 l 1
 78 700 l 1
246 700 m 1
 284 700 l 1
 284 433 l 1
 246 433 l 1
 246 700 l 1
EndSplineSet
EndChar

StartChar: numbersign
Encoding: 35 35 25
Width: 681
Flags: MW
HStem: 0 21G<152 152 152 191 378 378 378 420> 218 36<72 187 66 192 72 225 230 412 459 572> 457 36<110 225 104 230 110 263 268 450 497 610> 680 20G<263 301 301 301 488 530 530 530>
VStem: 66 549<218 493>
LayerCount: 2
Fore
SplineSet
152 0 m 1
 187 218 l 1
 66 218 l 1
 72 254 l 1
 192 254 l 1
 225 457 l 1
 104 457 l 1
 110 493 l 1
 230 493 l 1
 263 700 l 1
 301 700 l 1
 268 493 l 1
 455 493 l 1
 488 700 l 1
 530 700 l 1
 497 493 l 1
 615 493 l 1
 610 457 l 1
 492 457 l 1
 459 254 l 1
 578 254 l 1
 572 218 l 1
 454 218 l 1
 420 0 l 1
 378 0 l 1
 412 218 l 1
 225 218 l 1
 191 0 l 1
 152 0 l 1
230 254 m 1
 417 254 l 1
 450 457 l 1
 263 457 l 1
 230 254 l 1
EndSplineSet
EndChar

StartChar: dollar
Encoding: 36 36 26
Width: 588
Flags: MW
HStem: -11 34<275 275 311 311> 677 33<311 311 311 322.5> 677 35<275 275 275 322.5>
VStem: 99 38<512 594 512 601> 275 36<-98 -11 -98 -11 712 789> 462 38<124.5 221.5>
LayerCount: 2
Fore
SplineSet
275 -98 m 1xbc
 275 -11 l 1
 178 -3 107 61 76 135 c 1
 114 148 l 1
 147 74 214 23 297 23 c 0
 396 23 462 75 462 174 c 0
 462 269 381 325 293 359 c 0
 200 396 99 443 99 559 c 0
 99 643 161 707 275 712 c 1
 275 789 l 1
 311 789 l 1xbc
 311 710 l 1xdc
 387 703 449 661 470 597 c 1
 434 585 l 1
 410 643 360 677 285 677 c 0
 192 677 137 631 137 557 c 0
 137 467 223 429 309 394 c 0
 397 358 500 301 500 173 c 0
 500 60 422 -6 311 -11 c 1
 311 -98 l 1
 275 -98 l 1xbc
EndSplineSet
EndChar

StartChar: percent
Encoding: 37 37 27
Width: 885
Flags: MW
HStem: -12 36<623.5 706.5 623.5 720.5> 308 36<622.5 707.5> 356 36<178.5 261.5 178.5 275.5> 676 36<177.5 262.5>
VStem: 68 38<500 564.5 500 572.5> 334 38<500 564.5> 513 38<132 196.5 132 204.5> 779 38<132 196.5>
LayerCount: 2
Fore
SplineSet
220 356 m 0
 109 356 68 449 68 534 c 0
 68 611 106 712 220 712 c 0
 334 712 372 611 372 534 c 0
 372 449 331 356 220 356 c 0
225 -12 m 1
 182 -12 l 1
 660 712 l 1
 703 712 l 1
 225 -12 l 1
220 392 m 0
 303 392 334 466 334 534 c 0
 334 595 305 676 220 676 c 0
 135 676 106 595 106 534 c 0
 106 466 137 392 220 392 c 0
665 -12 m 0
 554 -12 513 81 513 166 c 0
 513 243 551 344 665 344 c 0xdf
 779 344 817 243 817 166 c 0
 817 81 776 -12 665 -12 c 0
665 24 m 0
 748 24 779 98 779 166 c 0
 779 227 750 308 665 308 c 0xdf
 580 308 551 227 551 166 c 0
 551 98 582 24 665 24 c 0
EndSplineSet
EndChar

StartChar: ampersand
Encoding: 38 38 28
Width: 646
Flags: MW
HStem: -12 36<203.5 290 203.5 294.5> 0 21G<561 613 561 561> 676 36<252.5 315.5>
VStem: 58 38<124 210 124 220> 138 38<548.5 603.5 548.5 616> 395 38<537 598.5> 517 38<319 319>
LayerCount: 2
Fore
SplineSet
246 -12 m 0xbe
 134 -12 58 58 58 171 c 0
 58 269 134 334 233 391 c 1
 163 476 138 523 138 572 c 0
 138 660 205 712 289 712 c 0
 372 712 433 653 433 570 c 0
 433 496 383 439 288 383 c 1
 468 170 l 1
 494 217 510 270 517 319 c 1
 555 319 l 1
 550 263 530 198 494 140 c 1
 613 0 l 1
 561 0 l 1x7e
 471 107 l 1
 419 39 343 -12 246 -12 c 0xbe
285 676 m 0
 220 676 176 635 176 572 c 0
 176 525 211 476 266 409 c 1
 350 458 395 510 395 564 c 0
 395 633 346 676 285 676 c 0
246 24 m 0
 334 24 401 71 447 136 c 1
 255 364 l 1
 156 307 96 249 96 171 c 0
 96 77 161 24 246 24 c 0
EndSplineSet
EndChar

StartChar: quotesingle
Encoding: 39 39 29
Width: 194
Flags: MW
HStem: 680 20G<78 116 116 116>
VStem: 78 38<433 700 433 700>
LayerCount: 2
Fore
SplineSet
78 700 m 1
 116 700 l 1
 116 433 l 1
 78 433 l 1
 78 700 l 1
EndSplineSet
EndChar

StartChar: parenleft
Encoding: 40 40 30
Width: 336
Flags: MW
HStem: 692 20G<237 273 273 273>
VStem: 104 38<178 390>
LayerCount: 2
Fore
SplineSet
226 -130 m 1
 165 -50 104 72 104 284 c 0
 104 496 170 632 237 712 c 1
 273 712 l 1
 238 669 142 508 142 284 c 0
 142 56 233 -87 262 -130 c 1
 226 -130 l 1
EndSplineSet
EndChar

StartChar: parenright
Encoding: 41 41 31
Width: 336
Flags: MW
HStem: 692 20G<63 99 99 99>
VStem: 194 38<178 390 178 396>
LayerCount: 2
Fore
SplineSet
74 -130 m 1
 103 -87 194 56 194 284 c 0
 194 508 98 669 63 712 c 1
 99 712 l 1
 166 632 232 496 232 284 c 0
 232 72 171 -50 110 -130 c 1
 74 -130 l 1
EndSplineSet
EndChar

StartChar: asterisk
Encoding: 42 42 32
Width: 524
Flags: MW
HStem: 680 20G<242 282 282 282>
VStem: 242 40<595 700 595 700>
LayerCount: 2
Fore
SplineSet
313 393 m 1
 262 483 l 1
 211 393 l 1
 151 310 l 1
 120 334 l 1
 180 417 l 1
 253 490 l 1
 154 511 l 1
 58 543 l 1
 71 579 l 1
 168 547 l 1
 255 502 l 1
 242 595 l 1
 242 700 l 1
 282 700 l 1
 282 595 l 1
 269 502 l 1
 356 547 l 1
 453 579 l 1
 466 543 l 1
 370 511 l 1
 271 490 l 1
 344 417 l 1
 404 334 l 1
 373 310 l 1
 313 393 l 1
EndSplineSet
EndChar

StartChar: plus
Encoding: 43 43 33
Width: 656
Flags: MW
HStem: 324 36<93 308 93 308 346 563>
VStem: 308 38<108 324 108 324 360 578>
LayerCount: 2
Fore
SplineSet
346 324 m 1
 346 108 l 1
 308 108 l 1
 308 324 l 1
 93 324 l 1
 93 360 l 1
 308 360 l 1
 308 578 l 1
 346 578 l 1
 346 360 l 1
 563 360 l 1
 563 324 l 1
 346 324 l 1
EndSplineSet
EndChar

StartChar: comma
Encoding: 44 44 34
Width: 202
Flags: MW
HStem: -141 187<81 110> -14 60<95 104>
VStem: 104 30<-28.5 -14>
LayerCount: 2
Fore
SplineSet
72 -138 m 1xa0
 98 -99 104 -57 104 -14 c 1
 86 -14 72 -2 72 15 c 0
 72 33 85 46 101 46 c 0
 119 46 134 34 134 0 c 0x60
 134 -57 106 -116 81 -141 c 1
 72 -138 l 1xa0
EndSplineSet
EndChar

StartChar: hyphen
Encoding: 45 45 35
Width: 399
Flags: MW
HStem: 280 36<88 311 88 311>
VStem: 88 223<280 316 280 316>
LayerCount: 2
Fore
SplineSet
88 280 m 1
 88 316 l 1
 311 316 l 1
 311 280 l 1
 88 280 l 1
EndSplineSet
EndChar

StartChar: period
Encoding: 46 46 36
Width: 202
Flags: MW
HStem: -14 60<93 109.5>
VStem: 72 58<7 23.5>
LayerCount: 2
Fore
SplineSet
101 -14 m 0
 85 -14 72 -1 72 15 c 0
 72 32 85 46 101 46 c 0
 118 46 130 32 130 15 c 0
 130 -1 118 -14 101 -14 c 0
EndSplineSet
EndChar

StartChar: slash
Encoding: 47 47 37
Width: 482
Flags: MW
HStem: 692 20G<405 445 445 445>
VStem: 12 433
LayerCount: 2
Fore
SplineSet
12 -130 m 1
 405 712 l 1
 445 712 l 1
 52 -130 l 1
 12 -130 l 1
EndSplineSet
Substitution2: "'frac' Diagonal Fractions in Latin lookup 14 subtable" fraction
Substitution2: "'aalt' Access All Alternates in Latin lookup 0 subtable" fraction
EndChar

StartChar: zero
Encoding: 48 48 38
Width: 616
Flags: MW
HStem: -12 36<238 382 238 397.5> 676 36<233.5 378>
VStem: 85 39<271 415.5 271 423> 492 39<283.5 427>
LayerCount: 2
Fore
SplineSet
308 -12 m 0
 138 -12 85 175 85 350 c 0
 85 496 127 712 308 712 c 0
 478 712 531 521 531 350 c 0
 531 202 487 -12 308 -12 c 0
308 24 m 0
 456 24 492 217 492 350 c 0
 492 504 448 676 308 676 c 0
 159 676 124 481 124 350 c 0
 124 192 168 24 308 24 c 0
EndSplineSet
Substitution2: "'frac' Diagonal Fractions in Latin lookup 15 subtable" zero.numr
Substitution2: "'dnom' Denominators in Latin lookup 13 subtable" zero.dnom
Substitution2: "'numr' Numerators in Latin lookup 12 subtable" zero.numr
AlternateSubs2: "'aalt' Access All Alternates in Latin lookup 1 subtable" zero.numr zero.dnom
EndChar

StartChar: one
Encoding: 49 49 39
Width: 330
Flags: MW
HStem: 0 21G<174 174 174 210> 582 24<55 100 55 174 55 100> 680 20G<185 210 210 210>
VStem: 174 36<0 582 582 582>
LayerCount: 2
Fore
SplineSet
174 0 m 1
 174 582 l 1
 55 582 l 1
 55 606 l 1
 145 606 168 619 185 700 c 1
 210 700 l 1
 210 0 l 1
 174 0 l 1
EndSplineSet
Substitution2: "'frac' Diagonal Fractions in Latin lookup 15 subtable" one.numr
Substitution2: "'dnom' Denominators in Latin lookup 13 subtable" one.dnom
Substitution2: "'numr' Numerators in Latin lookup 12 subtable" one.numr
Substitution2: "'sups' Superscript in Latin lookup 11 subtable" uni00B9
AlternateSubs2: "'aalt' Access All Alternates in Latin lookup 1 subtable" uni00B9 one.numr one.dnom
EndChar

StartChar: two
Encoding: 50 50 40
Width: 596
Flags: MW
HStem: 0 36<124 510 124 510> 676 36<257.5 354>
VStem: 83 41<36 36 36 79> 466 38<464.5 567.5>
LayerCount: 2
Fore
SplineSet
83 0 m 1
 83 158 163 213 277 287 c 0
 369 346 466 406 466 523 c 0
 466 612 405 676 303 676 c 0
 212 676 152 623 131 546 c 1
 97 562 l 1
 121 647 194 712 303 712 c 0
 430 712 504 634 504 523 c 0
 504 387 397 321 296 257 c 0
 189 189 128 136 124 36 c 1
 510 36 l 1
 510 0 l 1
 83 0 l 1
EndSplineSet
Substitution2: "'frac' Diagonal Fractions in Latin lookup 15 subtable" two.numr
Substitution2: "'dnom' Denominators in Latin lookup 13 subtable" two.dnom
Substitution2: "'numr' Numerators in Latin lookup 12 subtable" two.numr
Substitution2: "'sups' Superscript in Latin lookup 11 subtable" uni00B2
AlternateSubs2: "'aalt' Access All Alternates in Latin lookup 1 subtable" uni00B2 two.numr two.dnom
EndChar

StartChar: three
Encoding: 51 51 41
Width: 586
Flags: MW
HStem: -12 36<238.5 334.5 238.5 347> 346 35<255 278 278 293 255 278> 676 36<240.5 329>
VStem: 437 38<501 578.5> 465 38<130.5 230 122.5 232.5>
LayerCount: 2
Fore
SplineSet
284 -12 m 0xe8
 162 -12 91 60 58 139 c 1
 93 152 l 1
 130 70 193 24 284 24 c 0
 385 24 465 79 465 182 c 0xe8
 465 283 403 346 293 346 c 2
 255 346 l 1
 255 381 l 1
 278 381 l 2
 369 381 437 439 437 536 c 0
 437 621 372 676 286 676 c 0
 195 676 144 616 119 567 c 1
 85 581 l 1
 115 645 185 712 286 712 c 0
 394 712 475 641 475 536 c 0xf0
 475 466 441 397 361 367 c 1
 447 350 503 278 503 182 c 0
 503 63 410 -12 284 -12 c 0xe8
EndSplineSet
Substitution2: "'frac' Diagonal Fractions in Latin lookup 15 subtable" three.numr
Substitution2: "'dnom' Denominators in Latin lookup 13 subtable" three.dnom
Substitution2: "'numr' Numerators in Latin lookup 12 subtable" three.numr
Substitution2: "'sups' Superscript in Latin lookup 11 subtable" uni00B3
AlternateSubs2: "'aalt' Access All Alternates in Latin lookup 1 subtable" uni00B3 three.numr three.dnom
EndChar

StartChar: four
Encoding: 52 52 42
Width: 583
Flags: MW
HStem: 0 21G<385 385 385 421> 204 33<94 385 94 385 421 527> 680 20G<405 421 421 421>
VStem: 385 36<0 204 0 204 237 620 620 620>
LayerCount: 2
Fore
SplineSet
385 0 m 1
 385 204 l 1
 43 204 l 1
 43 225 l 1
 405 700 l 1
 421 700 l 1
 421 237 l 1
 527 237 l 1
 527 204 l 1
 421 204 l 1
 421 0 l 1
 385 0 l 1
385 237 m 1
 385 620 l 1
 94 237 l 1
 385 237 l 1
EndSplineSet
Substitution2: "'frac' Diagonal Fractions in Latin lookup 15 subtable" four.numr
Substitution2: "'dnom' Denominators in Latin lookup 13 subtable" four.dnom
Substitution2: "'numr' Numerators in Latin lookup 12 subtable" four.numr
AlternateSubs2: "'aalt' Access All Alternates in Latin lookup 1 subtable" four.numr four.dnom
EndChar

StartChar: five
Encoding: 53 53 43
Width: 624
Flags: MW
HStem: -12 36<252.5 369 252.5 380> 416 36<281 366.5> 664 36<201 492 201 201>
VStem: 500 38<174.5 283.5>
LayerCount: 2
Fore
SplineSet
299 -12 m 0
 196 -12 120 41 86 79 c 1
 110 109 l 1
 142 73 205 24 300 24 c 0
 438 24 500 122 500 227 c 0
 500 340 421 416 312 416 c 0
 233 416 179 379 142 337 c 1
 112 345 l 1
 169 700 l 1
 492 700 l 1
 492 664 l 1
 201 664 l 1
 158 396 l 1
 196 430 249 452 313 452 c 0
 442 452 538 361 538 227 c 0
 538 104 461 -12 299 -12 c 0
EndSplineSet
Substitution2: "'frac' Diagonal Fractions in Latin lookup 15 subtable" five.numr
Substitution2: "'dnom' Denominators in Latin lookup 13 subtable" five.dnom
Substitution2: "'numr' Numerators in Latin lookup 12 subtable" five.numr
AlternateSubs2: "'aalt' Access All Alternates in Latin lookup 1 subtable" five.numr five.dnom
EndChar

StartChar: six
Encoding: 54 54 44
Width: 582
Flags: MW
HStem: -12 36<235 339.5 235 351> 389 36<253.5 341> 692 20G<401 401>
VStem: 73 40<170 261 157 338.5> 462 38<153.5 258.5>
LayerCount: 2
Fore
SplineSet
287 -12 m 0
 132 -12 73 113 73 227 c 0
 73 450 181 636 401 712 c 1
 401 675 l 1
 255 625 153 510 118 335 c 1
 152 390 220 425 287 425 c 0
 418 425 500 333 500 210 c 0
 500 82 415 -12 287 -12 c 0
287 24 m 0
 392 24 462 102 462 205 c 0
 462 312 395 389 287 389 c 0
 185 389 113 312 113 210 c 0
 113 104 183 24 287 24 c 0
EndSplineSet
Substitution2: "'frac' Diagonal Fractions in Latin lookup 15 subtable" six.numr
Substitution2: "'dnom' Denominators in Latin lookup 13 subtable" six.dnom
Substitution2: "'numr' Numerators in Latin lookup 12 subtable" six.numr
AlternateSubs2: "'aalt' Access All Alternates in Latin lookup 1 subtable" six.numr six.dnom
EndChar

StartChar: seven
Encoding: 55 55 45
Width: 495
Flags: MW
HStem: 0 21G<177 177 177 216> 664 36<49 408 49 446>
VStem: 177 39<0 0>
LayerCount: 2
Fore
SplineSet
177 0 m 1
 181 226 227 446 408 664 c 1
 49 664 l 1
 49 700 l 1
 446 700 l 1
 446 669 l 1
 244 439 218 178 216 0 c 1
 177 0 l 1
EndSplineSet
Substitution2: "'frac' Diagonal Fractions in Latin lookup 15 subtable" seven.numr
Substitution2: "'dnom' Denominators in Latin lookup 13 subtable" seven.dnom
Substitution2: "'numr' Numerators in Latin lookup 12 subtable" seven.numr
AlternateSubs2: "'aalt' Access All Alternates in Latin lookup 1 subtable" seven.numr seven.dnom
EndChar

StartChar: eight
Encoding: 56 56 46
Width: 594
Flags: MW
HStem: -12 36<248 346 248 358.5> 369 32<253.5 340.5 253.5 349> 676 36<256.5 337.5>
VStem: 84 40<139.5 238> 116 38<505 581 497.5 586> 440 38<505 581> 470 40<139.5 238 133.5 239.5>
LayerCount: 2
Fore
SplineSet
297 -12 m 0xf2
 174 -12 84 76 84 191 c 0xf2
 84 285 141 363 229 386 c 1
 156 408 116 472 116 538 c 0
 116 634 193 712 297 712 c 0
 401 712 478 634 478 538 c 0xec
 478 472 442 410 363 386 c 1
 454 361 510 285 510 191 c 0
 510 76 420 -12 297 -12 c 0xf2
297 401 m 0xec
 384 401 440 457 440 538 c 0
 440 624 378 676 297 676 c 0
 216 676 154 624 154 538 c 0
 154 457 210 401 297 401 c 0xec
297 24 m 0xf2
 395 24 470 88 470 191 c 0
 470 288 401 369 297 369 c 0
 193 369 124 288 124 191 c 0
 124 88 199 24 297 24 c 0xf2
EndSplineSet
Substitution2: "'frac' Diagonal Fractions in Latin lookup 15 subtable" eight.numr
Substitution2: "'dnom' Denominators in Latin lookup 13 subtable" eight.dnom
Substitution2: "'numr' Numerators in Latin lookup 12 subtable" eight.numr
AlternateSubs2: "'aalt' Access All Alternates in Latin lookup 1 subtable" eight.numr eight.dnom
EndChar

StartChar: nine
Encoding: 57 57 47
Width: 582
Flags: MW
HStem: -12 21G<184 184> 288 36<227.5 317> 676 36<233 334>
VStem: 72 38<451 550.5 451 558> 459 41<448.5 538.5 362.5 548>
LayerCount: 2
Fore
SplineSet
184 -12 m 1
 184 24 l 1
 331 73 429 220 449 374 c 1
 417 326 361 288 273 288 c 0
 156 288 72 380 72 497 c 0
 72 619 162 712 287 712 c 0
 427 712 500 597 500 480 c 0
 500 245 371 47 184 -12 c 1
278 324 m 0
 386 324 459 400 459 497 c 0
 459 599 383 676 285 676 c 0
 181 676 110 599 110 502 c 0
 110 400 177 324 278 324 c 0
EndSplineSet
Substitution2: "'frac' Diagonal Fractions in Latin lookup 15 subtable" nine.numr
Substitution2: "'dnom' Denominators in Latin lookup 13 subtable" nine.dnom
Substitution2: "'numr' Numerators in Latin lookup 12 subtable" nine.numr
AlternateSubs2: "'aalt' Access All Alternates in Latin lookup 1 subtable" nine.numr nine.dnom
EndChar

StartChar: colon
Encoding: 58 58 48
Width: 202
Flags: MW
HStem: -14 60<93 109.5> 423 60<93 109.5>
VStem: 72 58<7 23.5 444 460.5>
LayerCount: 2
Fore
SplineSet
101 423 m 0
 85 423 72 436 72 452 c 0
 72 469 85 483 101 483 c 0
 118 483 130 469 130 452 c 0
 130 436 118 423 101 423 c 0
101 -14 m 0
 85 -14 72 -1 72 15 c 0
 72 32 85 46 101 46 c 0
 118 46 130 32 130 15 c 0
 130 -1 118 -14 101 -14 c 0
EndSplineSet
EndChar

StartChar: semicolon
Encoding: 59 59 49
Width: 202
Flags: MW
HStem: -14 60<95 104> 423 60<93 109.5>
VStem: 72 58<444 460.5> 104 30<-28.5 -14>
LayerCount: 2
Fore
SplineSet
101 423 m 0xe0
 85 423 72 436 72 452 c 0
 72 469 85 483 101 483 c 0
 118 483 130 469 130 452 c 0
 130 436 118 423 101 423 c 0xe0
72 -138 m 1xd0
 98 -99 104 -57 104 -14 c 1
 86 -14 72 -2 72 15 c 0
 72 33 85 46 101 46 c 0
 119 46 134 34 134 0 c 0
 134 -57 106 -116 81 -141 c 1
 72 -138 l 1xd0
EndSplineSet
EndChar

StartChar: less
Encoding: 60 60 50
Width: 656
Flags: MW
HStem: 120 446<563 563>
VStem: 93 47<343 343 343 362 343 362>
LayerCount: 2
Fore
SplineSet
563 120 m 1
 93 324 l 1
 93 362 l 1
 563 566 l 1
 563 525 l 1
 140 343 l 1
 563 161 l 1
 563 120 l 1
EndSplineSet
EndChar

StartChar: equal
Encoding: 61 61 51
Width: 656
Flags: MW
HStem: 229 36<93 563 93 563> 419 36<93 563 93 563>
VStem: 93 470<229 265 229 265 419 455 229 455>
LayerCount: 2
Fore
SplineSet
93 419 m 1
 93 455 l 1
 563 455 l 1
 563 419 l 1
 93 419 l 1
93 229 m 1
 93 265 l 1
 563 265 l 1
 563 229 l 1
 93 229 l 1
EndSplineSet
EndChar

StartChar: greater
Encoding: 62 62 52
Width: 656
Flags: MW
HStem: 120 446<93 93>
VStem: 516 47<343 343>
LayerCount: 2
Fore
SplineSet
563 324 m 1
 93 120 l 1
 93 161 l 1
 516 343 l 1
 93 525 l 1
 93 566 l 1
 563 362 l 1
 563 324 l 1
EndSplineSet
EndChar

StartChar: question
Encoding: 63 63 53
Width: 522
Flags: MW
HStem: -14 60<242 258.5> 676 36<210.5 313.5>
VStem: 62 36<525 567 525 576.5> 221 58<7 23.5> 231 38<156 190 156 279> 419 38<459 572>
LayerCount: 2
Fore
SplineSet
231 156 m 1x6c
 231 190 l 2
 231 368 419 386 419 532 c 0
 419 612 364 676 263 676 c 0
 158 676 98 609 98 525 c 1
 62 525 l 1
 62 628 138 712 263 712 c 0
 388 712 457 631 457 532 c 0
 457 369 269 354 269 190 c 2
 269 156 l 1
 231 156 l 1x6c
250 -14 m 0xf4
 234 -14 221 -1 221 15 c 0
 221 32 234 46 250 46 c 0
 267 46 279 32 279 15 c 0
 279 -1 267 -14 250 -14 c 0xf4
EndSplineSet
EndChar

StartChar: at
Encoding: 64 64 54
Width: 795
Flags: MW
HStem: -12 36<306 419> 151 35<340.5 388.5> 160 31<566.5 613 566.5 623> 494 35<360 434> 496 20G<540 575 575 575> 676 36<329.5 498>
VStem: 62 38<246.5 432.5 246.5 445> 226 38<278 366 278 371> 501 33 695 38<352.5 495>
LayerCount: 2
Fore
SplineSet
397 -12 m 0xcfc0
 212 -12 62 114 62 334 c 0
 62 556 227 712 416 712 c 0
 603 712 733 594 733 419 c 0
 733 268 665 160 581 160 c 0xafc0
 538 160 506 185 501 234 c 1
 465 166 408 151 369 151 c 0
 283 151 226 212 226 320 c 0
 226 422 293 529 402 529 c 0
 473 529 513 480 525 430 c 1xd7c0
 540 516 l 1
 575 516 l 1
 540 311 l 2
 536 290 534 266 534 251 c 0
 534 212 552 191 581 191 c 0xafc0
 645 191 695 286 695 419 c 0
 695 571 580 676 416 676 c 0
 243 676 100 532 100 333 c 0
 100 160 211 24 401 24 c 0
 441 24 488 28 525 37 c 1
 517 1 l 1
 482 -8 441 -12 397 -12 c 0xcfc0
373 186 m 0
 457 186 511 266 511 361 c 0
 511 442 462 494 406 494 c 0xd7c0
 314 494 264 413 264 319 c 0
 264 237 308 186 373 186 c 0
EndSplineSet
EndChar

StartChar: A
Encoding: 65 65 55
Width: 636
GlyphClass: 2
Flags: MW
HStem: 0 21G<65 104 65 65 532 571 532 532> 197 30<181 455 181 464 172 455> 680 20G<305 331 331 331>
VStem: 65 506<0 0>
AnchorPoint: "Anchor-0" 318 0 basechar 0
LayerCount: 2
Fore
SplineSet
532 0 m 1
 464 197 l 1
 172 197 l 1
 104 0 l 1
 65 0 l 1
 305 700 l 1
 331 700 l 1
 571 0 l 1
 532 0 l 1
455 227 m 1
 353 525 l 2
 348 541 325 607 318 637 c 1
 311 607 286 538 282 525 c 2
 181 227 l 1
 455 227 l 1
EndSplineSet
Substitution2: "Single Substitution lookup 21 subtable" ordfeminine
Substitution2: "'aalt' Access All Alternates in Latin lookup 0 subtable" ordfeminine
Position2: "'cpsp' Capital Spacing in Latin lookup 0 subtable" dx=5 dy=0 dh=10 dv=0
EndChar

StartChar: B
Encoding: 66 66 56
Width: 632
GlyphClass: 2
Flags: MW
HStem: 0 32<146 341> 347 32<146 306 306 318 146 306> 668 32<146 325 325 328 146 146>
VStem: 110 36<32 347 379 668> 487 36<487.5 562> 512 36<143.5 224.5>
AnchorPoint: "Anchor-0" 316 0 basechar 0
LayerCount: 2
Fore
SplineSet
110 700 m 1xf4
 325 700 l 2
 476 700 523 613 523 526 c 0xf8
 523 449 473 383 388 365 c 1
 482 357 548 289 548 188 c 0
 548 97 500 0 341 0 c 2
 110 0 l 1
 110 700 l 1xf4
306 379 m 2
 425 379 487 438 487 528 c 0
 487 596 457 668 328 668 c 2
 146 668 l 1
 146 379 l 1
 306 379 l 2
350 32 m 2xf4
 476 32 512 106 512 181 c 0
 512 268 473 347 318 347 c 2
 146 347 l 1
 146 32 l 1
 350 32 l 2xf4
EndSplineSet
Position2: "'cpsp' Capital Spacing in Latin lookup 0 subtable" dx=5 dy=0 dh=10 dv=0
EndChar

StartChar: C
Encoding: 67 67 57
Width: 640
GlyphClass: 2
Flags: MW
HStem: -12 36<272 403 272 412.5> 676 36<276.5 405>
VStem: 85 39<267 434 267 443>
AnchorPoint: "Anchor-0" 356 0 basechar 0
LayerCount: 2
Fore
SplineSet
356 -12 m 0
 162 -12 85 167 85 350 c 0
 85 536 171 712 355 712 c 0
 473 712 522 656 555 599 c 1
 524 581 l 1
 496 629 455 676 355 676 c 0
 198 676 124 518 124 350 c 0
 124 184 188 24 356 24 c 0
 450 24 506 76 532 129 c 1
 565 116 l 1
 535 52 469 -12 356 -12 c 0
EndSplineSet
Position2: "'cpsp' Capital Spacing in Latin lookup 0 subtable" dx=5 dy=0 dh=10 dv=0
EndChar

StartChar: D
Encoding: 68 68 58
Width: 665
GlyphClass: 2
Flags: MW
HStem: 0 36<146 266 146 266> 664 36<146 270 146 146>
VStem: 110 36<36 664 36 700> 541 39<278 427.5>
AnchorPoint: "Anchor-0" 333 0 basechar 0
LayerCount: 2
Fore
SplineSet
110 700 m 1
 270 700 l 2
 502 700 580 523 580 350 c 0
 580 189 512 0 266 0 c 2
 110 0 l 1
 110 700 l 1
266 36 m 2
 482 36 541 206 541 350 c 0
 541 505 473 664 270 664 c 2
 146 664 l 1
 146 36 l 1
 266 36 l 2
EndSplineSet
Position2: "'cpsp' Capital Spacing in Latin lookup 0 subtable" dx=5 dy=0 dh=10 dv=0
EndChar

StartChar: E
Encoding: 69 69 59
Width: 582
GlyphClass: 2
Flags: MW
HStem: 0 33<146 497 146 497> 346 33<146 368 146 368> 667 33<146 475 146 146>
VStem: 110 36<33 346 379 667>
AnchorPoint: "Anchor-0" 291 0 basechar 0
LayerCount: 2
Fore
SplineSet
110 0 m 1
 110 700 l 1
 475 700 l 1
 475 667 l 1
 146 667 l 1
 146 379 l 1
 368 379 l 1
 368 346 l 1
 146 346 l 1
 146 33 l 1
 497 33 l 1
 497 0 l 1
 110 0 l 1
EndSplineSet
Position2: "'cpsp' Capital Spacing in Latin lookup 0 subtable" dx=5 dy=0 dh=10 dv=0
EndChar

StartChar: F
Encoding: 70 70 60
Width: 550
GlyphClass: 2
Flags: MW
HStem: 0 21G<110 110 110 146> 346 33<146 375 146 375> 667 33<146 485 146 146>
VStem: 110 36<0 346 379 667>
AnchorPoint: "Anchor-0" 275 0 basechar 0
LayerCount: 2
Fore
SplineSet
110 0 m 1
 110 700 l 1
 485 700 l 1
 485 667 l 1
 146 667 l 1
 146 379 l 1
 375 379 l 1
 375 346 l 1
 146 346 l 1
 146 0 l 1
 110 0 l 1
EndSplineSet
Position2: "'cpsp' Capital Spacing in Latin lookup 0 subtable" dx=5 dy=0 dh=10 dv=0
EndChar

StartChar: G
Encoding: 71 71 61
Width: 681
GlyphClass: 2
Flags: MW
HStem: -12 36<275.5 414 275.5 422> 281 34<395 542 395 580 395 580> 676 36<271.5 398>
VStem: 85 39<265.5 426 265.5 445.5> 542 38<269 281 177 281>
AnchorPoint: "Anchor-0" 351 0 basechar 0
LayerCount: 2
Fore
SplineSet
358 -12 m 0
 162 -12 85 167 85 350 c 0
 85 541 168 712 358 712 c 0
 457 712 515 662 549 616 c 1
 517 595 l 1
 486 638 438 676 358 676 c 0
 185 676 124 502 124 350 c 0
 124 181 193 24 358 24 c 0
 470 24 542 104 542 269 c 2
 542 281 l 1
 395 281 l 1
 395 315 l 1
 580 315 l 1
 580 281 l 2
 580 73 486 -12 358 -12 c 0
EndSplineSet
Position2: "'cpsp' Capital Spacing in Latin lookup 0 subtable" dx=5 dy=0 dh=10 dv=0
EndChar

StartChar: H
Encoding: 72 72 62
Width: 668
GlyphClass: 2
Flags: MW
HStem: 0 21G<110 146 110 110 522 558 522 522> 347 34<146 522 146 522> 680 20G<110 146 146 146 522 558 558 558>
VStem: 110 36<0 347 0 381 381 700> 522 36<0 347 347 347 381 700 0 700>
AnchorPoint: "Anchor-0" 334 0 basechar 0
LayerCount: 2
Fore
SplineSet
522 0 m 1
 522 347 l 1
 146 347 l 1
 146 0 l 1
 110 0 l 1
 110 700 l 1
 146 700 l 1
 146 381 l 1
 522 381 l 1
 522 700 l 1
 558 700 l 1
 558 0 l 1
 522 0 l 1
EndSplineSet
Position2: "'cpsp' Capital Spacing in Latin lookup 0 subtable" dx=5 dy=0 dh=10 dv=0
EndChar

StartChar: I
Encoding: 73 73 63
Width: 256
GlyphClass: 2
Flags: MW
HStem: 0 21G<110 110 110 146> 680 20G<110 146 146 146>
VStem: 110 36<0 700 0 700>
AnchorPoint: "Anchor-0" 128 0 basechar 0
LayerCount: 2
Fore
SplineSet
110 0 m 1
 110 700 l 1
 146 700 l 1
 146 0 l 1
 110 0 l 1
EndSplineSet
Position2: "'cpsp' Capital Spacing in Latin lookup 0 subtable" dx=5 dy=0 dh=10 dv=0
EndChar

StartChar: J
Encoding: 74 74 64
Width: 532
GlyphClass: 2
Flags: MW
HStem: -12 34<179 257 179 265.5> 680 20G<390 426 426 426>
VStem: 390 36<223 225 225 700>
AnchorPoint: "Anchor-0" 266 0 basechar 0
LayerCount: 2
Fore
SplineSet
220 -12 m 0
 119 -12 69 33 38 107 c 1
 68 123 l 1
 95 63 138 22 220 22 c 0
 294 22 390 61 390 223 c 2
 390 700 l 1
 426 700 l 1
 426 225 l 2
 426 34 311 -12 220 -12 c 0
EndSplineSet
Substitution2: "Single Substitution lookup 19 subtable" Jacute
Substitution2: "'aalt' Access All Alternates in Latin lookup 0 subtable" Jacute
Position2: "'cpsp' Capital Spacing in Latin lookup 0 subtable" dx=5 dy=0 dh=10 dv=0
EndChar

StartChar: K
Encoding: 75 75 65
Width: 619
GlyphClass: 2
Flags: MW
HStem: 0 21G<110 146 110 110 514 556 514 514> 680 20G<110 146 146 146 450 493 493 493>
VStem: 110 36<0 264 317 700>
AnchorPoint: "Anchor-0" 310 0 basechar 0
LayerCount: 2
Fore
SplineSet
514 0 m 1
 279 431 l 1
 146 264 l 1
 146 0 l 1
 110 0 l 1
 110 700 l 1
 146 700 l 1
 146 317 l 1
 450 700 l 1
 493 700 l 1
 304 462 l 1
 556 0 l 1
 514 0 l 1
EndSplineSet
Position2: "'cpsp' Capital Spacing in Latin lookup 0 subtable" dx=5 dy=0 dh=10 dv=0
EndChar

StartChar: L
Encoding: 76 76 66
Width: 533
GlyphClass: 2
Flags: MW
HStem: 0 33<146 493 146 493> 680 20G<110 146 146 146>
VStem: 110 36<33 700 33 700 33 700>
AnchorPoint: "Anchor-0" 301 0 basechar 0
LayerCount: 2
Fore
SplineSet
110 0 m 1
 110 700 l 1
 146 700 l 1
 146 33 l 1
 493 33 l 1
 493 0 l 1
 110 0 l 1
EndSplineSet
Position2: "'cpsp' Capital Spacing in Latin lookup 0 subtable" dx=5 dy=0 dh=10 dv=0
EndChar

StartChar: M
Encoding: 77 77 67
Width: 798
GlyphClass: 2
Flags: MW
HStem: -12 21G<399 399> 0 21G<110 146 110 110 652 688 652 652> 680 20G<110 142 142 142 656 688 688 688>
VStem: 110 36<0 552 552 596> 652 36<0 552 552 596 596 596>
AnchorPoint: "Anchor-0" 399 0 basechar 0
LayerCount: 2
Fore
SplineSet
688 0 m 1x78
 652 0 l 1x78
 652 552 l 1
 652 596 l 1
 646 581 640 567 634 552 c 2
 399 -12 l 1xb8
 164 552 l 1
 146 596 l 1
 146 581 146 567 146 552 c 2
 146 0 l 1
 110 0 l 1
 110 700 l 1
 142 700 l 1
 378 132 l 1
 399 81 l 1
 406 98 413 115 420 132 c 2
 656 700 l 1
 688 700 l 1
 688 0 l 1x78
EndSplineSet
Position2: "'cpsp' Capital Spacing in Latin lookup 0 subtable" dx=5 dy=0 dh=10 dv=0
EndChar

StartChar: N
Encoding: 78 78 68
Width: 681
GlyphClass: 2
Flags: MW
HStem: 0 21G<110 146 110 110 536 571 536 536> 680 20G<110 145 145 145 535 571 571 571>
VStem: 110 36<0 581 581 632> 535 36<68 119 119 700>
AnchorPoint: "Anchor-0" 341 0 basechar 0
LayerCount: 2
Fore
SplineSet
571 0 m 1
 536 0 l 1
 177 581 l 1
 146 632 l 1
 146 615 146 598 146 581 c 2
 146 0 l 1
 110 0 l 1
 110 700 l 1
 145 700 l 1
 504 119 l 1
 535 68 l 1
 535 85 535 102 535 119 c 2
 535 700 l 1
 571 700 l 1
 571 0 l 1
EndSplineSet
Position2: "'cpsp' Capital Spacing in Latin lookup 0 subtable" dx=5 dy=0 dh=10 dv=0
EndChar

StartChar: O
Encoding: 79 79 69
Width: 716
GlyphClass: 2
Flags: MW
HStem: -12 36<271 445 271 458> 676 36<271 445>
VStem: 85 39<267 426 267 436.5> 592 39<274 433>
AnchorPoint: "Anchor-0" 358 0 basechar 0
LayerCount: 2
Fore
SplineSet
358 -12 m 0
 158 -12 85 177 85 350 c 0
 85 523 158 712 358 712 c 0
 558 712 631 523 631 350 c 0
 631 177 558 -12 358 -12 c 0
358 24 m 0
 532 24 592 198 592 350 c 0
 592 516 532 676 358 676 c 0
 184 676 124 502 124 350 c 0
 124 184 184 24 358 24 c 0
EndSplineSet
Substitution2: "Single Substitution lookup 21 subtable" ordmasculine
Substitution2: "'aalt' Access All Alternates in Latin lookup 0 subtable" ordmasculine
Position2: "'cpsp' Capital Spacing in Latin lookup 0 subtable" dx=5 dy=0 dh=10 dv=0
EndChar

StartChar: P
Encoding: 80 80 70
Width: 597
GlyphClass: 2
Flags: MW
HStem: 0 21G<110 110 110 146> 289 36<146 329 146 329> 664 36<146 329 146 146>
VStem: 110 36<0 289 325 664> 513 36<455.5 536>
AnchorPoint: "Anchor-0" 300 0 basechar 0
LayerCount: 2
Fore
SplineSet
110 0 m 1
 110 700 l 1
 329 700 l 2
 496 700 549 596 549 494 c 0
 549 400 490 289 329 289 c 2
 146 289 l 1
 146 0 l 1
 110 0 l 1
329 325 m 2
 467 325 513 417 513 494 c 0
 513 578 472 664 329 664 c 2
 146 664 l 1
 146 325 l 1
 329 325 l 2
EndSplineSet
Position2: "'cpsp' Capital Spacing in Latin lookup 0 subtable" dx=5 dy=0 dh=10 dv=0
EndChar

StartChar: Q
Encoding: 81 81 71
Width: 716
GlyphClass: 2
Flags: MW
HStem: -12 36<271 383 271 387.5> 676 36<271 445>
VStem: 85 39<267 426 267 436.5> 592 39<302 433>
AnchorPoint: "Anchor-0" 358 0 basechar 0
LayerCount: 2
Fore
SplineSet
358 -12 m 0
 158 -12 85 177 85 350 c 0
 85 523 158 712 358 712 c 0
 558 712 631 523 631 350 c 0
 631 240 602 124 529 54 c 1
 591 -38 l 1
 564 -57 l 1
 504 33 l 1
 465 5 417 -12 358 -12 c 0
358 24 m 0
 408 24 450 39 483 64 c 1
 422 155 l 1
 449 174 l 1
 508 86 l 1
 569 150 592 254 592 350 c 0
 592 516 532 676 358 676 c 0
 184 676 124 502 124 350 c 0
 124 184 184 24 358 24 c 0
EndSplineSet
Position2: "'cpsp' Capital Spacing in Latin lookup 0 subtable" dx=5 dy=0 dh=10 dv=0
EndChar

StartChar: R
Encoding: 82 82 72
Width: 636
GlyphClass: 2
Flags: MW
HStem: 0 21G<110 110 110 146 489 489 489 529> 329 33<146 330 146 350 368 368> 667 33<146 350 146 146>
VStem: 110 36<0 329 362 667> 513 38<480 549.5>
AnchorPoint: "Anchor-0" 310 0 basechar 0
LayerCount: 2
Fore
SplineSet
110 0 m 1
 110 700 l 1
 350 700 l 2
 502 700 551 607 551 517 c 0
 551 424 496 339 368 329 c 1
 529 0 l 1
 489 0 l 1
 330 329 l 1
 146 329 l 1
 146 0 l 1
 110 0 l 1
146 362 m 1
 350 362 l 2
 473 362 513 443 513 517 c 0
 513 582 478 667 350 667 c 2
 146 667 l 1
 146 362 l 1
EndSplineSet
Position2: "'cpsp' Capital Spacing in Latin lookup 0 subtable" dx=5 dy=0 dh=10 dv=0
EndChar

StartChar: S
Encoding: 83 83 73
Width: 579
GlyphClass: 2
Flags: MW
HStem: -12 35<254.5 345.5 254.5 354.5> 677 35<237.5 321.5>
VStem: 98 38<512 594 512 602.5> 461 38<124.5 221.5>
AnchorPoint: "Anchor-0" 294 0 basechar 0
LayerCount: 2
Fore
SplineSet
295 -12 m 0
 188 -12 108 56 75 135 c 1
 113 147 l 1
 146 73 213 23 296 23 c 0
 395 23 461 75 461 174 c 0
 461 269 380 325 292 359 c 0
 199 396 98 443 98 559 c 0
 98 646 165 712 287 712 c 0
 374 712 446 667 469 597 c 1
 433 586 l 1
 409 644 359 677 284 677 c 0
 191 677 136 631 136 557 c 0
 136 467 222 429 308 394 c 0
 396 358 499 301 499 173 c 0
 499 55 414 -12 295 -12 c 0
EndSplineSet
Position2: "'cpsp' Capital Spacing in Latin lookup 0 subtable" dx=5 dy=0 dh=10 dv=0
EndChar

StartChar: T
Encoding: 84 84 74
Width: 557
GlyphClass: 2
Flags: MW
HStem: 0 21G<260 296 260 260> 667 33<68 260 68 489 296 489 296 296>
VStem: 260 36<0 667 0 667>
AnchorPoint: "Anchor-0" 279 0 basechar 0
LayerCount: 2
Fore
SplineSet
296 667 m 1
 296 0 l 1
 260 0 l 1
 260 667 l 1
 68 667 l 1
 68 700 l 1
 489 700 l 1
 489 667 l 1
 296 667 l 1
EndSplineSet
Position2: "'cpsp' Capital Spacing in Latin lookup 0 subtable" dx=5 dy=0 dh=10 dv=0
EndChar

StartChar: U
Encoding: 85 85 75
Width: 658
GlyphClass: 2
Flags: MW
HStem: -12 34<279.5 378.5 279.5 398.5> 680 20G<106 142 142 142 516 552 552 552>
VStem: 106 36<249 251 251 700> 516 36<251 700>
AnchorPoint: "Anchor-0" 329 0 basechar 0
LayerCount: 2
Fore
SplineSet
329 -12 m 0
 190 -12 106 62 106 249 c 2
 106 700 l 1
 142 700 l 1
 142 251 l 2
 142 67 230 22 329 22 c 0
 428 22 516 67 516 251 c 2
 516 700 l 1
 552 700 l 1
 552 249 l 2
 552 62 468 -12 329 -12 c 0
EndSplineSet
Position2: "'cpsp' Capital Spacing in Latin lookup 0 subtable" dx=5 dy=0 dh=10 dv=0
EndChar

StartChar: V
Encoding: 86 86 76
Width: 632
GlyphClass: 2
Flags: MW
HStem: 0 21G<302 302 302 330> 680 20G<63 102 102 102 530 569 569 569>
VStem: 63 506<700 700>
AnchorPoint: "Anchor-0" 316 0 basechar 0
LayerCount: 2
Fore
SplineSet
302 0 m 1
 63 700 l 1
 102 700 l 1
 302 116 l 2
 307 102 311 89 316 74 c 1
 321 89 325 102 330 116 c 2
 530 700 l 1
 569 700 l 1
 330 0 l 1
 302 0 l 1
EndSplineSet
Position2: "'cpsp' Capital Spacing in Latin lookup 0 subtable" dx=5 dy=0 dh=10 dv=0
EndChar

StartChar: W
Encoding: 87 87 77
Width: 832
GlyphClass: 2
Flags: MW
HStem: 0 21G<233 233 233 263 569 569 569 599> 0 88 680 20G<63 102 102 102 401 431 431 431 730 769 769 769>
VStem: 63 706<700 700>
AnchorPoint: "Anchor-0" 416 0 basechar 0
LayerCount: 2
Fore
SplineSet
233 0 m 1xb0
 63 700 l 1
 102 700 l 1
 237 140 l 2
 241 123 245 107 249 88 c 1
 253 106 257 122 261 138 c 2
 401 700 l 1
 431 700 l 1
 571 138 l 2
 575 122 579 106 583 88 c 1
 587 107 591 123 595 140 c 2x70
 730 700 l 1
 769 700 l 1
 599 0 l 1
 569 0 l 1
 443 504 l 2
 434 540 425 576 416 614 c 1
 407 576 398 540 389 504 c 2
 263 0 l 1
 233 0 l 1xb0
EndSplineSet
Position2: "'cpsp' Capital Spacing in Latin lookup 0 subtable" dx=5 dy=0 dh=10 dv=0
EndChar

StartChar: X
Encoding: 88 88 78
Width: 546
GlyphClass: 2
Flags: MW
HStem: 0 21G<53 93 53 53 453 493 453 453> 680 20G<70 110 110 110 436 476 476 476>
VStem: 53 440<0 0>
AnchorPoint: "Anchor-0" 273 0 basechar 0
LayerCount: 2
Fore
SplineSet
453 0 m 1
 273 329 l 1
 93 0 l 1
 53 0 l 1
 254 366 l 1
 70 700 l 1
 110 700 l 1
 273 402 l 1
 436 700 l 1
 476 700 l 1
 292 366 l 1
 493 0 l 1
 453 0 l 1
EndSplineSet
Position2: "'cpsp' Capital Spacing in Latin lookup 0 subtable" dx=5 dy=0 dh=10 dv=0
EndChar

StartChar: Y
Encoding: 89 89 79
Width: 600
GlyphClass: 2
Flags: MW
HStem: 0 21G<282 282 282 318> 680 20G<54 93 93 93 507 546 546 546>
VStem: 282 36<0 277 0 277>
AnchorPoint: "Anchor-0" 300 0 basechar 0
LayerCount: 2
Fore
SplineSet
282 0 m 1
 282 277 l 1
 54 700 l 1
 93 700 l 1
 300 314 l 1
 507 700 l 1
 546 700 l 1
 318 277 l 1
 318 0 l 1
 282 0 l 1
EndSplineSet
Position2: "'cpsp' Capital Spacing in Latin lookup 0 subtable" dx=5 dy=0 dh=10 dv=0
EndChar

StartChar: Z
Encoding: 90 90 80
Width: 595
GlyphClass: 2
Flags: MW
HStem: 0 33<119 528 119 528> 667 33<90 480 90 528>
VStem: 67 461<0 19 19 19>
AnchorPoint: "Anchor-0" 298 0 basechar 0
LayerCount: 2
Fore
SplineSet
67 0 m 1
 67 19 l 1
 480 667 l 1
 90 667 l 1
 90 700 l 1
 528 700 l 1
 528 679 l 1
 119 33 l 1
 528 33 l 1
 528 0 l 1
 67 0 l 1
EndSplineSet
Position2: "'cpsp' Capital Spacing in Latin lookup 0 subtable" dx=5 dy=0 dh=10 dv=0
EndChar

StartChar: bracketleft
Encoding: 91 91 81
Width: 375
Flags: MW
HStem: -130 34<166 305 166 305> 678 34<166 305 166 166>
VStem: 130 36<-96 678 -96 712 -96 712>
LayerCount: 2
Fore
SplineSet
130 -130 m 1
 130 712 l 1
 305 712 l 1
 305 678 l 1
 166 678 l 1
 166 -96 l 1
 305 -96 l 1
 305 -130 l 1
 130 -130 l 1
EndSplineSet
EndChar

StartChar: backslash
Encoding: 92 92 82
Width: 482
Flags: MW
HStem: 692 20G<13 51 51 51>
VStem: 13 431
LayerCount: 2
Fore
SplineSet
406 -130 m 1
 13 712 l 1
 51 712 l 1
 444 -130 l 1
 406 -130 l 1
EndSplineSet
EndChar

StartChar: bracketright
Encoding: 93 93 83
Width: 375
Flags: MW
HStem: -130 34<70 209 70 245 70 209> 678 34<70 209 70 245>
VStem: 209 36<-96 678 678 678>
LayerCount: 2
Fore
SplineSet
245 -130 m 1
 70 -130 l 1
 70 -96 l 1
 209 -96 l 1
 209 678 l 1
 70 678 l 1
 70 712 l 1
 245 712 l 1
 245 -130 l 1
EndSplineSet
EndChar

StartChar: asciicircum
Encoding: 94 94 84
Width: 656
Flags: MW
HStem: 663 49<328 328> 692 20G<309 347 347 347>
VStem: 115 426<362 362>
LayerCount: 2
Fore
SplineSet
503 362 m 1x60
 328 663 l 1xa0
 153 362 l 1
 115 362 l 1
 309 712 l 1
 347 712 l 1
 541 362 l 1
 503 362 l 1x60
EndSplineSet
EndChar

StartChar: underscore
Encoding: 95 95 85
Width: 526
Flags: MW
HStem: -155 33<8 518 8 518>
VStem: 8 510<-155 -122 -155 -122>
LayerCount: 2
Fore
SplineSet
8 -155 m 1
 8 -122 l 1
 518 -122 l 1
 518 -155 l 1
 8 -155 l 1
EndSplineSet
EndChar

StartChar: grave
Encoding: 96 96 86
Width: 331
Flags: MW
HStem: 576 156<16 185 16 222>
VStem: 16 206<576 732>
LayerCount: 2
Fore
SplineSet
185 576 m 1
 16 732 l 1
 71 732 l 1
 222 576 l 1
 185 576 l 1
EndSplineSet
EndChar

StartChar: a
Encoding: 97 97 87
Width: 517
GlyphClass: 2
Flags: MW
HStem: -12 33<198 267> 0 21G 283 33<213 275 200 277> 490 33<245 305.5>
VStem: 73 39<114 198 114 209.5> 398 36<0 80 80 80 122 233 233 233 267 343 343 358 0 403.5>
AnchorPoint: "Anchor-0" 238 0 basechar 0
LayerCount: 2
Fore
SplineSet
398 0 m 1x7c
 398 80 l 1
 358 24 298 -12 236 -12 c 0xbc
 136 -12 73 47 73 154 c 0
 73 265 152 316 248 316 c 0
 302 316 352 297 398 267 c 1
 398 343 l 2
 398 464 338 490 273 490 c 0
 217 490 159 465 119 441 c 1
 108 472 l 1
 146 494 206 523 276 523 c 0
 347 523 434 493 434 358 c 2
 434 0 l 1
 398 0 l 1x7c
236 21 m 0
 312 21 363 74 398 122 c 1
 398 233 l 1
 359 259 306 283 248 283 c 0
 178 283 112 242 112 154 c 0
 112 74 160 21 236 21 c 0
EndSplineSet
Substitution2: "Single Substitution lookup 21 subtable" ordfeminine
Substitution2: "'aalt' Access All Alternates in Latin lookup 0 subtable" ordfeminine
EndChar

StartChar: b
Encoding: 98 98 88
Width: 554
GlyphClass: 2
Flags: MW
HStem: -12 36<264 344.5 262 356.5> 0 21G<103 139 103 103> 487 36<260 342> 684 20G<103 103>
VStem: 103 36<0 73 129 383 436 704 704 704> 447 39<185.5 330>
AnchorPoint: "Anchor-0" 277 0 basechar 0
LayerCount: 2
Fore
SplineSet
298 -12 m 0xbc
 230 -12 181 14 139 73 c 1xbc
 139 0 l 1
 103 0 l 1x7c
 103 704 l 1
 139 722 l 1
 139 436 l 1
 171 489 228 523 292 523 c 0
 410 523 486 424 486 256 c 0
 486 83 415 -12 298 -12 c 0xbc
295 24 m 0
 394 24 447 115 447 256 c 0
 447 404 393 487 291 487 c 0
 217 487 161 426 139 383 c 1
 139 129 l 1
 171 67 229 24 295 24 c 0
EndSplineSet
EndChar

StartChar: c
Encoding: 99 99 89
Width: 473
GlyphClass: 2
Flags: MW
HStem: -12 36<208 282.5 208 291.5> 487 36<208.5 285>
VStem: 68 39<182 330.5 182 339>
AnchorPoint: "Anchor-0" 252 0 basechar 0
LayerCount: 2
Fore
SplineSet
252 -12 m 0
 140 -12 68 85 68 255 c 0
 68 423 140 523 259 523 c 0
 328 523 383 485 408 416 c 1
 372 402 l 1
 353 456 311 487 259 487 c 0
 158 487 107 406 107 255 c 0
 107 109 164 24 252 24 c 0
 313 24 362 61 379 118 c 1
 415 105 l 1
 393 33 331 -12 252 -12 c 0
EndSplineSet
EndChar

StartChar: d
Encoding: 100 100 90
Width: 554
GlyphClass: 2
Flags: MW
HStem: -12 36<220 291> 0 21G<415 451 415 415> 487 36<217.5 306.5> 684 20G<415 415>
VStem: 68 39<192 329.5 192 340> 415 36<0 73 73 73 129 384 384 384 436 704 704 704>
AnchorPoint: "Anchor-0" 277 0 basechar 0
LayerCount: 2
Fore
SplineSet
262 -12 m 0xbc
 142 -12 68 93 68 256 c 0
 68 424 142 523 270 523 c 0
 344 523 389 477 415 436 c 1
 415 704 l 1
 451 722 l 1
 451 0 l 1
 415 0 l 1x7c
 415 73 l 1
 374 14 320 -12 262 -12 c 0xbc
270 24 m 0
 328 24 385 71 415 129 c 1
 415 384 l 1
 392 423 343 487 270 487 c 0
 165 487 107 403 107 256 c 0
 107 128 170 24 270 24 c 0
EndSplineSet
EndChar

StartChar: e
Encoding: 101 101 91
Width: 521
GlyphClass: 2
Flags: MW
HStem: -12 36<225 295.5 225 300.5> 245 33<107 420 107 458 107 420> 490 33<227.5 303.5>
VStem: 68 39<245 245 245 278 245 341> 420 38<245 278>
AnchorPoint: "Anchor-0" 273 0 basechar 0
LayerCount: 2
Fore
SplineSet
273 -12 m 0
 143 -12 68 91 68 256 c 0
 68 426 154 523 273 523 c 0
 382 523 458 442 458 256 c 2
 458 245 l 1
 107 245 l 1
 112 92 174 24 276 24 c 0
 315 24 359 37 396 67 c 1
 417 41 l 1
 381 10 328 -12 273 -12 c 0
107 278 m 1
 420 278 l 1
 419 450 334 490 273 490 c 0
 182 490 115 426 107 278 c 1
EndSplineSet
EndChar

StartChar: f
Encoding: 102 102 92
Width: 309
GlyphClass: 2
Flags: MW
HStem: 0 21G<120 156 120 120> 478 33<38 120 38 120 156 279> 679 33<195 228.5 185 231>
VStem: 120 36<0 478 0 478 511 599>
AnchorPoint: "Anchor-0" 159 0 basechar 0
LayerCount: 2
Fore
SplineSet
156 478 m 1
 156 0 l 1
 120 0 l 1
 120 478 l 1
 38 478 l 1
 38 511 l 1
 120 511 l 1
 120 603 l 2
 120 675 152 712 218 712 c 0
 239 712 262 705 279 696 c 1
 279 664 l 1
 261 672 244 679 218 679 c 0
 172 679 156 654 156 599 c 2
 156 511 l 1
 279 511 l 1
 279 478 l 1
 156 478 l 1
EndSplineSet
EndChar

StartChar: g
Encoding: 103 103 93
Width: 556
GlyphClass: 2
Flags: MW
HStem: -213 32<210 229> -12 36<222 296> 487 36<216 297> 491 20G<417 453 453 453>
VStem: 68 39<182 330 182 340> 417 36<-19 84 84 84 134 389 389 389 437 511>
AnchorPoint: "Anchor-0" 278 0 basechar 0
LayerCount: 2
Fore
SplineSet
229 -213 m 1xec
 210 -181 l 1
 361 -173 417 -119 417 -19 c 2
 417 84 l 1
 385 18 328 -12 264 -12 c 0
 159 -12 68 78 68 256 c 0
 68 424 149 523 268 523 c 0
 344 523 396 478 417 437 c 1xec
 417 511 l 1
 453 511 l 1xdc
 453 -23 l 2
 453 -169 340 -205 229 -213 c 1xec
265 24 m 0
 335 24 390 77 417 134 c 1
 417 389 l 1
 383 453 326 487 268 487 c 0
 164 487 107 404 107 256 c 0
 107 108 179 24 265 24 c 0
EndSplineSet
EndChar

StartChar: h
Encoding: 104 104 94
Width: 552
GlyphClass: 2
Flags: MW
HStem: 0 21G<103 103 103 139 418 418 418 454> 489 34<263.5 326.5> 684 20G<103 103>
VStem: 103 36<0 297 419 704 704 704> 418 36<0 312 0 320 0 382>
AnchorPoint: "Anchor-0" 276 0 basechar 0
LayerCount: 2
Fore
SplineSet
103 0 m 1
 103 704 l 1
 139 722 l 1
 139 419 l 1
 167 495 237 523 290 523 c 0
 397 523 454 455 454 312 c 2
 454 0 l 1
 418 0 l 1
 418 320 l 2
 418 444 366 489 287 489 c 0
 203 489 139 440 139 297 c 2
 139 0 l 1
 103 0 l 1
EndSplineSet
EndChar

StartChar: i
Encoding: 105 105 95
Width: 248
GlyphClass: 2
Flags: MW
HStem: 0 21G<106 106 106 142> 491 20G<106 142 142 142> 633 60<116 132.5>
VStem: 95 58<654 670.5> 106 36<0 511 0 511>
AnchorPoint: "Anchor-0" 124 0 basechar 0
LayerCount: 2
Fore
SplineSet
124 633 m 0xf0
 108 633 95 646 95 662 c 0
 95 679 108 693 124 693 c 0
 141 693 153 679 153 662 c 0
 153 646 141 633 124 633 c 0xf0
106 0 m 1xe8
 106 511 l 1
 142 511 l 1
 142 0 l 1
 106 0 l 1xe8
EndSplineSet
Substitution2: "'locl' Localized Forms in Latin lookup 10 subtable" i.TRK
Substitution2: "'locl' Localized Forms in Latin lookup 9 subtable" i.TRK
Substitution2: "'locl' Localized Forms in Latin lookup 8 subtable" i.TRK
Substitution2: "'locl' Localized Forms in Latin lookup 7 subtable" i.TRK
Substitution2: "'locl' Localized Forms in Latin lookup 6 subtable" i.TRK
Substitution2: "'aalt' Access All Alternates in Latin lookup 0 subtable" i.TRK
EndChar

StartChar: j
Encoding: 106 106 96
Width: 248
Flags: MW
HStem: -213 31<-18 0> 491 20G<107 143 143 143> 633 60<116 132.5>
VStem: 95 58<654 670.5> 107 36<-51 -49 -49 511>
LayerCount: 2
Fore
SplineSet
124 633 m 0xf0
 108 633 95 646 95 662 c 0
 95 679 108 693 124 693 c 0
 141 693 153 679 153 662 c 0
 153 646 141 633 124 633 c 0xf0
0 -213 m 1
 -18 -182 l 1
 67 -175 107 -140 107 -51 c 2
 107 511 l 1
 143 511 l 1
 143 -49 l 2
 143 -108 128 -146 104 -171 c 0xe8
 77 -198 40 -209 0 -213 c 1
EndSplineSet
Substitution2: "Single Substitution lookup 19 subtable" jacute
Substitution2: "'aalt' Access All Alternates in Latin lookup 0 subtable" jacute
EndChar

StartChar: k
Encoding: 107 107 97
Width: 503
GlyphClass: 2
Flags: MW
HStem: 0 21G<103 139 103 103 424 465 424 424> 491 20G<357 402 402 402> 684 20G<103 103>
VStem: 103 36<0 227 272 704 704 704>
AnchorPoint: "Anchor-0" 252 0 basechar 0
LayerCount: 2
Fore
SplineSet
465 0 m 1
 424 0 l 1
 248 343 l 1
 139 227 l 1
 139 0 l 1
 103 0 l 1
 103 704 l 1
 139 722 l 1
 139 272 l 1
 357 511 l 1
 402 511 l 1
 274 371 l 1
 465 0 l 1
EndSplineSet
EndChar

StartChar: l
Encoding: 108 108 98
Width: 242
GlyphClass: 2
Flags: MW
HStem: 0 21G<103 103 103 139> 684 20G<103 103>
VStem: 103 36<0 704 704 704>
AnchorPoint: "Anchor-0" 121 0 basechar 0
LayerCount: 2
Fore
SplineSet
103 0 m 1
 103 704 l 1
 139 722 l 1
 139 0 l 1
 103 0 l 1
EndSplineSet
EndChar

StartChar: m
Encoding: 109 109 99
Width: 835
GlyphClass: 2
Flags: MW
HStem: 0 21G<103 139 103 103 402 438 402 402 701 737 701 701> 489 34<253 316 253 331 544 626> 491 20G<103 139 139 139>
VStem: 103 36<0 314 427 511> 402 36<0 321 0 358> 701 36<0 321 321 351 0 358>
AnchorPoint: "Anchor-0" 418 0 basechar 0
LayerCount: 2
Fore
SplineSet
701 0 m 1xdc
 701 321 l 2
 701 395 685 489 574 489 c 0
 488 489 438 411 438 321 c 2
 438 0 l 1
 402 0 l 1
 402 321 l 2
 402 395 385 489 277 489 c 0xdc
 184 489 139 416 139 314 c 2
 139 0 l 1
 103 0 l 1
 103 511 l 1
 139 511 l 1xbc
 139 427 l 1
 169 493 224 523 282 523 c 0
 350 523 406 486 423 398 c 1
 449 480 511 523 577 523 c 0
 675 523 737 457 737 351 c 2
 737 0 l 1
 701 0 l 1xdc
EndSplineSet
EndChar

StartChar: n
Encoding: 110 110 100
Width: 552
GlyphClass: 2
Flags: MW
HStem: 0 21G<103 139 103 103 418 454 418 418> 489 34<263 326.5> 491 20G<103 139 139 139>
VStem: 103 36<0 297 419 511> 418 36<0 312 0 319 0 381>
AnchorPoint: "Anchor-0" 276 0 basechar 0
LayerCount: 2
Fore
SplineSet
418 0 m 1xd8
 418 319 l 2
 418 443 366 489 287 489 c 0xd8
 203 489 139 440 139 297 c 2
 139 0 l 1
 103 0 l 1
 103 511 l 1
 139 511 l 1xb8
 139 419 l 1
 167 495 236 523 290 523 c 0
 397 523 454 455 454 312 c 2
 454 0 l 1
 418 0 l 1xd8
EndSplineSet
Substitution2: "'sups' Superscript in Latin lookup 11 subtable" uni207F
Substitution2: "'aalt' Access All Alternates in Latin lookup 0 subtable" uni207F
EndChar

StartChar: o
Encoding: 111 111 101
Width: 540
GlyphClass: 2
Flags: MW
HStem: -12 36<217 322 217 330.5> 487 36<217 323>
VStem: 68 39<182.5 330 182.5 339> 433 39<183 328.5>
AnchorPoint: "Anchor-0" 270 0 basechar 0
LayerCount: 2
Fore
SplineSet
270 -12 m 0
 149 -12 68 85 68 255 c 0
 68 423 149 523 270 523 c 0
 391 523 472 426 472 256 c 0
 472 88 391 -12 270 -12 c 0
270 24 m 0
 374 24 433 110 433 256 c 0
 433 401 376 487 270 487 c 0
 164 487 107 405 107 255 c 0
 107 110 164 24 270 24 c 0
EndSplineSet
Substitution2: "Single Substitution lookup 21 subtable" ordmasculine
Substitution2: "'aalt' Access All Alternates in Latin lookup 0 subtable" ordmasculine
EndChar

StartChar: p
Encoding: 112 112 102
Width: 558
GlyphClass: 2
Flags: MW
HStem: -203 21G<103 103> -12 36<257 340 257 348.5> 487 36<262 339> 491 20G<103 139 139 139>
VStem: 103 36<-185 84 134 389 437 511> 451 39<182 326>
AnchorPoint: "Anchor-0" 279 0 basechar 0
LayerCount: 2
Fore
SplineSet
288 -12 m 0xec
 225 -12 171 22 139 84 c 1
 139 -185 l 1
 103 -203 l 1
 103 511 l 1
 139 511 l 1xdc
 139 437 l 1
 174 494 228 523 296 523 c 0
 416 523 490 417 490 256 c 0
 490 82 409 -12 288 -12 c 0xec
288 24 m 0
 392 24 451 108 451 256 c 0
 451 396 390 487 288 487 c 0
 226 487 170 448 139 389 c 1
 139 134 l 1
 172 66 226 24 288 24 c 0
EndSplineSet
EndChar

StartChar: q
Encoding: 113 113 103
Width: 558
GlyphClass: 2
Flags: MW
HStem: -12 36<218 301 218 301.5> 487 36<219 296 202 301> 491 20G<419 455 455 455>
VStem: 68 39<177 321 177 331.5> 419 36<-182 84 84 84 134 389 389 389 437 511 -182 511>
AnchorPoint: "Anchor-0" 279 0 basechar 0
LayerCount: 2
Fore
SplineSet
270 -12 m 0xd8
 149 -12 68 77 68 251 c 0
 68 412 142 523 262 523 c 0
 330 523 384 494 419 437 c 1xd8
 419 511 l 1
 455 511 l 1xb8
 455 -182 l 1
 419 -200 l 1
 419 84 l 1
 390 25 333 -12 270 -12 c 0xd8
270 24 m 0
 332 24 386 66 419 134 c 1
 419 389 l 1
 388 448 332 487 270 487 c 0
 168 487 107 391 107 251 c 0
 107 103 166 24 270 24 c 0
EndSplineSet
EndChar

StartChar: r
Encoding: 114 114 104
Width: 382
GlyphClass: 2
Flags: MW
HStem: 0 21G<103 103 103 139> 483 40<259.5 299.5> 491 20G<103 139 139 139> 503 20G<259.5 305.5>
VStem: 103 36<0 283 402 511>
AnchorPoint: "Anchor-0" 120 -20 basechar 0
LayerCount: 2
Fore
SplineSet
103 0 m 1xc8
 103 511 l 1
 139 511 l 1xa8
 139 402 l 1
 171 486 230 523 289 523 c 0xc8
 322 523 345 513 357 502 c 1x98
 351 466 l 1
 338 474 315 483 284 483 c 0
 222 483 139 431 139 283 c 2
 139 0 l 1
 103 0 l 1xc8
EndSplineSet
EndChar

StartChar: s
Encoding: 115 115 105
Width: 457
GlyphClass: 2
Flags: MW
HStem: -12 34<207.5 270.5 207.5 285.5> 489 34<186.5 249>
VStem: 73 37<364 424.5 364 433> 352 37<87 155.5>
AnchorPoint: "Anchor-0" 235 0 basechar 0
LayerCount: 2
Fore
SplineSet
236 -12 m 0
 166 -12 112 23 75 65 c 1
 103 89 l 1
 134 55 180 22 235 22 c 0
 306 22 352 54 352 120 c 0
 352 191 284 226 212 253 c 0
 128 284 73 321 73 397 c 0
 73 469 129 523 223 523 c 0
 280 523 334 498 370 460 c 1
 343 437 l 1
 315 463 276 489 222 489 c 0
 151 489 110 452 110 397 c 0
 110 331 168 309 235 282 c 0
 322 247 389 216 389 120 c 0
 389 42 335 -12 236 -12 c 0
EndSplineSet
EndChar

StartChar: t
Encoding: 116 116 106
Width: 361
GlyphClass: 2
Flags: MW
HStem: -12 35<202.5 236> 478 33<43 130 43 130 166 296> 684 20G<130 130>
VStem: 130 36<104 109 109 478 511 704 704 704>
AnchorPoint: "Anchor-0" 211 0 basechar 0
LayerCount: 2
Fore
SplineSet
224 -12 m 0
 153 -12 130 38 130 104 c 2
 130 478 l 1
 43 478 l 1
 43 511 l 1
 130 511 l 1
 130 704 l 1
 166 722 l 1
 166 511 l 1
 296 511 l 1
 296 478 l 1
 166 478 l 1
 166 109 l 2
 166 56 177 23 228 23 c 0
 258 23 286 36 303 47 c 1
 299 9 l 1
 278 -4 248 -12 224 -12 c 0
EndSplineSet
EndChar

StartChar: u
Encoding: 117 117 107
Width: 552
GlyphClass: 2
Flags: MW
HStem: -12 33<225.5 290> 0 21G 491 20G<98 134 134 134 413 449 449 449>
VStem: 98 36<199 511> 413 36<0 86 86 86 214 511 0 511>
AnchorPoint: "Anchor-0" 276 0 basechar 0
LayerCount: 2
Fore
SplineSet
413 0 m 1x78
 413 86 l 1
 379 11 317 -12 263 -12 c 0
 155 -12 98 56 98 199 c 2
 98 511 l 1
 134 511 l 1
 134 191 l 2
 134 67 186 21 265 21 c 0xb8
 349 21 413 71 413 214 c 2
 413 511 l 1
 449 511 l 1
 449 0 l 1
 413 0 l 1x78
EndSplineSet
EndChar

StartChar: v
Encoding: 118 118 108
Width: 496
GlyphClass: 2
Flags: MW
HStem: 0 21G<235 235 235 261> 491 20G<53 89 89 89 407 443 443 443>
VStem: 53 390<511 511>
AnchorPoint: "Anchor-0" 248 0 basechar 0
LayerCount: 2
Fore
SplineSet
235 0 m 1
 53 511 l 1
 89 511 l 1
 237 99 l 2
 241 88 244 78 248 66 c 1
 252 78 255 88 259 99 c 2
 407 511 l 1
 443 511 l 1
 261 0 l 1
 235 0 l 1
EndSplineSet
EndChar

StartChar: w
Encoding: 119 119 109
Width: 698
GlyphClass: 2
Flags: MW
HStem: 0 21G<183 183 183 209 489 489 489 515> 0 66<183 199 199 199 199 209> 445 66<349 349> 491 20G<53 89 89 89 336 362 362 362 609 645 645 645>
VStem: 53 592<511 511>
AnchorPoint: "Anchor-0" 349 0 basechar 0
LayerCount: 2
Fore
SplineSet
183 0 m 1x98
 53 511 l 1
 89 511 l 1
 187 117 l 1
 199 66 l 1
 204 84 209 101 214 117 c 2
 336 511 l 1
 362 511 l 1
 484 117 l 1
 499 66 l 1
 503 84 507 101 511 117 c 2x58
 609 511 l 1
 645 511 l 1
 515 0 l 1
 489 0 l 1
 370 376 l 1
 349 445 l 1
 342 421 335 398 328 376 c 2xa8
 209 0 l 1
 183 0 l 1x98
EndSplineSet
EndChar

StartChar: x
Encoding: 120 120 110
Width: 488
GlyphClass: 2
Flags: MW
HStem: 0 21G<53 53 53 92 396 396 396 435> 491 20G<67 106 106 106 382 421 421 421>
VStem: 53 382<0 0>
AnchorPoint: "Anchor-0" 244 0 basechar 0
LayerCount: 2
Fore
SplineSet
53 0 m 1
 224 266 l 1
 67 511 l 1
 106 511 l 1
 224 328 l 1
 244 296 l 1
 251 307 257 317 264 328 c 2
 382 511 l 1
 421 511 l 1
 263 266 l 1
 435 0 l 1
 396 0 l 1
 265 203 l 2
 258 214 251 225 244 237 c 1
 237 225 230 214 223 203 c 2
 92 0 l 1
 53 0 l 1
EndSplineSet
EndChar

StartChar: y
Encoding: 121 121 111
Width: 510
GlyphClass: 2
Flags: MW
HStem: 491 20G<53 89 89 89 421 457 457 457>
VStem: 53 404<511 511>
AnchorPoint: "Anchor-0" 257 0 basechar 0
LayerCount: 2
Fore
SplineSet
161 -194 m 1
 237 12 l 1
 53 511 l 1
 89 511 l 1
 237 108 l 1
 255 57 l 1
 261 74 267 91 273 108 c 2
 421 511 l 1
 457 511 l 1
 197 -194 l 1
 161 -194 l 1
EndSplineSet
EndChar

StartChar: z
Encoding: 122 122 112
Width: 495
GlyphClass: 2
Flags: MW
HStem: 0 33<115 421 115 421> 478 33<88 374 88 422>
VStem: 68 354
AnchorPoint: "Anchor-0" 248 0 basechar 0
LayerCount: 2
Fore
SplineSet
68 0 m 1
 68 22 l 1
 374 478 l 1
 88 478 l 1
 88 511 l 1
 422 511 l 1
 422 490 l 1
 115 33 l 1
 421 33 l 1
 421 0 l 1
 68 0 l 1
EndSplineSet
EndChar

StartChar: braceleft
Encoding: 123 123 113
Width: 374
Flags: MW
HStem: -130 32<314 314> 272 19 291 20<63 67 67 95> 680 32<314 314>
VStem: 63 26 160 39<101 138 421 444 444 481 481 526>
LayerCount: 2
Fore
SplineSet
314 -130 m 1xdc
 202 -127 160 -52 160 101 c 2
 160 162 l 2
 160 233 123 272 67 272 c 2
 63 272 l 1xdc
 63 311 l 1
 67 311 l 2
 123 311 160 348 160 421 c 2
 160 481 l 2
 160 634 202 709 314 712 c 1
 314 680 l 1
 236 677 199 621 199 526 c 2
 199 444 l 2xbc
 199 326 158 298 89 291 c 1
 158 285 199 263 199 138 c 2
 199 56 l 2
 199 -39 236 -95 314 -98 c 1
 314 -130 l 1xdc
EndSplineSet
EndChar

StartChar: bar
Encoding: 124 124 114
Width: 266
Flags: MW
HStem: -378 1440<115 151 115 151>
VStem: 115 36<-378 1062 -378 1062>
LayerCount: 2
Fore
SplineSet
115 -378 m 1
 115 1062 l 1
 151 1062 l 1
 151 -378 l 1
 115 -378 l 1
EndSplineSet
EndChar

StartChar: braceright
Encoding: 125 125 115
Width: 374
Flags: MW
HStem: -130 32<60 60> 272 19 291 20<307 311 311 311> 680 32<60 60>
VStem: 175 39<56 101 101 138 138 162 444 481> 285 26
LayerCount: 2
Fore
SplineSet
60 -130 m 1xd8
 60 -98 l 1
 138 -95 175 -39 175 56 c 2
 175 138 l 2xd8
 175 263 216 285 285 291 c 1
 216 298 175 326 175 444 c 2
 175 526 l 2
 175 621 138 677 60 680 c 1
 60 712 l 1
 172 709 214 634 214 481 c 2
 214 421 l 2
 214 348 251 311 307 311 c 2
 311 311 l 1xbc
 311 272 l 1
 307 272 l 2
 251 272 214 233 214 162 c 2
 214 101 l 2
 214 -52 172 -127 60 -130 c 1xd8
EndSplineSet
EndChar

StartChar: asciitilde
Encoding: 126 126 116
Width: 656
Flags: MW
HStem: 277 36<405 469 405 484.5> 371 36<187 251>
VStem: 95 37<277 309.5> 524 37<374.5 407>
LayerCount: 2
Fore
SplineSet
443 277 m 0
 349 277 291 371 211 371 c 0
 163 371 135 336 132 277 c 1
 95 277 l 1
 95 342 131 407 213 407 c 0
 307 407 365 313 445 313 c 0
 493 313 521 349 524 407 c 1
 561 407 l 1
 561 342 526 277 443 277 c 0
EndSplineSet
EndChar

StartChar: Adieresis
Encoding: 278 196 117
Width: 636
GlyphClass: 2
Flags: MW
HStem: 0 21G<65 104 65 65 532 571 532 532> 197 30<181 455 181 464 172 455> 680 20G<305 331 331 331> 795 60<227 243.5 393 409.5>
VStem: 206 58<816 832.5> 372 58<816 832.5>
AnchorPoint: "Anchor-0" 318 0 basechar 0
LayerCount: 2
Fore
SplineSet
235 795 m 0
 219 795 206 808 206 824 c 0
 206 841 219 855 235 855 c 0
 252 855 264 841 264 824 c 0
 264 808 252 795 235 795 c 0
401 795 m 0
 385 795 372 808 372 824 c 0
 372 841 385 855 401 855 c 0
 418 855 430 841 430 824 c 0
 430 808 418 795 401 795 c 0
532 0 m 1
 464 197 l 1
 172 197 l 1
 104 0 l 1
 65 0 l 1
 305 700 l 1
 331 700 l 1
 571 0 l 1
 532 0 l 1
455 227 m 1
 353 525 l 2
 348 541 325 607 318 637 c 1
 311 607 286 538 282 525 c 2
 181 227 l 1
 455 227 l 1
EndSplineSet
Position2: "'cpsp' Capital Spacing in Latin lookup 0 subtable" dx=5 dy=0 dh=10 dv=0
EndChar

StartChar: Aring
Encoding: 279 197 118
Width: 636
Flags: MW
HStem: 0 21G<65 65 65 104 532 532 532 571> 197 30<181 455 181 464 172 455> 637 28<318 318> 828 31<296.5 340.5>
VStem: 203 34<721.5 771 721.5 777> 399 34<723 769.5>
LayerCount: 2
Fore
SplineSet
65 0 m 1
 284 639 l 1
 238 653 203 693 203 746 c 0
 203 808 255 859 318 859 c 0
 381 859 433 808 433 746 c 0
 433 695 399 653 352 639 c 1
 571 0 l 1
 532 0 l 1
 464 197 l 1
 172 197 l 1
 104 0 l 1
 65 0 l 1
318 665 m 0
 363 665 399 700 399 746 c 0
 399 793 363 828 318 828 c 0
 275 828 237 796 237 746 c 0
 237 697 275 665 318 665 c 0
181 227 m 1
 455 227 l 1
 353 525 l 2
 348 541 325 607 318 637 c 1
 311 607 286 538 282 525 c 2
 181 227 l 1
EndSplineSet
Position2: "'cpsp' Capital Spacing in Latin lookup 0 subtable" dx=5 dy=0 dh=10 dv=0
EndChar

StartChar: Ccedilla
Encoding: 280 199 119
Width: 640
Flags: MW
HStem: -234 29<329.5 360.5 329.5 371.5> -84 25<340 358> -11 35<340 340> 676 36<276.5 405>
VStem: 85 38<267 434 267 443> 404 34<-161.5 -126.5>
LayerCount: 2
Fore
SplineSet
341 -234 m 0
 310 -234 286 -223 270 -206 c 1
 295 -188 l 1
 305 -196 319 -205 340 -205 c 0
 381 -205 404 -179 404 -144 c 0
 404 -109 377 -84 339 -84 c 0
 326 -84 313 -86 301 -92 c 1
 291 -80 l 1
 340 -11 l 1
 158 -2 85 172 85 350 c 0
 85 536 171 712 355 712 c 0
 473 712 522 656 555 599 c 1
 524 581 l 1
 496 629 455 676 355 676 c 0
 198 676 123 518 123 350 c 0
 123 184 188 24 356 24 c 0
 450 24 506 76 532 129 c 1
 565 116 l 1
 536 54 473 -8 367 -12 c 1
 340 -59 l 1
 408 -59 438 -102 438 -143 c 0
 438 -194 402 -234 341 -234 c 0
EndSplineSet
Position2: "'cpsp' Capital Spacing in Latin lookup 0 subtable" dx=5 dy=0 dh=10 dv=0
EndChar

StartChar: Eacute
Encoding: 281 201 120
Width: 582
GlyphClass: 2
Flags: MW
HStem: 0 33<146 497 146 497> 346 33<146 368 146 368> 667 33<146 475 146 146>
VStem: 110 36<33 346 379 667>
AnchorPoint: "Anchor-0" 291 0 basechar 0
LayerCount: 2
Fore
SplineSet
235 765 m 1
 386 921 l 1
 441 921 l 1
 272 765 l 1
 235 765 l 1
110 0 m 1
 110 700 l 1
 475 700 l 1
 475 667 l 1
 146 667 l 1
 146 379 l 1
 368 379 l 1
 368 346 l 1
 146 346 l 1
 146 33 l 1
 497 33 l 1
 497 0 l 1
 110 0 l 1
EndSplineSet
Position2: "'cpsp' Capital Spacing in Latin lookup 0 subtable" dx=5 dy=0 dh=10 dv=0
EndChar

StartChar: Ntilde
Encoding: 282 209 121
Width: 681
GlyphClass: 2
Flags: MW
HStem: 0 21G<110 146 110 110 536 571 536 536> 680 20G<110 145 145 145 535 571 571 571> 791 33<398.5 441.5 398.5 447.5> 872 33<237.5 280.5>
VStem: 110 36<0 581 581 632> 174 27<795 827> 478 27<869 901> 535 36<68 119 119 700>
AnchorPoint: "Anchor-0" 341 0 basechar 0
LayerCount: 2
Fore
SplineSet
419 791 m 0
 353 791 308 872 253 872 c 0
 222 872 203 845 201 795 c 1
 174 795 l 1
 174 859 203 905 260 905 c 0
 326 905 371 824 426 824 c 0
 457 824 476 851 478 901 c 1
 505 901 l 1
 505 837 476 791 419 791 c 0
571 0 m 1xf9
 536 0 l 1
 177 581 l 1
 146 632 l 1
 146 615 146 598 146 581 c 2
 146 0 l 1
 110 0 l 1
 110 700 l 1
 145 700 l 1
 504 119 l 1
 535 68 l 1
 535 85 535 102 535 119 c 2
 535 700 l 1
 571 700 l 1
 571 0 l 1xf9
EndSplineSet
Position2: "'cpsp' Capital Spacing in Latin lookup 0 subtable" dx=5 dy=0 dh=10 dv=0
EndChar

StartChar: Odieresis
Encoding: 283 214 122
Width: 716
GlyphClass: 2
Flags: MW
HStem: -12 36<271 445 271 458> 676 36<271 445> 795 60<267 283.5 433 449.5>
VStem: 85 39<267 426 267 436.5> 246 58<816 832.5> 412 58<816 832.5> 592 39<274 433>
AnchorPoint: "Anchor-0" 358 0 basechar 0
LayerCount: 2
Fore
SplineSet
275 795 m 0
 259 795 246 808 246 824 c 0
 246 841 259 855 275 855 c 0
 292 855 304 841 304 824 c 0
 304 808 292 795 275 795 c 0
441 795 m 0
 425 795 412 808 412 824 c 0
 412 841 425 855 441 855 c 0
 458 855 470 841 470 824 c 0
 470 808 458 795 441 795 c 0
358 -12 m 0
 158 -12 85 177 85 350 c 0
 85 523 158 712 358 712 c 0
 558 712 631 523 631 350 c 0
 631 177 558 -12 358 -12 c 0
358 24 m 0
 532 24 592 198 592 350 c 0
 592 516 532 676 358 676 c 0
 184 676 124 502 124 350 c 0
 124 184 184 24 358 24 c 0
EndSplineSet
Position2: "'cpsp' Capital Spacing in Latin lookup 0 subtable" dx=5 dy=0 dh=10 dv=0
EndChar

StartChar: Udieresis
Encoding: 284 220 123
Width: 658
GlyphClass: 2
Flags: MW
HStem: -12 34<279.5 378.5 279.5 398.5> 680 20G<106 142 142 142 516 552 552 552> 795 60<238 254.5 404 420.5>
VStem: 106 36<249 251 251 700> 217 58<816 832.5> 383 58<816 832.5> 516 36<251 700>
AnchorPoint: "Anchor-0" 329 0 basechar 0
LayerCount: 2
Fore
SplineSet
246 795 m 0
 230 795 217 808 217 824 c 0
 217 841 230 855 246 855 c 0
 263 855 275 841 275 824 c 0
 275 808 263 795 246 795 c 0
412 795 m 0
 396 795 383 808 383 824 c 0
 383 841 396 855 412 855 c 0
 429 855 441 841 441 824 c 0
 441 808 429 795 412 795 c 0
329 -12 m 0
 190 -12 106 62 106 249 c 2
 106 700 l 1
 142 700 l 1
 142 251 l 2
 142 67 230 22 329 22 c 0
 428 22 516 67 516 251 c 2
 516 700 l 1
 552 700 l 1
 552 249 l 2
 552 62 468 -12 329 -12 c 0
EndSplineSet
Position2: "'cpsp' Capital Spacing in Latin lookup 0 subtable" dx=5 dy=0 dh=10 dv=0
EndChar

StartChar: aacute
Encoding: 285 225 124
Width: 517
GlyphClass: 2
Flags: MW
HStem: -12 33<198 267> 0 21G 283 33<213 275 200 277> 490 33<245 305.5>
VStem: 73 39<114 198 114 209.5> 398 36<0 80 80 80 122 233 233 233 267 343 343 358 0 403.5>
AnchorPoint: "Anchor-0" 238 0 basechar 0
LayerCount: 2
Fore
SplineSet
213 576 m 1xbc
 364 732 l 1
 419 732 l 1
 250 576 l 1
 213 576 l 1xbc
398 0 m 1x7c
 398 80 l 1
 358 24 298 -12 236 -12 c 0xbc
 136 -12 73 47 73 154 c 0
 73 265 152 316 248 316 c 0
 302 316 352 297 398 267 c 1
 398 343 l 2
 398 464 338 490 273 490 c 0
 217 490 159 465 119 441 c 1
 108 472 l 1
 146 494 206 523 276 523 c 0
 347 523 434 493 434 358 c 2
 434 0 l 1
 398 0 l 1x7c
236 21 m 0
 312 21 363 74 398 122 c 1
 398 233 l 1
 359 259 306 283 248 283 c 0
 178 283 112 242 112 154 c 0
 112 74 160 21 236 21 c 0
EndSplineSet
EndChar

StartChar: agrave
Encoding: 286 224 125
Width: 517
GlyphClass: 2
Flags: MW
HStem: -12 33<198 267> 0 21G 283 33<213 275 200 277> 490 33<245 305.5>
VStem: 73 39<114 198 114 209.5> 398 36<0 80 80 80 122 233 233 233 267 343 343 358 0 403.5>
AnchorPoint: "Anchor-0" 238 0 basechar 0
LayerCount: 2
Fore
SplineSet
295 576 m 1xbc
 126 732 l 1
 181 732 l 1
 332 576 l 1
 295 576 l 1xbc
398 0 m 1x7c
 398 80 l 1
 358 24 298 -12 236 -12 c 0xbc
 136 -12 73 47 73 154 c 0
 73 265 152 316 248 316 c 0
 302 316 352 297 398 267 c 1
 398 343 l 2
 398 464 338 490 273 490 c 0
 217 490 159 465 119 441 c 1
 108 472 l 1
 146 494 206 523 276 523 c 0
 347 523 434 493 434 358 c 2
 434 0 l 1
 398 0 l 1x7c
236 21 m 0
 312 21 363 74 398 122 c 1
 398 233 l 1
 359 259 306 283 248 283 c 0
 178 283 112 242 112 154 c 0
 112 74 160 21 236 21 c 0
EndSplineSet
EndChar

StartChar: acircumflex
Encoding: 287 226 126
Width: 517
GlyphClass: 2
Flags: MW
HStem: -12 33<198 267> 0 21G 283 33<213 275 200 277> 490 33<245 305.5> 696 36<273 273>
VStem: 73 39<114 198 114 209.5> 398 36<0 80 80 80 122 233 233 233 267 343 343 358 0 403.5>
AnchorPoint: "Anchor-0" 238 0 basechar 0
LayerCount: 2
Fore
SplineSet
403 576 m 1xbe
 273 696 l 1
 143 576 l 1
 106 576 l 1
 257 732 l 1
 289 732 l 1
 440 576 l 1
 403 576 l 1xbe
398 0 m 1x7e
 398 80 l 1
 358 24 298 -12 236 -12 c 0xbe
 136 -12 73 47 73 154 c 0
 73 265 152 316 248 316 c 0
 302 316 352 297 398 267 c 1
 398 343 l 2
 398 464 338 490 273 490 c 0
 217 490 159 465 119 441 c 1
 108 472 l 1
 146 494 206 523 276 523 c 0
 347 523 434 493 434 358 c 2
 434 0 l 1
 398 0 l 1x7e
236 21 m 0
 312 21 363 74 398 122 c 1
 398 233 l 1
 359 259 306 283 248 283 c 0
 178 283 112 242 112 154 c 0
 112 74 160 21 236 21 c 0
EndSplineSet
EndChar

StartChar: adieresis
Encoding: 288 228 127
Width: 517
GlyphClass: 2
Flags: MW
HStem: -12 33<198 267> 0 21G 283 33<213 275 200 277> 490 33<245 305.5> 606 60<183 199.5 349 365.5>
VStem: 73 39<114 198 114 209.5> 162 58<627 643.5> 328 58<627 643.5> 398 36<0 80 80 80 122 233 233 233 267 343 343 358 0 403.5>
AnchorPoint: "Anchor-0" 238 0 basechar 0
LayerCount: 2
Fore
SplineSet
191 606 m 0xbe80
 175 606 162 619 162 635 c 0
 162 652 175 666 191 666 c 0
 208 666 220 652 220 635 c 0
 220 619 208 606 191 606 c 0xbe80
357 606 m 0xbf80
 341 606 328 619 328 635 c 0
 328 652 341 666 357 666 c 0
 374 666 386 652 386 635 c 0
 386 619 374 606 357 606 c 0xbf80
398 0 m 1x7e80
 398 80 l 1
 358 24 298 -12 236 -12 c 0xbe80
 136 -12 73 47 73 154 c 0
 73 265 152 316 248 316 c 0
 302 316 352 297 398 267 c 1
 398 343 l 2
 398 464 338 490 273 490 c 0
 217 490 159 465 119 441 c 1
 108 472 l 1
 146 494 206 523 276 523 c 0
 347 523 434 493 434 358 c 2
 434 0 l 1
 398 0 l 1x7e80
236 21 m 0
 312 21 363 74 398 122 c 1
 398 233 l 1
 359 259 306 283 248 283 c 0
 178 283 112 242 112 154 c 0
 112 74 160 21 236 21 c 0
EndSplineSet
EndChar

StartChar: atilde
Encoding: 289 227 128
Width: 517
GlyphClass: 2
Flags: MW
HStem: -12 33<198 267> 0 21G 283 33<213 275 200 277> 490 33<245 305.5> 602 33<331.5 374.5 331.5 380.5> 683 33<170.5 213.5> 692 20G<411 438 438 438>
VStem: 73 39<114 198 114 209.5> 107 27<606 638> 398 36<0 80 80 80 122 233 233 233 267 343 343 358 0 403.5> 411 27<680 712>
AnchorPoint: "Anchor-0" 238 0 basechar 0
LayerCount: 2
Fore
SplineSet
352 602 m 0xbd20
 286 602 241 683 186 683 c 0
 155 683 136 656 134 606 c 1
 107 606 l 1
 107 670 136 716 193 716 c 0xbcc0
 259 716 304 635 359 635 c 0
 390 635 409 662 411 712 c 1
 438 712 l 1xbb20
 438 648 409 602 352 602 c 0xbd20
398 0 m 1x7b40
 398 80 l 1
 358 24 298 -12 236 -12 c 0xbb40
 136 -12 73 47 73 154 c 0
 73 265 152 316 248 316 c 0
 302 316 352 297 398 267 c 1
 398 343 l 2
 398 464 338 490 273 490 c 0
 217 490 159 465 119 441 c 1
 108 472 l 1
 146 494 206 523 276 523 c 0
 347 523 434 493 434 358 c 2
 434 0 l 1
 398 0 l 1x7b40
236 21 m 0
 312 21 363 74 398 122 c 1
 398 233 l 1
 359 259 306 283 248 283 c 0
 178 283 112 242 112 154 c 0
 112 74 160 21 236 21 c 0
EndSplineSet
EndChar

StartChar: aring
Encoding: 290 229 129
Width: 517
GlyphClass: 2
Flags: MW
HStem: -12 33<198 267> 0 21G 283 33<213 275 200 277> 490 33<245 305.5> 575 31<256.5 300.5 256.5 310.5> 769 31<256.5 300.5>
VStem: 73 39<114 198 114 209.5> 164 34<664 710.5 664 718> 360 34<664 710.5> 398 36<0 80 80 80 122 233 233 233 267 343 343 358 0 403.5>
AnchorPoint: "Anchor-0" 238 0 basechar 0
LayerCount: 2
Fore
SplineSet
279 575 m 0xbf40
 216 575 164 625 164 687 c 0
 164 749 216 800 279 800 c 0
 342 800 394 749 394 687 c 0xbf80
 394 625 342 575 279 575 c 0xbf40
278 606 m 0xbf80
 323 606 360 641 360 687 c 0
 360 734 323 769 278 769 c 0
 235 769 198 734 198 687 c 0
 198 641 235 606 278 606 c 0xbf80
398 0 m 1x7f40
 398 80 l 1
 358 24 298 -12 236 -12 c 0xbf40
 136 -12 73 47 73 154 c 0
 73 265 152 316 248 316 c 0
 302 316 352 297 398 267 c 1
 398 343 l 2
 398 464 338 490 273 490 c 0
 217 490 159 465 119 441 c 1
 108 472 l 1
 146 494 206 523 276 523 c 0
 347 523 434 493 434 358 c 2
 434 0 l 1
 398 0 l 1x7f40
236 21 m 0
 312 21 363 74 398 122 c 1
 398 233 l 1
 359 259 306 283 248 283 c 0
 178 283 112 242 112 154 c 0
 112 74 160 21 236 21 c 0
EndSplineSet
EndChar

StartChar: ccedilla
Encoding: 291 231 130
Width: 473
Flags: MW
HStem: -234 29<234.5 265.5 234.5 276.5> -84 25<245 263> -12 36<245 245> 487 36<208.5 285>
VStem: 68 39<182 330.5 182 339> 309 34<-161.5 -126.5>
LayerCount: 2
Fore
SplineSet
246 -234 m 0
 215 -234 191 -223 175 -206 c 1
 200 -188 l 1
 210 -196 224 -205 245 -205 c 0
 286 -205 309 -179 309 -144 c 0
 309 -109 282 -84 244 -84 c 0
 231 -84 218 -86 206 -92 c 1
 196 -80 l 1
 245 -12 l 1
 137 -8 68 88 68 255 c 0
 68 423 140 523 259 523 c 0
 328 523 383 485 408 416 c 1
 372 402 l 1
 353 456 311 487 259 487 c 0
 158 487 107 406 107 255 c 0
 107 109 164 24 252 24 c 0
 313 24 362 61 379 118 c 1
 415 105 l 1
 395 39 342 -3 273 -10 c 1
 245 -59 l 1
 313 -59 343 -102 343 -143 c 0
 343 -194 307 -234 246 -234 c 0
EndSplineSet
EndChar

StartChar: eacute
Encoding: 292 233 131
Width: 521
GlyphClass: 2
Flags: MW
HStem: -12 36<225 295.5 225 300.5> 245 33<107 420 107 458 107 420> 490 33<227.5 303.5>
VStem: 68 39<245 245 245 278 245 341> 420 38<245 278>
AnchorPoint: "Anchor-0" 273 0 basechar 0
LayerCount: 2
Fore
SplineSet
212 576 m 1
 363 732 l 1
 418 732 l 1
 249 576 l 1
 212 576 l 1
273 -12 m 0
 143 -12 68 91 68 256 c 0
 68 426 154 523 273 523 c 0
 382 523 458 442 458 256 c 2
 458 245 l 1
 107 245 l 1
 112 92 174 24 276 24 c 0
 315 24 359 37 396 67 c 1
 417 41 l 1
 381 10 328 -12 273 -12 c 0
107 278 m 1
 420 278 l 1
 419 450 334 490 273 490 c 0
 182 490 115 426 107 278 c 1
EndSplineSet
EndChar

StartChar: egrave
Encoding: 293 232 132
Width: 521
GlyphClass: 2
Flags: MW
HStem: -12 36<225 295.5 225 300.5> 245 33<107 420 107 458 107 420> 490 33<227.5 303.5>
VStem: 68 39<245 245 245 278 245 341> 420 38<245 278>
AnchorPoint: "Anchor-0" 273 0 basechar 0
LayerCount: 2
Fore
SplineSet
291 576 m 1
 122 732 l 1
 177 732 l 1
 328 576 l 1
 291 576 l 1
273 -12 m 0
 143 -12 68 91 68 256 c 0
 68 426 154 523 273 523 c 0
 382 523 458 442 458 256 c 2
 458 245 l 1
 107 245 l 1
 112 92 174 24 276 24 c 0
 315 24 359 37 396 67 c 1
 417 41 l 1
 381 10 328 -12 273 -12 c 0
107 278 m 1
 420 278 l 1
 419 450 334 490 273 490 c 0
 182 490 115 426 107 278 c 1
EndSplineSet
EndChar

StartChar: ecircumflex
Encoding: 294 234 133
Width: 521
GlyphClass: 2
Flags: MW
HStem: -12 36<225 295.5 225 300.5> 245 33<107 420 107 458 107 420> 490 33<227.5 303.5> 696 36<272 272>
VStem: 68 39<245 245 245 278 245 341> 420 38<245 278>
AnchorPoint: "Anchor-0" 273 0 basechar 0
LayerCount: 2
Fore
SplineSet
402 576 m 1
 272 696 l 1
 142 576 l 1
 105 576 l 1
 256 732 l 1
 288 732 l 1
 439 576 l 1
 402 576 l 1
273 -12 m 0
 143 -12 68 91 68 256 c 0
 68 426 154 523 273 523 c 0
 382 523 458 442 458 256 c 2
 458 245 l 1
 107 245 l 1
 112 92 174 24 276 24 c 0
 315 24 359 37 396 67 c 1
 417 41 l 1
 381 10 328 -12 273 -12 c 0
107 278 m 1
 420 278 l 1
 419 450 334 490 273 490 c 0
 182 490 115 426 107 278 c 1
EndSplineSet
EndChar

StartChar: edieresis
Encoding: 295 235 134
Width: 521
GlyphClass: 2
Flags: MW
HStem: -12 36<225 295.5 225 300.5> 245 33<107 420 107 458 107 420> 490 33<227.5 303.5> 606 60<182 198.5 348 364.5>
VStem: 68 39<245 245 245 278 245 341> 161 58<627 643.5> 327 58<627 643.5> 420 38<245 278>
AnchorPoint: "Anchor-0" 273 0 basechar 0
LayerCount: 2
Fore
SplineSet
190 606 m 0
 174 606 161 619 161 635 c 0
 161 652 174 666 190 666 c 0
 207 666 219 652 219 635 c 0
 219 619 207 606 190 606 c 0
356 606 m 0
 340 606 327 619 327 635 c 0
 327 652 340 666 356 666 c 0
 373 666 385 652 385 635 c 0
 385 619 373 606 356 606 c 0
273 -12 m 0
 143 -12 68 91 68 256 c 0
 68 426 154 523 273 523 c 0
 382 523 458 442 458 256 c 2
 458 245 l 1
 107 245 l 1
 112 92 174 24 276 24 c 0
 315 24 359 37 396 67 c 1
 417 41 l 1
 381 10 328 -12 273 -12 c 0
107 278 m 1
 420 278 l 1
 419 450 334 490 273 490 c 0
 182 490 115 426 107 278 c 1
EndSplineSet
EndChar

StartChar: iacute
Encoding: 296 237 135
Width: 248
GlyphClass: 2
Flags: MW
HStem: 0 21G<106 106 106 142> 491 20G<106 142 142 142>
VStem: 106 36<0 511 0 511>
AnchorPoint: "Anchor-0" 124 0 basechar 0
LayerCount: 2
Fore
SplineSet
58 576 m 1
 209 732 l 1
 264 732 l 1
 95 576 l 1
 58 576 l 1
106 0 m 1
 106 511 l 1
 142 511 l 1
 142 0 l 1
 106 0 l 1
EndSplineSet
EndChar

StartChar: igrave
Encoding: 297 236 136
Width: 248
GlyphClass: 2
Flags: MW
HStem: 0 21G<106 106 106 142> 491 20G<106 142 142 142>
VStem: 106 36<0 511 0 511>
AnchorPoint: "Anchor-0" 124 0 basechar 0
LayerCount: 2
Fore
SplineSet
153 576 m 1
 -16 732 l 1
 39 732 l 1
 190 576 l 1
 153 576 l 1
106 0 m 1
 106 511 l 1
 142 511 l 1
 142 0 l 1
 106 0 l 1
EndSplineSet
EndChar

StartChar: icircumflex
Encoding: 298 238 137
Width: 248
GlyphClass: 2
Flags: MW
HStem: 0 21G<106 106 106 142> 491 20G<106 142 142 142> 696 36<122 122>
VStem: 106 36<0 511 0 511>
AnchorPoint: "Anchor-0" 124 0 basechar 0
LayerCount: 2
Fore
SplineSet
252 576 m 1
 122 696 l 1
 -8 576 l 1
 -45 576 l 1
 106 732 l 1
 138 732 l 1
 289 576 l 1
 252 576 l 1
106 0 m 1
 106 511 l 1
 142 511 l 1
 142 0 l 1
 106 0 l 1
EndSplineSet
EndChar

StartChar: idieresis
Encoding: 299 239 138
Width: 248
GlyphClass: 2
Flags: MW
HStem: 0 21G<106 106 106 142> 491 20G<106 142 142 142> 606 60<33 49.5 199 215.5>
VStem: 12 58<627 643.5> 106 36<0 511 0 511> 178 58<627 643.5>
AnchorPoint: "Anchor-0" 124 0 basechar 0
LayerCount: 2
Fore
SplineSet
41 606 m 0
 25 606 12 619 12 635 c 0
 12 652 25 666 41 666 c 0
 58 666 70 652 70 635 c 0
 70 619 58 606 41 606 c 0
207 606 m 0
 191 606 178 619 178 635 c 0
 178 652 191 666 207 666 c 0
 224 666 236 652 236 635 c 0
 236 619 224 606 207 606 c 0
106 0 m 1
 106 511 l 1
 142 511 l 1
 142 0 l 1
 106 0 l 1
EndSplineSet
EndChar

StartChar: ntilde
Encoding: 300 241 139
Width: 552
GlyphClass: 2
Flags: MW
HStem: 0 21G<103 139 103 103 418 454 418 418> 489 34<263 326.5> 491 20G<103 139 139 139> 602 33<344.5 387.5 344.5 393.5> 683 33<183.5 226.5> 692 20G<424 451 451 451>
VStem: 103 36<0 297 419 511> 120 27<606 638> 418 36<0 312 0 319 0 381> 424 27<680 712>
AnchorPoint: "Anchor-0" 276 0 basechar 0
LayerCount: 2
Fore
SplineSet
365 602 m 0xda40
 299 602 254 683 199 683 c 0
 168 683 149 656 147 606 c 1
 120 606 l 1
 120 670 149 716 206 716 c 0xd980
 272 716 317 635 372 635 c 0
 403 635 422 662 424 712 c 1
 451 712 l 1xd640
 451 648 422 602 365 602 c 0xda40
418 0 m 1xd680
 418 319 l 2
 418 443 366 489 287 489 c 0xd680
 203 489 139 440 139 297 c 2
 139 0 l 1
 103 0 l 1
 103 511 l 1
 139 511 l 1xb680
 139 419 l 1
 167 495 236 523 290 523 c 0
 397 523 454 455 454 312 c 2
 454 0 l 1
 418 0 l 1xd680
EndSplineSet
EndChar

StartChar: oacute
Encoding: 301 243 140
Width: 540
GlyphClass: 2
Flags: MW
HStem: -12 36<217 322 217 330.5> 487 36<217 323>
VStem: 68 39<182.5 330 182.5 339> 433 39<183 328.5>
AnchorPoint: "Anchor-0" 270 0 basechar 0
LayerCount: 2
Fore
SplineSet
209 576 m 1
 360 732 l 1
 415 732 l 1
 246 576 l 1
 209 576 l 1
270 -12 m 0
 149 -12 68 85 68 255 c 0
 68 423 149 523 270 523 c 0
 391 523 472 426 472 256 c 0
 472 88 391 -12 270 -12 c 0
270 24 m 0
 374 24 433 110 433 256 c 0
 433 401 376 487 270 487 c 0
 164 487 107 405 107 255 c 0
 107 110 164 24 270 24 c 0
EndSplineSet
EndChar

StartChar: ograve
Encoding: 302 242 141
Width: 540
GlyphClass: 2
Flags: MW
HStem: -12 36<217 322 217 330.5> 487 36<217 323>
VStem: 68 39<182.5 330 182.5 339> 433 39<183 328.5>
AnchorPoint: "Anchor-0" 270 0 basechar 0
LayerCount: 2
Fore
SplineSet
277 576 m 1
 108 732 l 1
 163 732 l 1
 314 576 l 1
 277 576 l 1
270 -12 m 0
 149 -12 68 85 68 255 c 0
 68 423 149 523 270 523 c 0
 391 523 472 426 472 256 c 0
 472 88 391 -12 270 -12 c 0
270 24 m 0
 374 24 433 110 433 256 c 0
 433 401 376 487 270 487 c 0
 164 487 107 405 107 255 c 0
 107 110 164 24 270 24 c 0
EndSplineSet
EndChar

StartChar: ocircumflex
Encoding: 303 244 142
Width: 540
GlyphClass: 2
Flags: MW
HStem: -12 36<217 322 217 330.5> 487 36<217 323> 696 36<269 269>
VStem: 68 39<182.5 330 182.5 339> 433 39<183 328.5>
AnchorPoint: "Anchor-0" 270 0 basechar 0
LayerCount: 2
Fore
SplineSet
399 576 m 1
 269 696 l 1
 139 576 l 1
 102 576 l 1
 253 732 l 1
 285 732 l 1
 436 576 l 1
 399 576 l 1
270 -12 m 0
 149 -12 68 85 68 255 c 0
 68 423 149 523 270 523 c 0
 391 523 472 426 472 256 c 0
 472 88 391 -12 270 -12 c 0
270 24 m 0
 374 24 433 110 433 256 c 0
 433 401 376 487 270 487 c 0
 164 487 107 405 107 255 c 0
 107 110 164 24 270 24 c 0
EndSplineSet
EndChar

StartChar: odieresis
Encoding: 304 246 143
Width: 540
GlyphClass: 2
Flags: MW
HStem: -12 36<217 322 217 330.5> 487 36<217 323> 606 60<179 195.5 345 361.5>
VStem: 68 39<182.5 330 182.5 339> 158 58<627 643.5> 324 58<627 643.5> 433 39<183 328.5>
AnchorPoint: "Anchor-0" 270 0 basechar 0
LayerCount: 2
Fore
SplineSet
187 606 m 0
 171 606 158 619 158 635 c 0
 158 652 171 666 187 666 c 0
 204 666 216 652 216 635 c 0
 216 619 204 606 187 606 c 0
353 606 m 0
 337 606 324 619 324 635 c 0
 324 652 337 666 353 666 c 0
 370 666 382 652 382 635 c 0
 382 619 370 606 353 606 c 0
270 -12 m 0
 149 -12 68 85 68 255 c 0
 68 423 149 523 270 523 c 0
 391 523 472 426 472 256 c 0
 472 88 391 -12 270 -12 c 0
270 24 m 0
 374 24 433 110 433 256 c 0
 433 401 376 487 270 487 c 0
 164 487 107 405 107 255 c 0
 107 110 164 24 270 24 c 0
EndSplineSet
EndChar

StartChar: otilde
Encoding: 305 245 144
Width: 540
GlyphClass: 2
Flags: MW
HStem: -12 36<217 322 217 330.5> 487 36<217 323> 602 33<327.5 370.5 327.5 376.5> 683 33<166.5 209.5> 692 20G<407 434 434 434>
VStem: 68 39<182.5 330 182.5 339> 103 27<606 638> 407 27<680 712> 433 39<183 328.5>
AnchorPoint: "Anchor-0" 270 0 basechar 0
LayerCount: 2
Fore
SplineSet
348 602 m 0xf5
 282 602 237 683 182 683 c 0
 151 683 132 656 130 606 c 1
 103 606 l 1
 103 670 132 716 189 716 c 0xf280
 255 716 300 635 355 635 c 0
 386 635 405 662 407 712 c 1
 434 712 l 1xed
 434 648 405 602 348 602 c 0xf5
270 -12 m 0xec80
 149 -12 68 85 68 255 c 0
 68 423 149 523 270 523 c 0
 391 523 472 426 472 256 c 0
 472 88 391 -12 270 -12 c 0xec80
270 24 m 0
 374 24 433 110 433 256 c 0
 433 401 376 487 270 487 c 0
 164 487 107 405 107 255 c 0
 107 110 164 24 270 24 c 0
EndSplineSet
EndChar

StartChar: uacute
Encoding: 306 250 145
Width: 552
GlyphClass: 2
Flags: MW
HStem: -12 33<225.5 290> 0 21G 491 20G<98 134 134 134 413 449 449 449>
VStem: 98 36<199 511> 413 36<0 86 86 86 214 511 0 511>
AnchorPoint: "Anchor-0" 276 0 basechar 0
LayerCount: 2
Fore
SplineSet
207 576 m 1xb8
 358 732 l 1
 413 732 l 1
 244 576 l 1
 207 576 l 1xb8
413 0 m 1x78
 413 86 l 1
 379 11 317 -12 263 -12 c 0
 155 -12 98 56 98 199 c 2
 98 511 l 1
 134 511 l 1
 134 191 l 2
 134 67 186 21 265 21 c 0xb8
 349 21 413 71 413 214 c 2
 413 511 l 1
 449 511 l 1
 449 0 l 1
 413 0 l 1x78
EndSplineSet
EndChar

StartChar: ugrave
Encoding: 307 249 146
Width: 552
GlyphClass: 2
Flags: MW
HStem: -12 33<225.5 290> 0 21G 491 20G<98 134 134 134 413 449 449 449>
VStem: 98 36<199 511> 413 36<0 86 86 86 214 511 0 511>
AnchorPoint: "Anchor-0" 276 0 basechar 0
LayerCount: 2
Fore
SplineSet
286 576 m 1xb8
 117 732 l 1
 172 732 l 1
 323 576 l 1
 286 576 l 1xb8
413 0 m 1x78
 413 86 l 1
 379 11 317 -12 263 -12 c 0
 155 -12 98 56 98 199 c 2
 98 511 l 1
 134 511 l 1
 134 191 l 2
 134 67 186 21 265 21 c 0xb8
 349 21 413 71 413 214 c 2
 413 511 l 1
 449 511 l 1
 449 0 l 1
 413 0 l 1x78
EndSplineSet
EndChar

StartChar: ucircumflex
Encoding: 308 251 147
Width: 552
GlyphClass: 2
Flags: MW
HStem: -12 33<225.5 290> 0 21G 491 20G<98 134 134 134 413 449 449 449> 696 36<267 267>
VStem: 98 36<199 511> 413 36<0 86 86 86 214 511 0 511>
AnchorPoint: "Anchor-0" 276 0 basechar 0
LayerCount: 2
Fore
SplineSet
397 576 m 1xbc
 267 696 l 1
 137 576 l 1
 100 576 l 1
 251 732 l 1
 283 732 l 1
 434 576 l 1
 397 576 l 1xbc
413 0 m 1x7c
 413 86 l 1
 379 11 317 -12 263 -12 c 0
 155 -12 98 56 98 199 c 2
 98 511 l 1
 134 511 l 1
 134 191 l 2
 134 67 186 21 265 21 c 0xbc
 349 21 413 71 413 214 c 2
 413 511 l 1
 449 511 l 1
 449 0 l 1
 413 0 l 1x7c
EndSplineSet
EndChar

StartChar: udieresis
Encoding: 309 252 148
Width: 552
GlyphClass: 2
Flags: MW
HStem: -12 33<225.5 290> 0 21G 491 20G<98 134 134 134 413 449 449 449> 606 60<177 193.5 343 359.5>
VStem: 98 36<199 511> 156 58<627 643.5> 322 58<627 643.5> 413 36<0 86 86 86 214 511 0 511>
AnchorPoint: "Anchor-0" 276 0 basechar 0
LayerCount: 2
Fore
SplineSet
185 606 m 0x7f
 169 606 156 619 156 635 c 0
 156 652 169 666 185 666 c 0
 202 666 214 652 214 635 c 0
 214 619 202 606 185 606 c 0x7f
351 606 m 0
 335 606 322 619 322 635 c 0
 322 652 335 666 351 666 c 0
 368 666 380 652 380 635 c 0
 380 619 368 606 351 606 c 0
413 0 m 1
 413 86 l 1
 379 11 317 -12 263 -12 c 0
 155 -12 98 56 98 199 c 2
 98 511 l 1
 134 511 l 1
 134 191 l 2
 134 67 186 21 265 21 c 0xb9
 349 21 413 71 413 214 c 2
 413 511 l 1
 449 511 l 1
 449 0 l 1
 413 0 l 1
EndSplineSet
EndChar

StartChar: dagger
Encoding: 310 8224 149
Width: 556
Flags: MW
HStem: 455 34<93 128 93 128 428 463> 692 20G<260 296 296 296>
VStem: 260 36<338 338 587 712> 267.5 21
LayerCount: 2
Fore
SplineSet
288 464 m 1xd0
 296 338 l 1
 281 -141 l 1
 275 -141 l 1
 260 338 l 1
 268 464 l 1xd0
 128 455 l 1
 93 455 l 1
 93 489 l 1
 128 489 l 1
 268 480 l 1
 260 587 l 1
 260 712 l 1
 296 712 l 1
 296 587 l 1
 288 480 l 1xe0
 428 489 l 1
 463 489 l 1
 463 455 l 1
 428 455 l 1
 288 464 l 1xd0
EndSplineSet
EndChar

StartChar: degree
Encoding: 311 176 150
Width: 396
Flags: MW
HStem: 482 33<168.5 227 168.5 236> 717 33<168.5 227>
VStem: 63 34<587.5 645 587.5 654.5> 299 34<587.5 645>
LayerCount: 2
Fore
SplineSet
198 482 m 0
 121 482 63 540 63 616 c 0
 63 693 121 750 198 750 c 0
 274 750 333 693 333 616 c 0
 333 540 274 482 198 482 c 0
198 515 m 0
 256 515 299 559 299 616 c 0
 299 674 256 717 198 717 c 0
 139 717 97 674 97 616 c 0
 97 559 139 515 198 515 c 0
EndSplineSet
EndChar

StartChar: cent
Encoding: 312 162 151
Width: 507
Flags: MW
HStem: -12 130<245 245 245 281> 82 36<245 245 281 281> 579 37<281 281 281 297> 579 133<245 281 245 297>
VStem: 80 39<275 423.5 275 425.5> 245 36<-12 82 -12 82 616 712>
LayerCount: 2
Fore
SplineSet
245 -12 m 1x9c
 245 82 l 1
 144 92 80 188 80 348 c 0
 80 503 141 601 245 614 c 1
 245 712 l 1
 281 712 l 1x5c
 281 616 l 1xac
 345 612 396 574 420 509 c 1
 384 495 l 1
 365 549 323 579 271 579 c 0
 170 579 119 499 119 348 c 0
 119 202 176 118 264 118 c 0
 325 118 374 154 391 211 c 1x9c
 427 198 l 1
 406 131 352 88 281 82 c 1x5c
 281 -12 l 1
 245 -12 l 1x9c
EndSplineSet
EndChar

StartChar: sterling
Encoding: 313 163 152
Width: 600
Flags: MW
HStem: 0 33<137 537 137 537> 311 33<103 189 103 198 103 189 237 237 237 397> 677 35<285.5 381.5 275 384.5>
VStem: 103 34<33 33 33 40 33 40> 139 38<495.5 563 495.5 574> 205 38<213.5 260.5>
LayerCount: 2
Fore
SplineSet
103 0 m 1
 103 40 l 1
 182 109 205 177 205 250 c 0
 205 271 202 292 198 311 c 1xf4
 103 311 l 1
 103 344 l 1
 189 344 l 1
 170 408 139 463 139 526 c 0
 139 622 205 712 345 712 c 0
 418 712 479 691 521 658 c 1
 506 625 l 1
 476 651 424 677 345 677 c 0
 226 677 177 599 177 527 c 0
 177 464 210 409 229 344 c 1xe8
 397 344 l 1
 397 311 l 1
 237 311 l 1
 241 294 243 276 243 258 c 0
 243 164 203 89 137 33 c 1
 537 33 l 1
 537 0 l 1
 103 0 l 1
EndSplineSet
EndChar

StartChar: section
Encoding: 253 167 153
Width: 528
Flags: MW
HStem: -120 36<219 302 219 315> 676 36<220.5 293>
VStem: 84 39<285 345 283 350.5 544.5 606> 411 39<-11.5 59.5 -20.5 80.5 257.5 312.5>
LayerCount: 2
Fore
SplineSet
259 -120 m 0
 173 -120 111 -84 78 -49 c 1
 106 -23 l 1
 133 -48 179 -84 259 -84 c 0
 345 -84 411 -56 411 33 c 0
 411 128 308 153 215 191 c 0
 136 223 84 249 84 321 c 0
 84 380 130 421 190 432 c 1
 112 464 84 516 84 573 c 0
 84 660 163 712 257 712 c 0
 341 712 393 678 423 650 c 1
 394 624 l 1
 370 645 329 676 257 676 c 0
 184 676 123 642 123 570 c 0
 123 495 176 475 302 427 c 0
 378 398 450 365 450 279 c 0
 450 236 423 188 365 169 c 1
 426 138 450 86 450 33 c 0
 450 -74 371 -120 259 -120 c 0
333 187 m 1
 377 203 411 233 411 276 c 0
 411 349 330 377 228 412 c 1
 163 402 123 369 123 321 c 0
 123 245 259 222 333 187 c 1
EndSplineSet
EndChar

StartChar: bullet
Encoding: 314 8226 154
Width: 412
Flags: MW
HStem: 264 174<181.5 230.5>
VStem: 118 176<327 375>
LayerCount: 2
Fore
SplineSet
206 264 m 0
 157 264 118 303 118 351 c 0
 118 399 157 438 206 438 c 0
 255 438 294 399 294 351 c 0
 294 303 255 264 206 264 c 0
EndSplineSet
EndChar

StartChar: paragraph
Encoding: 315 182 155
Width: 598
Flags: MW
HStem: 295 36<226.5 309> 647 36<262 265 265 310 345 452 345 345>
VStem: 50 40<454.5 531.5 454.5 539> 309 36<-157 295 295 295> 452 36<-91 647 647 647>
LayerCount: 2
Fore
SplineSet
309 -174 m 1
 309 295 l 1
 113 295 50 402 50 491 c 0
 50 587 103 683 262 683 c 2
 488 683 l 1
 488 -91 l 1
 452 -109 l 1
 452 647 l 1
 345 647 l 1
 345 -157 l 1
 309 -174 l 1
310 331 m 1
 310 647 l 1
 265 647 l 2
 133 647 90 571 90 492 c 0
 90 417 143 331 310 331 c 1
EndSplineSet
EndChar

StartChar: germandbls
Encoding: 316 223 156
Width: 562
Flags: MW
HStem: -12 36<293 340 293 354.5> -3 21G<242 242> 363 33<269 273 269 273> 676 36<237 324.5>
VStem: 95 36<-176 486 -176 486 -176 569> 417 39<504.5 578.5> 453 39<139 239.5 131 240>
LayerCount: 2
Fore
SplineSet
95 -194 m 1xba
 95 486 l 2
 95 652 189 712 278 712 c 0
 386 712 456 641 456 534 c 0xbc
 456 475 432 400 340 382 c 1
 444 365 492 280 492 199 c 0
 492 63 408 -12 301 -12 c 0xba
 276 -12 255 -8 242 -3 c 1x7a
 260 28 l 1
 272 25 285 24 301 24 c 0
 379 24 453 79 453 199 c 0xba
 453 281 406 363 273 363 c 2
 269 363 l 1
 269 396 l 1
 273 396 l 2
 359 396 417 438 417 534 c 0xbc
 417 623 371 676 278 676 c 0
 196 676 131 619 131 486 c 2
 131 -176 l 1
 95 -194 l 1xba
EndSplineSet
EndChar

StartChar: registered
Encoding: 317 174 157
Width: 870
Flags: MW
HStem: -12 34<340.5 529 340.5 537.5> 319 36<334 444 334 467> 524 36<334 467 334 334> 678 34<340.5 529>
VStem: 73 36<256.5 443.5 256.5 452.5> 298 36<137 319 355 524> 556 38<416.5 458.5> 761 36<256.5 443.5>
LayerCount: 2
Fore
SplineSet
435 -12 m 0
 230 -12 73 145 73 350 c 0
 73 555 230 712 435 712 c 0
 640 712 797 555 797 350 c 0
 797 145 640 -12 435 -12 c 0
435 22 m 0
 623 22 761 163 761 350 c 0
 761 537 623 678 435 678 c 0
 246 678 109 537 109 350 c 0
 109 163 246 22 435 22 c 0
298 137 m 1
 298 560 l 1
 476 560 l 2
 563 560 594 489 594 438 c 0
 594 379 558 327 483 321 c 1
 588 137 l 1
 546 137 l 1
 444 319 l 1
 334 319 l 1
 334 137 l 1
 298 137 l 1
334 355 m 1
 467 355 l 2
 533 355 556 395 556 438 c 0
 556 479 537 524 467 524 c 2
 334 524 l 1
 334 355 l 1
EndSplineSet
EndChar

StartChar: copyright
Encoding: 318 169 158
Width: 870
Flags: MW
HStem: -12 34<340.5 529 340.5 537.5> 138 35<399 465.5 399 475.5> 538 35<397.5 466> 678 34<340.5 529>
VStem: 73 36<256.5 443.5 256.5 452.5> 274 38<294.5 411.5 294.5 421> 761 36<256.5 443.5>
LayerCount: 2
Fore
SplineSet
435 -12 m 0
 230 -12 73 145 73 350 c 0
 73 555 230 712 435 712 c 0
 640 712 797 555 797 350 c 0
 797 145 640 -12 435 -12 c 0
435 22 m 0
 623 22 761 163 761 350 c 0
 761 537 623 678 435 678 c 0
 246 678 109 537 109 350 c 0
 109 163 246 22 435 22 c 0
441 138 m 0
 332 138 274 215 274 355 c 0
 274 487 332 573 440 573 c 0
 509 573 553 540 577 485 c 1
 543 471 l 1
 526 508 492 538 440 538 c 0
 355 538 312 468 312 355 c 0
 312 234 357 173 441 173 c 0
 490 173 534 193 553 249 c 1
 583 237 l 1
 561 173 510 138 441 138 c 0
EndSplineSet
EndChar

StartChar: trademark
Encoding: 319 8482 159
Width: 782
Flags: MW
HStem: 666 34<38 158 38 313 194 194 194 313>
VStem: 158 36<278 666 278 666> 364 36<278 575 278 700> 658 36<278 575 575 575>
LayerCount: 2
Fore
SplineSet
158 278 m 1
 158 666 l 1
 38 666 l 1
 38 700 l 1
 313 700 l 1
 313 666 l 1
 194 666 l 1
 194 278 l 1
 158 278 l 1
694 278 m 1
 658 278 l 1
 658 575 l 1
 529 268 l 1
 400 575 l 1
 400 278 l 1
 364 278 l 1
 364 700 l 1
 386 700 l 1
 517 386 l 1
 529 358 l 1
 541 386 l 1
 672 700 l 1
 694 700 l 1
 694 278 l 1
EndSplineSet
EndChar

StartChar: acute
Encoding: 320 180 160
Width: 331
Flags: MW
HStem: 576 156<105 311 105 311>
VStem: 105 206<576 732>
LayerCount: 2
Fore
SplineSet
105 576 m 1
 256 732 l 1
 311 732 l 1
 142 576 l 1
 105 576 l 1
EndSplineSet
EndChar

StartChar: dieresis
Encoding: 321 168 161
Width: 331
Flags: MW
HStem: 606 60<76 92.5 242 258.5>
VStem: 55 58<627 643.5> 221 58<627 643.5>
LayerCount: 2
Fore
SplineSet
84 606 m 0
 68 606 55 619 55 635 c 0
 55 652 68 666 84 666 c 0
 101 666 113 652 113 635 c 0
 113 619 101 606 84 606 c 0
250 606 m 0
 234 606 221 619 221 635 c 0
 221 652 234 666 250 666 c 0
 267 666 279 652 279 635 c 0
 279 619 267 606 250 606 c 0
EndSplineSet
EndChar

StartChar: notequal
Encoding: 322 8800 162
Width: 656
Flags: MW
HStem: 229 36<93 252 93 270 313 563 93 295> 419 36<93 350 93 368 93 393 411 563>
VStem: 93 470<229 265 229 265 419 455 229 455>
LayerCount: 2
Fore
SplineSet
295 229 m 1
 240 123 l 1
 197 123 l 1
 252 229 l 1
 93 229 l 1
 93 265 l 1
 270 265 l 1
 350 419 l 1
 93 419 l 1
 93 455 l 1
 368 455 l 1
 415 546 l 1
 458 546 l 1
 411 455 l 1
 563 455 l 1
 563 419 l 1
 393 419 l 1
 313 265 l 1
 563 265 l 1
 563 229 l 1
 295 229 l 1
EndSplineSet
EndChar

StartChar: AE
Encoding: 323 198 163
Width: 849
GlyphClass: 2
Flags: MW
HStem: 0 33<442 764 442 764> 197 30<173 406 173 406 157 406> 346 33<442 635 442 635> 667 33<442 742 442 442>
VStem: 406 36<33 197 197 197 227 346 379 636 636 636>
AnchorPoint: "Anchor-0" 425 0 basechar 0
LayerCount: 2
Fore
SplineSet
3 0 m 1
 407 700 l 1
 742 700 l 1
 742 667 l 1
 442 667 l 1
 442 379 l 1
 635 379 l 1
 635 346 l 1
 442 346 l 1
 442 33 l 1
 764 33 l 1
 764 0 l 1
 406 0 l 1
 406 197 l 1
 157 197 l 1
 44 0 l 1
 3 0 l 1
173 227 m 1
 406 227 l 1
 406 636 l 1
 398 620 390 606 382 592 c 2
 173 227 l 1
EndSplineSet
Position2: "'cpsp' Capital Spacing in Latin lookup 0 subtable" dx=5 dy=0 dh=10 dv=0
EndChar

StartChar: Oslash
Encoding: 324 216 164
Width: 716
Flags: MW
HStem: -12 36<324 445 324 458> 676 36<271 391.5>
VStem: 85 38<306 426 306 436.5> 593 38<274 393.5>
LayerCount: 2
Fore
SplineSet
96 -12 m 1
 160 84 l 1
 107 154 85 255 85 350 c 0
 85 523 158 712 358 712 c 0
 433 712 490 685 532 643 c 1
 579 712 l 1
 620 712 l 1
 556 616 l 1
 609 545 631 445 631 350 c 0
 631 177 558 -12 358 -12 c 0
 282 -12 225 15 183 57 c 1
 137 -12 l 1
 96 -12 l 1
181 115 m 1
 512 612 l 1
 476 651 425 676 358 676 c 0
 184 676 123 502 123 350 c 0
 123 262 139 177 181 115 c 1
358 24 m 0
 532 24 593 198 593 350 c 0
 593 437 576 523 535 584 c 1
 203 87 l 1
 239 48 290 24 358 24 c 0
EndSplineSet
Position2: "'cpsp' Capital Spacing in Latin lookup 0 subtable" dx=5 dy=0 dh=10 dv=0
EndChar

StartChar: infinity
Encoding: 325 8734 165
Width: 998
Flags: MW
HStem: 143 33<219.5 320 219.5 322 679 779.5> 540 33<219.5 320 678 778.5>
VStem: 58 38<300 414 300 426> 902 38<300 414>
LayerCount: 2
Fore
SplineSet
732 143 m 0
 619 143 550 223 500 331 c 1
 447 228 377 143 267 143 c 0
 151 143 58 220 58 357 c 0
 58 495 151 573 267 573 c 0
 376 573 447 485 499 383 c 1
 551 493 616 573 730 573 c 0
 847 573 940 495 940 357 c 0
 940 220 848 143 732 143 c 0
267 176 m 0
 373 176 440 264 486 357 c 1
 440 448 373 540 267 540 c 0
 172 540 96 471 96 357 c 0
 96 243 172 176 267 176 c 0
732 176 m 0
 827 176 902 243 902 357 c 0
 902 471 827 540 730 540 c 0
 626 540 556 448 511 357 c 1
 557 264 626 176 732 176 c 0
EndSplineSet
EndChar

StartChar: plusminus
Encoding: 326 177 166
Width: 656
Flags: MW
HStem: 0 36<93 563 93 563> 388 36<93 309 93 309 345 563>
VStem: 309 36<204 388 204 388 424 608>
LayerCount: 2
Fore
SplineSet
345 388 m 1
 345 204 l 1
 309 204 l 1
 309 388 l 1
 93 388 l 1
 93 424 l 1
 309 424 l 1
 309 608 l 1
 345 608 l 1
 345 424 l 1
 563 424 l 1
 563 388 l 1
 345 388 l 1
93 0 m 1
 93 36 l 1
 563 36 l 1
 563 0 l 1
 93 0 l 1
EndSplineSet
EndChar

StartChar: lessequal
Encoding: 327 8804 167
Width: 656
Flags: MW
HStem: 0 36<93 563 93 563>
VStem: 93 47<379 379 379 398 379 398>
LayerCount: 2
Fore
SplineSet
563 156 m 1
 93 360 l 1
 93 398 l 1
 563 602 l 1
 563 561 l 1
 140 379 l 1
 563 197 l 1
 563 156 l 1
93 0 m 1
 93 36 l 1
 563 36 l 1
 563 0 l 1
 93 0 l 1
EndSplineSet
EndChar

StartChar: greaterequal
Encoding: 328 8805 168
Width: 656
Flags: MW
HStem: 0 36<93 563 93 563>
VStem: 516 47<379 379>
LayerCount: 2
Fore
SplineSet
93 156 m 1
 93 197 l 1
 516 379 l 1
 93 561 l 1
 93 602 l 1
 563 398 l 1
 563 360 l 1
 93 156 l 1
93 0 m 1
 93 36 l 1
 563 36 l 1
 563 0 l 1
 93 0 l 1
EndSplineSet
EndChar

StartChar: yen
Encoding: 329 165 169
Width: 554
Flags: MW
HStem: 0 156<78 295 78 259> 123 33<78 259 78 259 295 464> 276 33<78 244 78 259 78 244 310 464> 680 20G<31 70 70 70 484 523 523 523>
VStem: 259 36<0 123 0 123 156 276>
LayerCount: 2
Fore
SplineSet
310 309 m 1x78
 464 309 l 1
 464 276 l 1
 295 276 l 1
 295 156 l 1
 464 156 l 1
 464 123 l 1
 295 123 l 1x78
 295 0 l 1
 259 0 l 1xb8
 259 123 l 1
 78 123 l 1
 78 156 l 1
 259 156 l 1
 259 276 l 1
 78 276 l 1
 78 309 l 1
 244 309 l 1
 31 700 l 1
 70 700 l 1
 277 318 l 1
 484 700 l 1
 523 700 l 1
 310 309 l 1x78
EndSplineSet
EndChar

StartChar: uni00B5
Encoding: 330 181 170
Width: 552
Flags: MW
HStem: -12 33<234.5 298> 0 21G 491 20G<98 134 134 134 413 449 449 449>
VStem: 98 36<-181 50 121 191 191 511> 413 36<0 86 86 86 214 511 0 511>
LayerCount: 2
Fore
SplineSet
413 0 m 1x78
 413 86 l 1
 386 25 333 -12 263 -12 c 0
 206 -12 161 7 134 50 c 1
 134 -181 l 1
 98 -200 l 1
 98 511 l 1
 134 511 l 1
 134 191 l 2
 134 51 200 21 265 21 c 0xb8
 347 21 413 69 413 214 c 2
 413 511 l 1
 449 511 l 1
 449 0 l 1
 413 0 l 1x78
EndSplineSet
EndChar

StartChar: partialdiff
Encoding: 331 8706 171
Width: 582
Flags: MW
HStem: -12 36<201.5 303.5 201.5 339> 397 38<226 327> 692 20G<237 237>
VStem: 53 39<136.5 247.5 136.5 258> 441 24 468 36<348 458>
LayerCount: 2
Fore
SplineSet
246 -12 m 0
 133 -12 53 67 53 185 c 0
 53 331 155 435 279 435 c 0
 386 435 454 377 465 283 c 1xf8
 468 322 468 342 468 354 c 0
 468 562 376 660 229 680 c 1
 237 712 l 1
 413 686 504 570 504 354 c 0
 504 157 432 -12 246 -12 c 0
246 24 m 0xf8
 361 24 441 106 441 234 c 0
 441 339 375 397 279 397 c 0
 173 397 92 310 92 185 c 0
 92 88 157 24 246 24 c 0xf8
EndSplineSet
EndChar

StartChar: summation
Encoding: 332 8721 172
Width: 626
Flags: MW
HStem: -142 36<122 565 122 565> 662 36<137 545 137 137>
VStem: 70 495<-142 -113 -113 -113>
LayerCount: 2
Fore
SplineSet
70 -142 m 1
 70 -113 l 1
 366 288 l 1
 84 669 l 1
 84 698 l 1
 545 698 l 1
 545 662 l 1
 137 662 l 1
 412 290 l 1
 122 -106 l 1
 565 -106 l 1
 565 -142 l 1
 70 -142 l 1
EndSplineSet
EndChar

StartChar: product
Encoding: 333 8719 173
Width: 696
Flags: MW
HStem: 664 36<146 550 146 146>
VStem: 110 36<-140 664 -140 700> 550 36<-140 664 664 664>
LayerCount: 2
Fore
SplineSet
550 -140 m 1
 550 664 l 1
 146 664 l 1
 146 -140 l 1
 110 -140 l 1
 110 700 l 1
 586 700 l 1
 586 -140 l 1
 550 -140 l 1
EndSplineSet
EndChar

StartChar: pi
Encoding: 334 960 174
Width: 642
Flags: MW
HStem: -12 35<479.5 513> 475 36<73 170 73 572 206 407 206 206 443 443 443 572>
VStem: 170 36<326 333 333 475> 407 36<104 109 109 475>
LayerCount: 2
Fore
SplineSet
501 -12 m 0
 430 -12 407 38 407 104 c 2
 407 475 l 1
 206 475 l 1
 206 333 l 2
 206 150 175 45 84 -20 c 1
 55 3 l 1
 118 47 170 113 170 326 c 2
 170 475 l 1
 73 475 l 1
 73 511 l 1
 572 511 l 1
 572 475 l 1
 443 475 l 1
 443 109 l 2
 443 56 454 23 505 23 c 0
 535 23 563 36 580 47 c 1
 576 9 l 1
 555 -4 525 -12 501 -12 c 0
EndSplineSet
EndChar

StartChar: integral
Encoding: 335 8747 175
Width: 368
Flags: MW
HStem: -140 33<93.5 127 91 137> 679 33<241 274.5 231 277>
VStem: 166 36<-27 599>
LayerCount: 2
Fore
SplineSet
104 -140 m 0
 83 -140 60 -133 43 -124 c 1
 43 -92 l 1
 61 -100 78 -107 104 -107 c 0
 150 -107 166 -82 166 -27 c 2
 166 603 l 2
 166 675 198 712 264 712 c 0
 285 712 308 705 325 696 c 1
 325 664 l 1
 307 672 290 679 264 679 c 0
 218 679 202 654 202 599 c 2
 202 -31 l 2
 202 -103 170 -140 104 -140 c 0
EndSplineSet
EndChar

StartChar: ordfeminine
Encoding: 336 170 176
Width: 448
Flags: MW
HStem: 273 33<171.5 226.5> 497 20G<334 334> 514 33<187.5 238> 678 34<195 255.5>
VStem: 58 39<372.5 446 372.5 456> 334 36<283 325 325 325 360 481 481 481 517 554 554 561 283 601>
LayerCount: 2
Fore
SplineSet
334 283 m 1xdc
 334 325 l 1
 302 297 252 273 201 273 c 0
 116 273 58 320 58 408 c 0
 58 504 138 547 216 547 c 0xbc
 260 547 303 534 334 517 c 1
 334 554 l 2
 334 648 295 678 216 678 c 0
 171 678 132 662 103 644 c 1
 93 676 l 1
 123 696 174 712 216 712 c 0
 311 712 370 677 370 561 c 2
 370 283 l 1
 334 283 l 1xdc
201 306 m 0
 261 306 306 334 334 360 c 1
 334 481 l 1
 308 498 260 514 216 514 c 0
 159 514 97 484 97 408 c 0
 97 337 142 306 201 306 c 0
EndSplineSet
EndChar

StartChar: ordmasculine
Encoding: 337 186 177
Width: 465
Flags: MW
HStem: 272 37<191 274 191 286> 675 37<191 274>
VStem: 57 39<434 549.5 434 561> 369 39<434 549.5>
LayerCount: 2
Fore
SplineSet
232 272 m 0
 126 272 57 352 57 492 c 0
 57 630 126 712 232 712 c 0
 340 712 408 630 408 492 c 0
 408 352 340 272 232 272 c 0
232 309 m 0
 316 309 369 376 369 492 c 0
 369 607 316 675 232 675 c 0
 150 675 96 607 96 492 c 0
 96 376 150 309 232 309 c 0
EndSplineSet
EndChar

StartChar: uni03A9
Encoding: 338 937 178
Width: 734
Flags: MW
HStem: 0 36<83 259 83 296 83 259 473 649> 676 36<279 454>
VStem: 91 39<329 456.5 329 465> 259 37<36 36> 436 37<36 36 36 42 36 42> 602 39<329 456.5>
LayerCount: 2
Fore
SplineSet
436 0 m 1
 436 42 l 1
 551 134 602 268 602 390 c 0
 602 523 542 676 366 676 c 0
 192 676 130 523 130 390 c 0
 130 268 179 134 296 42 c 1
 296 0 l 1
 83 0 l 1
 83 36 l 1
 259 36 l 1
 157 112 91 236 91 390 c 0
 91 540 163 712 366 712 c 0
 571 712 641 540 641 390 c 0
 641 236 574 112 473 36 c 1
 649 36 l 1
 649 0 l 1
 436 0 l 1
EndSplineSet
Position2: "'cpsp' Capital Spacing in Latin lookup 0 subtable" dx=5 dy=0 dh=10 dv=0
EndChar

StartChar: ae
Encoding: 339 230 179
Width: 846
Flags: MW
HStem: -12 33<198 265> -12 36<560.5 625.5 555 630.5> 245 33<437 750 437 788 437 750> 283 33<213 275 200 277> 490 33<245 305.5 564.5 633.5>
VStem: 73 39<114 198 114 209.5> 398 39<245 278 245 343> 750 38<245 278>
LayerCount: 2
Fore
SplineSet
236 -12 m 0xaf
 136 -12 73 47 73 154 c 0
 73 265 152 316 248 316 c 0
 302 316 352 297 398 267 c 1x9f
 398 343 l 2
 398 464 338 490 273 490 c 0
 217 490 159 465 119 441 c 1
 108 472 l 1
 146 494 206 523 276 523 c 0
 337 523 415 501 428 399 c 1
 458 482 526 523 603 523 c 0
 712 523 788 442 788 256 c 2
 788 245 l 1
 437 245 l 1
 442 91 504 24 606 24 c 0
 645 24 689 37 726 67 c 1x6f
 747 41 l 1
 711 10 658 -12 603 -12 c 0
 518 -12 456 32 424 109 c 1
 369 20 294 -12 236 -12 c 0xaf
437 278 m 1
 750 278 l 1
 749 453 664 490 603 490 c 0
 512 490 445 429 437 278 c 1
236 21 m 0
 311 21 371 76 411 145 c 1
 403 173 400 200 398 233 c 1
 359 259 306 283 248 283 c 0x9f
 178 283 112 242 112 154 c 0
 112 74 160 21 236 21 c 0
EndSplineSet
EndChar

StartChar: oslash
Encoding: 340 248 180
Width: 540
GlyphClass: 2
Flags: MW
HStem: -12 36<247.5 322 247.5 330.5> 487 36<217 292.5>
VStem: 68 39<223 330 223 339> 433 39<183 288>
AnchorPoint: "Anchor-0" 270 0 basechar 0
LayerCount: 2
Fore
SplineSet
477 523 m 1
 423 445 l 1
 454 400 472 336 472 256 c 0
 472 88 391 -12 270 -12 c 0
 218 -12 174 6 140 39 c 1
 105 -12 l 1
 63 -12 l 1
 117 66 l 1
 86 111 68 175 68 255 c 0
 68 423 149 523 270 523 c 0
 322 523 366 505 400 472 c 1
 435 523 l 1
 477 523 l 1
107 255 m 0
 107 191 118 138 140 99 c 1
 379 442 l 1
 352 471 315 487 270 487 c 0
 164 487 107 405 107 255 c 0
433 256 m 0
 433 320 422 373 400 412 c 1
 161 69 l 1
 188 40 225 24 270 24 c 0
 374 24 433 110 433 256 c 0
EndSplineSet
EndChar

StartChar: questiondown
Encoding: 341 191 181
Width: 522
Flags: MW
HStem: -200 36<206.5 309.5 206.5 319.5> 463 60<261.5 278>
VStem: 63 38<-60 53 -60 61.5> 241 58<485.5 502> 251 38<322 356 233 356> 422 36<-55 -13>
LayerCount: 2
Fore
SplineSet
270 463 m 0xf4
 253 463 241 477 241 494 c 0
 241 510 253 523 270 523 c 0
 286 523 299 510 299 494 c 0
 299 477 286 463 270 463 c 0xf4
257 -200 m 0
 132 -200 63 -119 63 -20 c 0
 63 143 251 158 251 322 c 2
 251 356 l 1
 289 356 l 1
 289 322 l 2xec
 289 144 101 126 101 -20 c 0
 101 -100 156 -164 257 -164 c 0
 362 -164 422 -97 422 -13 c 1
 458 -13 l 1
 458 -116 382 -200 257 -200 c 0
EndSplineSet
EndChar

StartChar: exclamdown
Encoding: 342 161 182
Width: 266
Flags: MW
HStem: 463 60<124.5 141>
VStem: 104 58<485.5 502> 114 38<-200 52>
LayerCount: 2
Fore
SplineSet
133 463 m 0xc0
 116 463 104 477 104 494 c 0
 104 510 116 523 133 523 c 0
 149 523 162 510 162 494 c 0
 162 477 149 463 133 463 c 0xc0
152 -200 m 1xa0
 114 -200 l 1
 114 52 l 1
 128 319 l 1
 138 319 l 1
 152 52 l 1
 152 -200 l 1xa0
EndSplineSet
EndChar

StartChar: logicalnot
Encoding: 343 172 183
Width: 656
Flags: MW
HStem: 427 36<93 527 93 563>
VStem: 527 36<176 427 427 427>
LayerCount: 2
Fore
SplineSet
527 176 m 1
 527 427 l 1
 93 427 l 1
 93 463 l 1
 563 463 l 1
 563 176 l 1
 527 176 l 1
EndSplineSet
EndChar

StartChar: radical
Encoding: 344 8730 184
Width: 554
Flags: MW
HStem: 0 35<259 259 259 284 238 259> 680 20G<458 496 496 496>
VStem: 68 428<327 700>
LayerCount: 2
Fore
SplineSet
496 700 m 1
 284 0 l 1
 238 0 l 1
 68 327 l 1
 106 327 l 1
 259 35 l 1
 458 700 l 1
 496 700 l 1
EndSplineSet
EndChar

StartChar: florin
Encoding: 345 402 185
Width: 326
Flags: MW
HStem: -213 31<8 26> 478 33<51 133 51 133 169 292> 679 33<208 241.5 198 244>
VStem: 133 36<-51 -49 -49 478 511 599>
LayerCount: 2
Fore
SplineSet
26 -213 m 1
 8 -182 l 1
 93 -175 133 -140 133 -51 c 2
 133 478 l 1
 51 478 l 1
 51 511 l 1
 133 511 l 1
 133 603 l 2
 133 675 165 712 231 712 c 0
 252 712 275 705 292 696 c 1
 292 664 l 1
 274 672 257 679 231 679 c 0
 185 679 169 654 169 599 c 2
 169 511 l 1
 292 511 l 1
 292 478 l 1
 169 478 l 1
 169 -49 l 2
 169 -173 102 -205 26 -213 c 1
EndSplineSet
EndChar

StartChar: approxequal
Encoding: 346 8776 186
Width: 656
Flags: MW
HStem: 190 36<405 469 405 484.5> 284 36<187 251> 366 36<405 469 405 484.5> 460 36<187 251>
VStem: 95 37<190 222.5> 524 37<287.5 320>
LayerCount: 2
Fore
SplineSet
443 366 m 0
 349 366 291 460 211 460 c 0
 163 460 135 425 132 366 c 1
 95 366 l 1
 95 431 131 496 213 496 c 0
 307 496 365 402 445 402 c 0
 493 402 521 438 524 496 c 1
 561 496 l 1
 561 431 526 366 443 366 c 0
443 190 m 0
 349 190 291 284 211 284 c 0
 163 284 135 249 132 190 c 1
 95 190 l 1
 95 255 131 320 213 320 c 0
 307 320 365 226 445 226 c 0
 493 226 521 262 524 320 c 1
 561 320 l 1
 561 255 526 190 443 190 c 0
EndSplineSet
EndChar

StartChar: uni2206
Encoding: 347 8710 187
Width: 658
Flags: MW
HStem: 0 36<123 535 123 583> 680 20G<317 341 341 341>
VStem: 75 508<0 0>
LayerCount: 2
Fore
SplineSet
75 0 m 1
 317 700 l 1
 341 700 l 1
 583 0 l 1
 75 0 l 1
123 36 m 1
 535 36 l 1
 366 522 l 1
 329 631 l 1
 317 595 304 557 292 523 c 2
 123 36 l 1
EndSplineSet
EndChar

StartChar: guillemotleft
Encoding: 348 171 188
Width: 461
Flags: MW
HStem: 0 21G<203 203 203 245 383 425 383 383> 0 256<51 203 51 231 51 245> 491 20G<203 245 245 245 383 425 425 425>
VStem: 51 374<0 256>
LayerCount: 2
Fore
SplineSet
203 0 m 1xb0
 51 256 l 1
 203 511 l 1
 245 511 l 1
 93 256 l 1x70
 245 0 l 1
 203 0 l 1xb0
383 0 m 1
 231 256 l 1
 383 511 l 1
 425 511 l 1
 273 256 l 1
 425 0 l 1
 383 0 l 1
EndSplineSet
EndChar

StartChar: guillemotright
Encoding: 349 187 189
Width: 461
Flags: MW
HStem: 0 21G<36 36 36 78 216 258 216 216> 0 256<36 188 36 188 188 230 188 258 188 216> 491 20G<36 78 78 78 216 258 258 258>
VStem: 36 374<0 256 256 511>
LayerCount: 2
Fore
SplineSet
36 0 m 1xb0
 188 256 l 1
 36 511 l 1
 78 511 l 1
 230 256 l 1x70
 78 0 l 1
 36 0 l 1xb0
216 0 m 1
 368 256 l 1
 216 511 l 1
 258 511 l 1
 410 256 l 1
 258 0 l 1
 216 0 l 1
EndSplineSet
EndChar

StartChar: ellipsis
Encoding: 350 8230 190
Width: 816
Flags: MW
HStem: -12 60<135 151.5 399 415.5 662 678.5>
VStem: 114 58<9 25.5> 378 58<9 25.5> 641 58<9 25.5>
LayerCount: 2
Fore
SplineSet
143 -12 m 0
 127 -12 114 1 114 17 c 0
 114 34 127 48 143 48 c 0
 160 48 172 34 172 17 c 0
 172 1 160 -12 143 -12 c 0
407 -12 m 0
 391 -12 378 1 378 17 c 0
 378 34 391 48 407 48 c 0
 424 48 436 34 436 17 c 0
 436 1 424 -12 407 -12 c 0
670 -12 m 0
 654 -12 641 1 641 17 c 0
 641 34 654 48 670 48 c 0
 687 48 699 34 699 17 c 0
 699 1 687 -12 670 -12 c 0
EndSplineSet
EndChar

StartChar: Agrave
Encoding: 351 192 191
Width: 636
GlyphClass: 2
Flags: MW
HStem: 0 21G<65 104 65 65 532 571 532 532> 197 30<181 455 181 464 172 455> 680 20G<305 331 331 331>
VStem: 65 506<0 0>
AnchorPoint: "Anchor-0" 318 0 basechar 0
LayerCount: 2
Fore
SplineSet
336 765 m 1
 167 921 l 1
 222 921 l 1
 373 765 l 1
 336 765 l 1
532 0 m 1
 464 197 l 1
 172 197 l 1
 104 0 l 1
 65 0 l 1
 305 700 l 1
 331 700 l 1
 571 0 l 1
 532 0 l 1
455 227 m 1
 353 525 l 2
 348 541 325 607 318 637 c 1
 311 607 286 538 282 525 c 2
 181 227 l 1
 455 227 l 1
EndSplineSet
Position2: "'cpsp' Capital Spacing in Latin lookup 0 subtable" dx=5 dy=0 dh=10 dv=0
EndChar

StartChar: Atilde
Encoding: 352 195 192
Width: 636
GlyphClass: 2
Flags: MW
HStem: 0 21G<65 104 65 65 532 571 532 532> 197 30<181 455 181 464 172 455> 680 20G<305 331 331 331> 791 33<375.5 418.5 375.5 424.5> 872 33<214.5 257.5>
VStem: 151 27<795 827> 455 27<869 901>
AnchorPoint: "Anchor-0" 318 0 basechar 0
LayerCount: 2
Fore
SplineSet
396 791 m 0
 330 791 285 872 230 872 c 0
 199 872 180 845 178 795 c 1
 151 795 l 1
 151 859 180 905 237 905 c 0
 303 905 348 824 403 824 c 0
 434 824 453 851 455 901 c 1
 482 901 l 1
 482 837 453 791 396 791 c 0
532 0 m 1
 464 197 l 1
 172 197 l 1
 104 0 l 1
 65 0 l 1
 305 700 l 1
 331 700 l 1
 571 0 l 1
 532 0 l 1
455 227 m 1
 353 525 l 2
 348 541 325 607 318 637 c 1
 311 607 286 538 282 525 c 2
 181 227 l 1
 455 227 l 1
EndSplineSet
Position2: "'cpsp' Capital Spacing in Latin lookup 0 subtable" dx=5 dy=0 dh=10 dv=0
EndChar

StartChar: Otilde
Encoding: 353 213 193
Width: 716
GlyphClass: 2
Flags: MW
HStem: -12 36<271 445 271 458> 676 36<271 445> 791 33<415.5 458.5 415.5 464.5> 872 33<254.5 297.5>
VStem: 85 39<267 426 267 436.5> 191 27<795 827> 495 27<869 901> 592 39<274 433>
AnchorPoint: "Anchor-0" 358 0 basechar 0
LayerCount: 2
Fore
SplineSet
436 791 m 0
 370 791 325 872 270 872 c 0
 239 872 220 845 218 795 c 1
 191 795 l 1
 191 859 220 905 277 905 c 0
 343 905 388 824 443 824 c 0
 474 824 493 851 495 901 c 1
 522 901 l 1
 522 837 493 791 436 791 c 0
358 -12 m 0
 158 -12 85 177 85 350 c 0
 85 523 158 712 358 712 c 0
 558 712 631 523 631 350 c 0
 631 177 558 -12 358 -12 c 0
358 24 m 0
 532 24 592 198 592 350 c 0
 592 516 532 676 358 676 c 0
 184 676 124 502 124 350 c 0
 124 184 184 24 358 24 c 0
EndSplineSet
Position2: "'cpsp' Capital Spacing in Latin lookup 0 subtable" dx=5 dy=0 dh=10 dv=0
EndChar

StartChar: OE
Encoding: 354 338 194
Width: 915
Flags: MW
HStem: -12 36<274 390.5 274 391.5> 0 33<526 830 526 830> 346 33<526 701 526 701> 667 33<526 808 526 526> 676 36<274 385.5>
VStem: 85 38<265.5 426 265.5 438> 490 36<0 346 24 346 69 346 379 634 634 634>
LayerCount: 2
Fore
SplineSet
490 0 m 1x76
 490 24 l 1
 466 8 420 -12 363 -12 c 0
 159 -12 85 175 85 350 c 0
 85 526 160 712 363 712 c 0
 420 712 464 693 490 677 c 1xae
 490 700 l 1
 808 700 l 1
 808 667 l 1
 526 667 l 1
 526 379 l 1
 701 379 l 1
 701 346 l 1
 526 346 l 1
 526 33 l 1
 830 33 l 1
 830 0 l 1
 490 0 l 1x76
363 24 m 0
 418 24 464 47 490 69 c 1
 490 634 l 1
 456 661 408 676 363 676 c 0
 185 676 123 503 123 349 c 0
 123 182 185 24 363 24 c 0
EndSplineSet
Position2: "'cpsp' Capital Spacing in Latin lookup 0 subtable" dx=5 dy=0 dh=10 dv=0
EndChar

StartChar: oe
Encoding: 355 339 195
Width: 886
Flags: MW
HStem: -12 36<217 312.5 592 660.5> 245 33<472 785 472 823 472 785> 487 36<217 313 209.5 321.5> 490 33<595.5 668.5>
VStem: 68 39<182.5 330 182.5 339> 433 39<245 245 245 278 245 330.5> 785 38<245 278>
LayerCount: 2
Fore
SplineSet
270 -12 m 0xee
 149 -12 68 85 68 255 c 0
 68 423 149 523 270 523 c 0
 356 523 426 474 453 374 c 1
 481 474 553 523 638 523 c 0
 747 523 823 442 823 256 c 2
 823 245 l 1
 472 245 l 1
 477 91 539 24 641 24 c 0
 680 24 724 37 761 67 c 1
 782 41 l 1
 746 10 693 -12 638 -12 c 0
 546 -12 478 39 452 136 c 1
 425 38 355 -12 270 -12 c 0xee
472 278 m 1
 785 278 l 1
 784 453 699 490 638 490 c 0xde
 547 490 480 429 472 278 c 1
270 24 m 0
 371 24 433 105 433 256 c 0
 433 405 373 487 270 487 c 0xee
 164 487 107 405 107 255 c 0
 107 110 164 24 270 24 c 0
EndSplineSet
EndChar

StartChar: endash
Encoding: 356 8211 196
Width: 521
Flags: MW
HStem: 269 36<70 451 70 451>
VStem: 70 381<269 305 269 305>
LayerCount: 2
Fore
SplineSet
70 269 m 1
 70 305 l 1
 451 305 l 1
 451 269 l 1
 70 269 l 1
EndSplineSet
EndChar

StartChar: emdash
Encoding: 357 8212 197
Width: 601
Flags: MW
HStem: 269 36<8 593 8 593>
VStem: 8 585<269 305 269 305>
LayerCount: 2
Fore
SplineSet
8 269 m 1
 8 305 l 1
 593 305 l 1
 593 269 l 1
 8 269 l 1
EndSplineSet
EndChar

StartChar: quotedblleft
Encoding: 358 8220 198
Width: 378
Flags: MW
HStem: 525 60<98 107 98 109 274 283> 525 187<92 121 121 285> 689 20G<130 130 306 306>
VStem: 68 30<585 599.5> 244 30<585 599.5>
LayerCount: 2
Fore
SplineSet
101 525 m 0x58
 83 525 68 537 68 571 c 0x58
 68 628 96 687 121 712 c 1
 130 709 l 1
 104 670 98 628 98 585 c 1xb8
 116 585 130 573 130 556 c 0
 130 538 117 525 101 525 c 0x58
277 525 m 0
 259 525 244 537 244 571 c 0x58
 244 628 272 687 297 712 c 1
 306 709 l 1
 280 670 274 628 274 585 c 1xb8
 292 585 306 573 306 556 c 0
 306 538 293 525 277 525 c 0
EndSplineSet
EndChar

StartChar: quotedblright
Encoding: 359 8221 199
Width: 378
Flags: MW
HStem: 652 60<95 104 271 280>
VStem: 104 30<637.5 652> 280 30<637.5 652>
LayerCount: 2
Fore
SplineSet
72 528 m 1
 98 567 104 609 104 652 c 1
 86 652 72 664 72 681 c 0
 72 699 85 712 101 712 c 0
 119 712 134 700 134 666 c 0
 134 609 106 550 81 525 c 1
 72 528 l 1
248 528 m 1
 274 567 280 609 280 652 c 1
 262 652 248 664 248 681 c 0
 248 699 261 712 277 712 c 0
 295 712 310 700 310 666 c 0
 310 609 282 550 257 525 c 1
 248 528 l 1
EndSplineSet
EndChar

StartChar: quoteleft
Encoding: 360 8216 200
Width: 202
Flags: MW
HStem: 525 60<98 107 98 109> 689 20G<130 130> 692 20G<121 121>
VStem: 68 30<585 599.5>
LayerCount: 2
Fore
SplineSet
101 525 m 0xb0
 83 525 68 537 68 571 c 0
 68 628 96 687 121 712 c 1
 130 709 l 1xd0
 104 670 98 628 98 585 c 1
 116 585 130 573 130 556 c 0
 130 538 117 525 101 525 c 0xb0
EndSplineSet
EndChar

StartChar: quoteright
Encoding: 361 8217 201
Width: 202
Flags: MW
HStem: 652 60<95 104> 692 20G<93 110>
VStem: 104 30<637.5 652>
LayerCount: 2
Fore
SplineSet
72 528 m 1x60
 98 567 104 609 104 652 c 1xa0
 86 652 72 664 72 681 c 0
 72 699 85 712 101 712 c 0
 119 712 134 700 134 666 c 0
 134 609 106 550 81 525 c 1
 72 528 l 1x60
EndSplineSet
EndChar

StartChar: divide
Encoding: 362 247 202
Width: 656
Flags: MW
HStem: 105 60<317 333.5> 325 34<93 563 93 563> 520 60<317 333.5>
VStem: 296 58<126 142.5 541 557.5>
LayerCount: 2
Fore
SplineSet
325 520 m 0
 309 520 296 533 296 549 c 0
 296 566 309 580 325 580 c 0
 342 580 354 566 354 549 c 0
 354 533 342 520 325 520 c 0
93 325 m 1
 93 359 l 1
 563 359 l 1
 563 325 l 1
 93 325 l 1
325 105 m 0
 309 105 296 118 296 134 c 0
 296 151 309 165 325 165 c 0
 342 165 354 151 354 134 c 0
 354 118 342 105 325 105 c 0
EndSplineSet
EndChar

StartChar: lozenge
Encoding: 363 9674 203
Width: 616
Flags: MW
HStem: -12 32<291 309 309 309 309 327> 680 32<309 309>
VStem: 89 440<350 350>
LayerCount: 2
Fore
SplineSet
291 -12 m 1
 89 350 l 1
 291 712 l 1
 327 712 l 1
 529 350 l 1
 327 -12 l 1
 291 -12 l 1
309 680 m 1
 126 350 l 1
 309 20 l 1
 492 350 l 1
 309 680 l 1
EndSplineSet
EndChar

StartChar: ydieresis
Encoding: 364 255 204
Width: 510
GlyphClass: 2
Flags: MW
HStem: 491 20G<53 89 89 89 421 457 457 457> 606 60<166 182.5 332 348.5>
VStem: 145 58<627 643.5> 311 58<627 643.5>
AnchorPoint: "Anchor-0" 257 0 basechar 0
LayerCount: 2
Fore
SplineSet
174 606 m 0
 158 606 145 619 145 635 c 0
 145 652 158 666 174 666 c 0
 191 666 203 652 203 635 c 0
 203 619 191 606 174 606 c 0
340 606 m 0
 324 606 311 619 311 635 c 0
 311 652 324 666 340 666 c 0
 357 666 369 652 369 635 c 0
 369 619 357 606 340 606 c 0
161 -194 m 1
 237 12 l 1
 53 511 l 1
 89 511 l 1
 237 108 l 1
 255 57 l 1
 261 74 267 91 273 108 c 2
 421 511 l 1
 457 511 l 1
 197 -194 l 1
 161 -194 l 1
EndSplineSet
EndChar

StartChar: Ydieresis
Encoding: 365 376 205
Width: 600
GlyphClass: 2
Flags: MW
HStem: 0 21G<282 282 282 318> 680 20G<54 93 93 93 507 546 546 546> 795 60<209 225.5 375 391.5>
VStem: 188 58<816 832.5> 282 36<0 277 0 277> 354 58<816 832.5>
AnchorPoint: "Anchor-0" 300 0 basechar 0
LayerCount: 2
Fore
SplineSet
217 795 m 0
 201 795 188 808 188 824 c 0
 188 841 201 855 217 855 c 0
 234 855 246 841 246 824 c 0
 246 808 234 795 217 795 c 0
383 795 m 0
 367 795 354 808 354 824 c 0
 354 841 367 855 383 855 c 0
 400 855 412 841 412 824 c 0
 412 808 400 795 383 795 c 0
282 0 m 1
 282 277 l 1
 54 700 l 1
 93 700 l 1
 300 314 l 1
 507 700 l 1
 546 700 l 1
 318 277 l 1
 318 0 l 1
 282 0 l 1
EndSplineSet
Position2: "'cpsp' Capital Spacing in Latin lookup 0 subtable" dx=5 dy=0 dh=10 dv=0
EndChar

StartChar: fraction
Encoding: 366 8260 206
Width: 321
Flags: MW
HStem: -12 21G<-100 -100 -100 -57> 692 20G<378 421 421 421>
VStem: -100 521
LayerCount: 2
Fore
SplineSet
-100 -12 m 1
 378 712 l 1
 421 712 l 1
 -57 -12 l 1
 -100 -12 l 1
EndSplineSet
EndChar

StartChar: Euro
Encoding: 367 8364 207
Width: 586
Flags: MW
HStem: -12 36<294 388.5 294 398.5> 244 33<72 116 72 121 58 116 160 160 160 335> 409 33<72 118 58 122 161 403> 676 36<301 391.5>
VStem: 114 39<329.5 351>
LayerCount: 2
Fore
SplineSet
357 -12 m 0
 203 -12 140 113 121 244 c 1
 58 244 l 1
 72 277 l 1
 116 277 l 1
 114 298 114 319 114 340 c 0
 114 362 115 385 118 409 c 1
 58 409 l 1
 72 442 l 1
 122 442 l 1
 144 577 214 712 366 712 c 0
 420 712 473 698 513 672 c 1
 499 639 l 1
 464 661 417 676 366 676 c 0
 236 676 180 559 161 442 c 1
 417 442 l 1
 403 409 l 1
 157 409 l 1
 154 385 153 362 153 340 c 0
 153 319 154 298 156 277 c 1
 348 277 l 1
 335 244 l 1
 160 244 l 1
 177 131 231 24 357 24 c 0
 420 24 469 53 504 92 c 1
 533 72 l 1
 500 30 440 -12 357 -12 c 0
EndSplineSet
EndChar

StartChar: guilsinglleft
Encoding: 368 8249 208
Width: 281
Flags: MW
HStem: 0 21G<203 203 203 245> 491 20G<203 245 245 245>
VStem: 51 194
LayerCount: 2
Fore
SplineSet
203 0 m 1
 51 256 l 1
 203 511 l 1
 245 511 l 1
 93 256 l 1
 245 0 l 1
 203 0 l 1
EndSplineSet
EndChar

StartChar: guilsinglright
Encoding: 369 8250 209
Width: 281
Flags: MW
HStem: 0 21G<36 36 36 78> 491 20G<36 78 78 78>
VStem: 36 194
LayerCount: 2
Fore
SplineSet
36 0 m 1
 188 256 l 1
 36 511 l 1
 78 511 l 1
 230 256 l 1
 78 0 l 1
 36 0 l 1
EndSplineSet
EndChar

StartChar: fi
Encoding: 370 64257 210
Width: 557
LigCaretCntFixed: 1
Flags: MW
HStem: 0 21G<120 156 120 120 415 451 415 415> 478 33<38 120 38 120 156 279> 633 60<425 441.5> 679 33<195 228.5 185 231>
VStem: 120 36<0 478 0 478 511 599> 404 58<654 670.5> 415 36<0 511 0 511>
LayerCount: 2
Fore
SplineSet
156 478 m 1xda
 156 0 l 1
 120 0 l 1
 120 478 l 1
 38 478 l 1
 38 511 l 1
 120 511 l 1
 120 603 l 2
 120 675 152 712 218 712 c 0
 239 712 262 705 279 696 c 1
 279 664 l 1
 261 672 244 679 218 679 c 0
 172 679 156 654 156 599 c 2
 156 511 l 1
 279 511 l 1
 279 478 l 1
 156 478 l 1xda
433 633 m 0xec
 417 633 404 646 404 662 c 0
 404 679 417 693 433 693 c 0
 450 693 462 679 462 662 c 0
 462 646 450 633 433 633 c 0xec
415 0 m 1xda
 415 511 l 1
 451 511 l 1
 451 0 l 1
 415 0 l 1xda
EndSplineSet
Ligature2: "'liga' Standard Ligatures in Latin lookup 18 subtable" f i
LCarets2: 1 309
EndChar

StartChar: fl
Encoding: 371 64258 211
Width: 551
LigCaretCntFixed: 1
Flags: MW
HStem: 0 21G<120 156 120 120 412 412 412 448> 478 33<38 120 38 120 156 279> 679 33<195 228.5 185 231> 684 20G<412 412>
VStem: 120 36<0 478 0 478 511 599> 412 36<0 704 704 704>
LayerCount: 2
Fore
SplineSet
412 0 m 1xec
 412 704 l 1
 448 722 l 1xdc
 448 0 l 1
 412 0 l 1xec
156 478 m 1
 156 0 l 1
 120 0 l 1
 120 478 l 1
 38 478 l 1
 38 511 l 1
 120 511 l 1
 120 603 l 2
 120 675 152 712 218 712 c 0
 239 712 262 705 279 696 c 1
 279 664 l 1
 261 672 244 679 218 679 c 0
 172 679 156 654 156 599 c 2xec
 156 511 l 1
 279 511 l 1
 279 478 l 1
 156 478 l 1
EndSplineSet
Ligature2: "'liga' Standard Ligatures in Latin lookup 18 subtable" f l
LCarets2: 1 309
EndChar

StartChar: daggerdbl
Encoding: 372 8225 212
Width: 556
Flags: MW
HStem: 82 34<93 128 93 128 428 463> 455 34<93 128 93 128 428 463> 692 20G<260 296 296 296>
VStem: 260 36<-141 -16 -141 -16 233 338 587 712>
LayerCount: 2
Fore
SplineSet
463 82 m 1
 428 82 l 1
 288 91 l 1
 296 -16 l 1
 296 -141 l 1
 260 -141 l 1
 260 -16 l 1
 268 91 l 1
 128 82 l 1
 93 82 l 1
 93 116 l 1
 128 116 l 1
 268 107 l 1
 260 233 l 1
 260 338 l 1
 268 464 l 1
 128 455 l 1
 93 455 l 1
 93 489 l 1
 128 489 l 1
 268 480 l 1
 260 587 l 1
 260 712 l 1
 296 712 l 1
 296 587 l 1
 288 480 l 1
 428 489 l 1
 463 489 l 1
 463 455 l 1
 428 455 l 1
 288 464 l 1
 296 338 l 1
 296 233 l 1
 288 107 l 1
 428 116 l 1
 463 116 l 1
 463 82 l 1
EndSplineSet
EndChar

StartChar: periodcentered
Encoding: 373 183 213
Width: 202
Flags: MW
HStem: 320 60<93 109.5>
VStem: 72 58<341 357.5>
LayerCount: 2
Fore
SplineSet
101 320 m 0
 85 320 72 333 72 349 c 0
 72 366 85 380 101 380 c 0
 118 380 130 366 130 349 c 0
 130 333 118 320 101 320 c 0
EndSplineSet
EndChar

StartChar: quotesinglbase
Encoding: 374 8218 214
Width: 202
Flags: MW
HStem: -141 187<81 110> -14 60<95 104>
VStem: 104 30<-28.5 -14>
LayerCount: 2
Fore
SplineSet
72 -138 m 1xa0
 98 -99 104 -57 104 -14 c 1
 86 -14 72 -2 72 15 c 0
 72 33 85 46 101 46 c 0
 119 46 134 34 134 0 c 0x60
 134 -57 106 -116 81 -141 c 1
 72 -138 l 1xa0
EndSplineSet
EndChar

StartChar: quotedblbase
Encoding: 375 8222 215
Width: 378
Flags: MW
HStem: -14 60<95 104 271 280>
VStem: 104 30<-28.5 -14> 280 30<-28.5 -14>
LayerCount: 2
Fore
SplineSet
72 -138 m 1
 98 -99 104 -57 104 -14 c 1
 86 -14 72 -2 72 15 c 0
 72 33 85 46 101 46 c 0
 119 46 134 34 134 0 c 0
 134 -57 106 -116 81 -141 c 1
 72 -138 l 1
248 -138 m 1
 274 -99 280 -57 280 -14 c 1
 262 -14 248 -2 248 15 c 0
 248 33 261 46 277 46 c 0
 295 46 310 34 310 0 c 0
 310 -57 282 -116 257 -141 c 1
 248 -138 l 1
EndSplineSet
EndChar

StartChar: perthousand
Encoding: 376 8240 216
Width: 1267
Flags: MW
HStem: -12 36<623.5 706.5 623.5 720.5 1015.5 1098.5> 308 36<622.5 707.5 1014.5 1099.5> 356 36<178.5 261.5 178.5 275.5> 676 36<177.5 262.5>
VStem: 68 38<500 564.5 500 572.5> 334 38<500 564.5> 513 38<132 196.5 132 204.5> 779 38<132 196.5> 905 38<132 196.5 132 204.5> 1171 38<132 196.5>
LayerCount: 2
Fore
SplineSet
220 356 m 0
 109 356 68 449 68 534 c 0
 68 611 106 712 220 712 c 0
 334 712 372 611 372 534 c 0
 372 449 331 356 220 356 c 0
225 -12 m 1
 182 -12 l 1
 660 712 l 1
 703 712 l 1
 225 -12 l 1
220 392 m 0
 303 392 334 466 334 534 c 0
 334 595 305 676 220 676 c 0
 135 676 106 595 106 534 c 0
 106 466 137 392 220 392 c 0
665 -12 m 0
 554 -12 513 81 513 166 c 0
 513 243 551 344 665 344 c 0x43
 779 344 817 243 817 166 c 0
 817 81 776 -12 665 -12 c 0
1057 -12 m 0xc3c0
 946 -12 905 81 905 166 c 0
 905 243 943 344 1057 344 c 0
 1171 344 1209 243 1209 166 c 0
 1209 81 1168 -12 1057 -12 c 0xc3c0
665 24 m 0
 748 24 779 98 779 166 c 0
 779 227 750 308 665 308 c 0
 580 308 551 227 551 166 c 0
 551 98 582 24 665 24 c 0
1057 24 m 0
 1140 24 1171 98 1171 166 c 0
 1171 227 1142 308 1057 308 c 0
 972 308 943 227 943 166 c 0
 943 98 974 24 1057 24 c 0
EndSplineSet
EndChar

StartChar: Acircumflex
Encoding: 377 194 217
Width: 636
GlyphClass: 2
Flags: MW
HStem: 0 21G<65 104 65 65 532 571 532 532> 197 30<181 455 181 464 172 455> 680 20G<305 331 331 331> 885 36<317 317>
VStem: 65 506<0 0>
AnchorPoint: "Anchor-0" 318 0 basechar 0
LayerCount: 2
Fore
SplineSet
447 765 m 1
 317 885 l 1
 187 765 l 1
 150 765 l 1
 301 921 l 1
 333 921 l 1
 484 765 l 1
 447 765 l 1
532 0 m 1
 464 197 l 1
 172 197 l 1
 104 0 l 1
 65 0 l 1
 305 700 l 1
 331 700 l 1
 571 0 l 1
 532 0 l 1
455 227 m 1
 353 525 l 2
 348 541 325 607 318 637 c 1
 311 607 286 538 282 525 c 2
 181 227 l 1
 455 227 l 1
EndSplineSet
Position2: "'cpsp' Capital Spacing in Latin lookup 0 subtable" dx=5 dy=0 dh=10 dv=0
EndChar

StartChar: Ecircumflex
Encoding: 378 202 218
Width: 582
GlyphClass: 2
Flags: MW
HStem: 0 33<146 497 146 497> 346 33<146 368 146 368> 667 33<146 475 146 146> 885 36<291 291>
VStem: 110 36<33 346 379 667>
AnchorPoint: "Anchor-0" 291 0 basechar 0
LayerCount: 2
Fore
SplineSet
421 765 m 1
 291 885 l 1
 161 765 l 1
 124 765 l 1
 275 921 l 1
 307 921 l 1
 458 765 l 1
 421 765 l 1
110 0 m 1
 110 700 l 1
 475 700 l 1
 475 667 l 1
 146 667 l 1
 146 379 l 1
 368 379 l 1
 368 346 l 1
 146 346 l 1
 146 33 l 1
 497 33 l 1
 497 0 l 1
 110 0 l 1
EndSplineSet
Position2: "'cpsp' Capital Spacing in Latin lookup 0 subtable" dx=5 dy=0 dh=10 dv=0
EndChar

StartChar: Aacute
Encoding: 379 193 219
Width: 636
GlyphClass: 2
Flags: MW
HStem: 0 21G<65 104 65 65 532 571 532 532> 197 30<181 455 181 464 172 455> 680 20G<305 331 331 331>
VStem: 65 506<0 0>
AnchorPoint: "Anchor-0" 318 0 basechar 0
LayerCount: 2
Fore
SplineSet
257 765 m 1
 408 921 l 1
 463 921 l 1
 294 765 l 1
 257 765 l 1
532 0 m 1
 464 197 l 1
 172 197 l 1
 104 0 l 1
 65 0 l 1
 305 700 l 1
 331 700 l 1
 571 0 l 1
 532 0 l 1
455 227 m 1
 353 525 l 2
 348 541 325 607 318 637 c 1
 311 607 286 538 282 525 c 2
 181 227 l 1
 455 227 l 1
EndSplineSet
Position2: "'cpsp' Capital Spacing in Latin lookup 0 subtable" dx=5 dy=0 dh=10 dv=0
EndChar

StartChar: Edieresis
Encoding: 380 203 220
Width: 582
GlyphClass: 2
Flags: MW
HStem: 0 33<146 497 146 497> 346 33<146 368 146 368> 667 33<146 475 146 146> 795 60<205 221.5 371 387.5>
VStem: 110 36<33 346 379 667> 184 58<816 832.5> 350 58<816 832.5>
AnchorPoint: "Anchor-0" 291 0 basechar 0
LayerCount: 2
Fore
SplineSet
213 795 m 0
 197 795 184 808 184 824 c 0
 184 841 197 855 213 855 c 0
 230 855 242 841 242 824 c 0
 242 808 230 795 213 795 c 0
379 795 m 0
 363 795 350 808 350 824 c 0
 350 841 363 855 379 855 c 0
 396 855 408 841 408 824 c 0
 408 808 396 795 379 795 c 0
110 0 m 1
 110 700 l 1
 475 700 l 1
 475 667 l 1
 146 667 l 1
 146 379 l 1
 368 379 l 1
 368 346 l 1
 146 346 l 1
 146 33 l 1
 497 33 l 1
 497 0 l 1
 110 0 l 1
EndSplineSet
Position2: "'cpsp' Capital Spacing in Latin lookup 0 subtable" dx=5 dy=0 dh=10 dv=0
EndChar

StartChar: Egrave
Encoding: 381 200 221
Width: 582
GlyphClass: 2
Flags: MW
HStem: 0 33<146 497 146 497> 346 33<146 368 146 368> 667 33<146 475 146 146>
VStem: 110 36<33 346 379 667>
AnchorPoint: "Anchor-0" 291 0 basechar 0
LayerCount: 2
Fore
SplineSet
302 765 m 1
 133 921 l 1
 188 921 l 1
 339 765 l 1
 302 765 l 1
110 0 m 1
 110 700 l 1
 475 700 l 1
 475 667 l 1
 146 667 l 1
 146 379 l 1
 368 379 l 1
 368 346 l 1
 146 346 l 1
 146 33 l 1
 497 33 l 1
 497 0 l 1
 110 0 l 1
EndSplineSet
Position2: "'cpsp' Capital Spacing in Latin lookup 0 subtable" dx=5 dy=0 dh=10 dv=0
EndChar

StartChar: Iacute
Encoding: 382 205 222
Width: 256
GlyphClass: 2
Flags: MW
HStem: 0 21G<110 110 110 146> 680 20G<110 146 146 146>
VStem: 110 36<0 700 0 700>
AnchorPoint: "Anchor-0" 128 0 basechar 0
LayerCount: 2
Fore
SplineSet
67 765 m 1
 218 921 l 1
 273 921 l 1
 104 765 l 1
 67 765 l 1
110 0 m 1
 110 700 l 1
 146 700 l 1
 146 0 l 1
 110 0 l 1
EndSplineSet
Position2: "'cpsp' Capital Spacing in Latin lookup 0 subtable" dx=5 dy=0 dh=10 dv=0
EndChar

StartChar: Icircumflex
Encoding: 383 206 223
Width: 256
GlyphClass: 2
Flags: MW
HStem: 0 21G<110 110 110 146> 680 20G<110 146 146 146> 885 36<127 127>
VStem: 110 36<0 700 0 700>
AnchorPoint: "Anchor-0" 128 0 basechar 0
LayerCount: 2
Fore
SplineSet
257 765 m 1
 127 885 l 1
 -3 765 l 1
 -40 765 l 1
 111 921 l 1
 143 921 l 1
 294 765 l 1
 257 765 l 1
110 0 m 1
 110 700 l 1
 146 700 l 1
 146 0 l 1
 110 0 l 1
EndSplineSet
Position2: "'cpsp' Capital Spacing in Latin lookup 0 subtable" dx=5 dy=0 dh=10 dv=0
EndChar

StartChar: Idieresis
Encoding: 384 207 224
Width: 256
GlyphClass: 2
Flags: MW
HStem: 0 21G<110 110 110 146> 680 20G<110 146 146 146> 795 60<37 53.5 203 219.5>
VStem: 16 58<816 832.5> 110 36<0 700 0 700> 182 58<816 832.5>
AnchorPoint: "Anchor-0" 128 0 basechar 0
LayerCount: 2
Fore
SplineSet
45 795 m 0
 29 795 16 808 16 824 c 0
 16 841 29 855 45 855 c 0
 62 855 74 841 74 824 c 0
 74 808 62 795 45 795 c 0
211 795 m 0
 195 795 182 808 182 824 c 0
 182 841 195 855 211 855 c 0
 228 855 240 841 240 824 c 0
 240 808 228 795 211 795 c 0
110 0 m 1
 110 700 l 1
 146 700 l 1
 146 0 l 1
 110 0 l 1
EndSplineSet
Position2: "'cpsp' Capital Spacing in Latin lookup 0 subtable" dx=5 dy=0 dh=10 dv=0
EndChar

StartChar: Igrave
Encoding: 385 204 225
Width: 256
GlyphClass: 2
Flags: MW
HStem: 0 21G<110 110 110 146> 680 20G<110 146 146 146>
VStem: 110 36<0 700 0 700>
AnchorPoint: "Anchor-0" 128 0 basechar 0
LayerCount: 2
Fore
SplineSet
146 765 m 1
 -23 921 l 1
 32 921 l 1
 183 765 l 1
 146 765 l 1
110 0 m 1
 110 700 l 1
 146 700 l 1
 146 0 l 1
 110 0 l 1
EndSplineSet
Position2: "'cpsp' Capital Spacing in Latin lookup 0 subtable" dx=5 dy=0 dh=10 dv=0
EndChar

StartChar: Oacute
Encoding: 386 211 226
Width: 716
GlyphClass: 2
Flags: MW
HStem: -12 36<271 445 271 458> 676 36<271 445>
VStem: 85 39<267 426 267 436.5> 592 39<274 433>
AnchorPoint: "Anchor-0" 358 0 basechar 0
LayerCount: 2
Fore
SplineSet
297 765 m 1
 448 921 l 1
 503 921 l 1
 334 765 l 1
 297 765 l 1
358 -12 m 0
 158 -12 85 177 85 350 c 0
 85 523 158 712 358 712 c 0
 558 712 631 523 631 350 c 0
 631 177 558 -12 358 -12 c 0
358 24 m 0
 532 24 592 198 592 350 c 0
 592 516 532 676 358 676 c 0
 184 676 124 502 124 350 c 0
 124 184 184 24 358 24 c 0
EndSplineSet
Position2: "'cpsp' Capital Spacing in Latin lookup 0 subtable" dx=5 dy=0 dh=10 dv=0
EndChar

StartChar: Ocircumflex
Encoding: 387 212 227
Width: 716
GlyphClass: 2
Flags: MW
HStem: -12 36<271 445 271 458> 676 36<271 445> 885 36<357 357>
VStem: 85 39<267 426 267 436.5> 592 39<274 433>
AnchorPoint: "Anchor-0" 358 0 basechar 0
LayerCount: 2
Fore
SplineSet
487 765 m 1
 357 885 l 1
 227 765 l 1
 190 765 l 1
 341 921 l 1
 373 921 l 1
 524 765 l 1
 487 765 l 1
358 -12 m 0
 158 -12 85 177 85 350 c 0
 85 523 158 712 358 712 c 0
 558 712 631 523 631 350 c 0
 631 177 558 -12 358 -12 c 0
358 24 m 0
 532 24 592 198 592 350 c 0
 592 516 532 676 358 676 c 0
 184 676 124 502 124 350 c 0
 124 184 184 24 358 24 c 0
EndSplineSet
Position2: "'cpsp' Capital Spacing in Latin lookup 0 subtable" dx=5 dy=0 dh=10 dv=0
EndChar

StartChar: Ograve
Encoding: 388 210 228
Width: 716
GlyphClass: 2
Flags: MW
HStem: -12 36<271 445 271 458> 676 36<271 445>
VStem: 85 39<267 426 267 436.5> 592 39<274 433>
AnchorPoint: "Anchor-0" 358 0 basechar 0
LayerCount: 2
Fore
SplineSet
398 766 m 1
 229 922 l 1
 284 922 l 1
 435 766 l 1
 398 766 l 1
358 -12 m 0
 158 -12 85 177 85 350 c 0
 85 523 158 712 358 712 c 0
 558 712 631 523 631 350 c 0
 631 177 558 -12 358 -12 c 0
358 24 m 0
 532 24 592 198 592 350 c 0
 592 516 532 676 358 676 c 0
 184 676 124 502 124 350 c 0
 124 184 184 24 358 24 c 0
EndSplineSet
Position2: "'cpsp' Capital Spacing in Latin lookup 0 subtable" dx=5 dy=0 dh=10 dv=0
EndChar

StartChar: Uacute
Encoding: 389 218 229
Width: 658
GlyphClass: 2
Flags: MW
HStem: -12 34<279.5 378.5 279.5 398.5> 680 20G<106 142 142 142 516 552 552 552>
VStem: 106 36<249 251 251 700> 516 36<251 700>
AnchorPoint: "Anchor-0" 329 0 basechar 0
LayerCount: 2
Fore
SplineSet
268 765 m 1
 419 921 l 1
 474 921 l 1
 305 765 l 1
 268 765 l 1
329 -12 m 0
 190 -12 106 62 106 249 c 2
 106 700 l 1
 142 700 l 1
 142 251 l 2
 142 67 230 22 329 22 c 0
 428 22 516 67 516 251 c 2
 516 700 l 1
 552 700 l 1
 552 249 l 2
 552 62 468 -12 329 -12 c 0
EndSplineSet
Position2: "'cpsp' Capital Spacing in Latin lookup 0 subtable" dx=5 dy=0 dh=10 dv=0
EndChar

StartChar: Ucircumflex
Encoding: 390 219 230
Width: 658
GlyphClass: 2
Flags: MW
HStem: -12 34<279.5 378.5 279.5 398.5> 680 20G<106 142 142 142 516 552 552 552> 885 36<328 328>
VStem: 106 36<249 251 251 700> 516 36<251 700>
AnchorPoint: "Anchor-0" 329 0 basechar 0
LayerCount: 2
Fore
SplineSet
458 765 m 1
 328 885 l 1
 198 765 l 1
 161 765 l 1
 312 921 l 1
 344 921 l 1
 495 765 l 1
 458 765 l 1
329 -12 m 0
 190 -12 106 62 106 249 c 2
 106 700 l 1
 142 700 l 1
 142 251 l 2
 142 67 230 22 329 22 c 0
 428 22 516 67 516 251 c 2
 516 700 l 1
 552 700 l 1
 552 249 l 2
 552 62 468 -12 329 -12 c 0
EndSplineSet
Position2: "'cpsp' Capital Spacing in Latin lookup 0 subtable" dx=5 dy=0 dh=10 dv=0
EndChar

StartChar: Ugrave
Encoding: 391 217 231
Width: 658
GlyphClass: 2
Flags: MW
HStem: -12 34<279.5 378.5 279.5 398.5> 680 20G<106 142 142 142 516 552 552 552>
VStem: 106 36<249 251 251 700> 516 36<251 700>
AnchorPoint: "Anchor-0" 329 0 basechar 0
LayerCount: 2
Fore
SplineSet
347 765 m 1
 178 921 l 1
 233 921 l 1
 384 765 l 1
 347 765 l 1
329 -12 m 0
 190 -12 106 62 106 249 c 2
 106 700 l 1
 142 700 l 1
 142 251 l 2
 142 67 230 22 329 22 c 0
 428 22 516 67 516 251 c 2
 516 700 l 1
 552 700 l 1
 552 249 l 2
 552 62 468 -12 329 -12 c 0
EndSplineSet
Position2: "'cpsp' Capital Spacing in Latin lookup 0 subtable" dx=5 dy=0 dh=10 dv=0
EndChar

StartChar: dotlessi
Encoding: 392 305 232
Width: 248
GlyphClass: 2
Flags: MW
HStem: 0 21G<106 106 106 142> 491 20G<106 142 142 142>
VStem: 106 36<0 511 0 511>
AnchorPoint: "Anchor-0" 124 0 basechar 0
LayerCount: 2
Fore
SplineSet
106 0 m 1
 106 511 l 1
 142 511 l 1
 142 0 l 1
 106 0 l 1
EndSplineSet
EndChar

StartChar: circumflex
Encoding: 393 710 233
Width: 331
Flags: MW
HStem: 696 36<165 165>
VStem: -2 334<576 576>
LayerCount: 2
Fore
SplineSet
295 576 m 1
 165 696 l 1
 35 576 l 1
 -2 576 l 1
 149 732 l 1
 181 732 l 1
 332 576 l 1
 295 576 l 1
EndSplineSet
EndChar

StartChar: tilde
Encoding: 394 732 234
Width: 331
Flags: MW
HStem: 602 33<224.5 267.5 224.5 273.5> 683 33<63.5 106.5> 692 20G<304 331 331 331>
VStem: 0 27<606 638> 304 27<680 712>
LayerCount: 2
Fore
SplineSet
245 602 m 0xd8
 179 602 134 683 79 683 c 0
 48 683 29 656 27 606 c 1
 0 606 l 1
 0 670 29 716 86 716 c 0xd8
 152 716 197 635 252 635 c 0
 283 635 302 662 304 712 c 1
 331 712 l 1xb8
 331 648 302 602 245 602 c 0xd8
EndSplineSet
EndChar

StartChar: macron
Encoding: 395 175 235
Width: 331
Flags: MW
HStem: 623 33<0 330 0 330>
VStem: 0 330<623 656 623 656>
LayerCount: 2
Fore
SplineSet
0 623 m 1
 0 656 l 1
 330 656 l 1
 330 623 l 1
 0 623 l 1
EndSplineSet
EndChar

StartChar: breve
Encoding: 396 728 236
Width: 331
Flags: MW
HStem: 581 33<128 202.5 128 224>
VStem: -4 34<699 742 699 742> 300 34<699 742>
LayerCount: 2
Fore
SplineSet
165 581 m 0
 48 581 -4 653 -4 742 c 1
 30 742 l 1
 30 656 91 614 165 614 c 0
 240 614 300 656 300 742 c 1
 334 742 l 1
 334 653 283 581 165 581 c 0
EndSplineSet
EndChar

StartChar: dotaccent
Encoding: 397 729 237
Width: 331
Flags: MW
HStem: 606 60<157 173.5>
VStem: 136 58<627 643.5>
LayerCount: 2
Fore
SplineSet
165 606 m 0
 149 606 136 619 136 635 c 0
 136 652 149 666 165 666 c 0
 182 666 194 652 194 635 c 0
 194 619 182 606 165 606 c 0
EndSplineSet
EndChar

StartChar: ring
Encoding: 398 730 238
Width: 331
Flags: MW
HStem: 540 31<144.5 188.5 144.5 198.5> 734 31<144.5 188.5>
VStem: 52 34<629 675.5 629 683> 248 34<629 675.5>
LayerCount: 2
Fore
SplineSet
167 540 m 0
 104 540 52 590 52 652 c 0
 52 714 104 765 167 765 c 0
 230 765 282 714 282 652 c 0
 282 590 230 540 167 540 c 0
166 571 m 0
 211 571 248 606 248 652 c 0
 248 699 211 734 166 734 c 0
 123 734 86 699 86 652 c 0
 86 606 123 571 166 571 c 0
EndSplineSet
EndChar

StartChar: cedilla
Encoding: 399 184 239
Width: 331
Flags: MW
HStem: -234 29<159.5 190.5 159.5 201.5> -84 25<170 188>
VStem: 234 34<-161.5 -126.5>
LayerCount: 2
Fore
SplineSet
171 -234 m 0
 140 -234 116 -223 100 -206 c 1
 125 -188 l 1
 135 -196 149 -205 170 -205 c 0
 211 -205 234 -179 234 -144 c 0
 234 -109 207 -84 169 -84 c 0
 156 -84 143 -86 131 -92 c 1
 121 -80 l 1
 186 10 l 1
 210 10 l 1
 170 -59 l 1
 238 -59 268 -102 268 -143 c 0
 268 -194 232 -234 171 -234 c 0
EndSplineSet
EndChar

StartChar: hungarumlaut
Encoding: 400 733 240
Width: 331
Flags: MW
HStem: 576 156<42 248 42 248 240 240 240 248 193 277>
VStem: 42 404<576 732>
LayerCount: 2
Fore
SplineSet
79 576 m 1
 42 576 l 1
 193 732 l 1
 248 732 l 1
 79 576 l 1
277 576 m 1
 240 576 l 1
 391 732 l 1
 446 732 l 1
 277 576 l 1
EndSplineSet
EndChar

StartChar: ogonek
Encoding: 401 731 241
Width: 331
Flags: MW
HStem: -234 29<155 187 155 191>
VStem: 74 34<-161 -105.5 -161 -105>
LayerCount: 2
Fore
SplineSet
170 -234 m 0
 119 -234 74 -204 74 -136 c 0
 74 -74 129 -17 210 10 c 1
 242 10 l 1
 152 -27 108 -75 108 -136 c 0
 108 -186 140 -205 170 -205 c 0
 204 -205 223 -185 234 -173 c 1
 258 -190 l 1
 240 -212 212 -234 170 -234 c 0
EndSplineSet
EndChar

StartChar: caron
Encoding: 402 711 242
Width: 331
Flags: MW
HStem: 576 36<167 167 167 183 151 167>
VStem: 0 334<732 732>
LayerCount: 2
Fore
SplineSet
183 576 m 1
 151 576 l 1
 0 732 l 1
 37 732 l 1
 167 612 l 1
 297 732 l 1
 334 732 l 1
 183 576 l 1
EndSplineSet
EndChar

StartChar: currency
Encoding: 403 164 243
Width: 631
Flags: MW
HStem: 101 37<287.5 342.5> 492 20G<164 164 466 466> 528 37<287.5 342.5 287.5 370>
VStem: 95 39<304.5 361.5> 496 39<304.5 361.5 304.5 390>
LayerCount: 2
Fore
SplineSet
315 101 m 0
 260 101 208 119 164 154 c 1
 94 83 l 1
 65 111 l 1
 137 182 l 1
 108 226 95 276 95 333 c 0
 95 390 108 440 137 484 c 1
 65 555 l 1
 94 583 l 1
 164 512 l 1
 208 547 260 565 315 565 c 0xf8
 370 565 422 547 466 512 c 1
 536 583 l 1
 565 555 l 1
 493 484 l 1
 522 440 535 390 535 333 c 0
 535 276 522 226 493 182 c 1
 565 111 l 1
 536 83 l 1
 466 154 l 1
 422 119 370 101 315 101 c 0
315 138 m 0
 425 138 496 219 496 333 c 0
 496 447 425 528 315 528 c 0xf8
 205 528 134 447 134 333 c 0
 134 219 205 138 315 138 c 0
EndSplineSet
EndChar

StartChar: uni00AD
Encoding: 173 173 244
Width: 399
Flags: MW
HStem: 280 36<88 311 88 311>
VStem: 88 223<280 316 280 316>
LayerCount: 2
Fore
SplineSet
88 280 m 1
 88 316 l 1
 311 316 l 1
 311 280 l 1
 88 280 l 1
EndSplineSet
EndChar

StartChar: Amacron
Encoding: 404 256 245
Width: 636
GlyphClass: 2
Flags: MW
HStem: 0 21G<65 104 65 65 532 571 532 532> 197 30<181 455 181 464 172 455> 680 20G<305 331 331 331> 812 33<151 481 151 481>
VStem: 65 506<0 0>
AnchorPoint: "Anchor-0" 318 0 basechar 0
LayerCount: 2
Fore
SplineSet
151 812 m 1
 151 845 l 1
 481 845 l 1
 481 812 l 1
 151 812 l 1
532 0 m 1
 464 197 l 1
 172 197 l 1
 104 0 l 1
 65 0 l 1
 305 700 l 1
 331 700 l 1
 571 0 l 1
 532 0 l 1
455 227 m 1
 353 525 l 2
 348 541 325 607 318 637 c 1
 311 607 286 538 282 525 c 2
 181 227 l 1
 455 227 l 1
EndSplineSet
Position2: "'cpsp' Capital Spacing in Latin lookup 0 subtable" dx=5 dy=0 dh=10 dv=0
EndChar

StartChar: amacron
Encoding: 405 257 246
Width: 517
GlyphClass: 2
Flags: MW
HStem: -12 33<198 267> 0 21G 283 33<213 275 200 277> 490 33<245 305.5> 623 33<107 437 107 437>
VStem: 73 39<114 198 114 209.5> 398 36<0 80 80 80 122 233 233 233 267 343 343 358 0 403.5>
AnchorPoint: "Anchor-0" 238 0 basechar 0
LayerCount: 2
Fore
SplineSet
107 623 m 1xbe
 107 656 l 1
 437 656 l 1
 437 623 l 1
 107 623 l 1xbe
398 0 m 1x7e
 398 80 l 1
 358 24 298 -12 236 -12 c 0xbe
 136 -12 73 47 73 154 c 0
 73 265 152 316 248 316 c 0
 302 316 352 297 398 267 c 1
 398 343 l 2
 398 464 338 490 273 490 c 0
 217 490 159 465 119 441 c 1
 108 472 l 1
 146 494 206 523 276 523 c 0
 347 523 434 493 434 358 c 2
 434 0 l 1
 398 0 l 1x7e
236 21 m 0
 312 21 363 74 398 122 c 1
 398 233 l 1
 359 259 306 283 248 283 c 0
 178 283 112 242 112 154 c 0
 112 74 160 21 236 21 c 0
EndSplineSet
EndChar

StartChar: Abreve
Encoding: 406 258 247
Width: 636
GlyphClass: 2
Flags: MW
HStem: 0 21G<65 104 65 65 532 571 532 532> 197 30<181 455 181 464 172 455> 680 20G<305 331 331 331> 770 33<279 353.5 279 375>
VStem: 147 34<888 931> 451 34<888 931>
AnchorPoint: "Anchor-0" 318 0 basechar 0
LayerCount: 2
Fore
SplineSet
316 770 m 0
 199 770 147 842 147 931 c 1
 181 931 l 1
 181 845 242 803 316 803 c 0
 391 803 451 845 451 931 c 1
 485 931 l 1
 485 842 434 770 316 770 c 0
532 0 m 1
 464 197 l 1
 172 197 l 1
 104 0 l 1
 65 0 l 1
 305 700 l 1
 331 700 l 1
 571 0 l 1
 532 0 l 1
455 227 m 1
 353 525 l 2
 348 541 325 607 318 637 c 1
 311 607 286 538 282 525 c 2
 181 227 l 1
 455 227 l 1
EndSplineSet
Position2: "'cpsp' Capital Spacing in Latin lookup 0 subtable" dx=5 dy=0 dh=10 dv=0
EndChar

StartChar: abreve
Encoding: 407 259 248
Width: 517
GlyphClass: 2
Flags: MW
HStem: -12 33<198 267> 0 21G 283 33<213 275 200 277> 490 33<245 305.5> 581 33<235 309.5 235 331>
VStem: 73 39<114 198 114 209.5> 103 34<699 742 699 742> 398 36<0 80 80 80 122 233 233 233 267 343 343 358 0 403.5> 407 34<699 742>
AnchorPoint: "Anchor-0" 238 0 basechar 0
LayerCount: 2
Fore
SplineSet
272 581 m 0xba80
 155 581 103 653 103 742 c 1
 137 742 l 1
 137 656 198 614 272 614 c 0
 347 614 407 656 407 742 c 1
 441 742 l 1
 441 653 390 581 272 581 c 0xba80
398 0 m 1x7d
 398 80 l 1
 358 24 298 -12 236 -12 c 0xbd
 136 -12 73 47 73 154 c 0
 73 265 152 316 248 316 c 0
 302 316 352 297 398 267 c 1
 398 343 l 2
 398 464 338 490 273 490 c 0
 217 490 159 465 119 441 c 1
 108 472 l 1
 146 494 206 523 276 523 c 0
 347 523 434 493 434 358 c 2
 434 0 l 1
 398 0 l 1x7d
236 21 m 0
 312 21 363 74 398 122 c 1
 398 233 l 1
 359 259 306 283 248 283 c 0
 178 283 112 242 112 154 c 0
 112 74 160 21 236 21 c 0
EndSplineSet
EndChar

StartChar: Aogonek
Encoding: 408 260 249
Width: 636
Flags: MW
HStem: -234 29<486 518 486 522> 0 21G<65 104 65 65 571 571> 197 30<181 455 181 464 172 455> 680 20G<305 331 331 331>
VStem: 405 34<-161 -108 -161 -107>
LayerCount: 2
Fore
SplineSet
501 -234 m 0
 450 -234 405 -204 405 -136 c 0
 405 -78 448 -28 532 1 c 1
 464 197 l 1
 172 197 l 1
 104 0 l 1
 65 0 l 1
 305 700 l 1
 331 700 l 1
 571 0 l 1
 476 -31 439 -80 439 -136 c 0
 439 -186 471 -205 501 -205 c 0
 535 -205 554 -185 565 -173 c 1
 589 -190 l 1
 571 -212 543 -234 501 -234 c 0
181 227 m 1
 455 227 l 1
 353 526 l 2
 348 542 325 607 318 637 c 1
 311 607 286 539 282 526 c 2
 181 227 l 1
EndSplineSet
Position2: "'cpsp' Capital Spacing in Latin lookup 0 subtable" dx=5 dy=0 dh=10 dv=0
EndChar

StartChar: aogonek
Encoding: 409 261 250
Width: 517
Flags: MW
HStem: -234 29<349 381 349 385> -12 33<198 267> 0 21G 283 33<213 275 200 277> 490 33<245 305.5>
VStem: 73 39<114 198 114 209.5> 268 34<-161 -106.5> 398 36<4 80 80 80 122 233 233 233 267 343 343 358 0 403.5>
LayerCount: 2
Fore
SplineSet
364 -234 m 0xdf
 313 -234 268 -204 268 -136 c 0
 268 -77 317 -23 398 4 c 1
 398 80 l 1
 358 24 298 -12 236 -12 c 0xdf
 136 -12 73 47 73 154 c 0
 73 265 152 316 248 316 c 0
 302 316 352 297 398 267 c 1
 398 343 l 2
 398 464 338 490 273 490 c 0
 217 490 159 465 119 441 c 1
 108 472 l 1
 146 494 206 523 276 523 c 0
 347 523 434 493 434 358 c 2
 434 0 l 1xbf
 348 -30 302 -75 302 -136 c 0
 302 -186 334 -205 364 -205 c 0
 398 -205 417 -185 428 -173 c 1
 452 -190 l 1
 434 -212 406 -234 364 -234 c 0xdf
236 21 m 0
 312 21 363 74 398 122 c 1
 398 233 l 1
 359 259 306 283 248 283 c 0
 178 283 112 242 112 154 c 0
 112 74 160 21 236 21 c 0
EndSplineSet
EndChar

StartChar: uni01CD
Encoding: 410 461 251
Width: 636
GlyphClass: 2
Flags: MW
HStem: 0 21G<65 104 65 65 532 571 532 532> 197 30<181 455 181 464 172 455> 680 20G<305 331 331 331> 765 36<318 318 318 334 302 318>
VStem: 65 506<0 0>
AnchorPoint: "Anchor-0" 318 0 basechar 0
LayerCount: 2
Fore
SplineSet
334 765 m 1
 302 765 l 1
 151 921 l 1
 188 921 l 1
 318 801 l 1
 448 921 l 1
 485 921 l 1
 334 765 l 1
532 0 m 1
 464 197 l 1
 172 197 l 1
 104 0 l 1
 65 0 l 1
 305 700 l 1
 331 700 l 1
 571 0 l 1
 532 0 l 1
455 227 m 1
 353 525 l 2
 348 541 325 607 318 637 c 1
 311 607 286 538 282 525 c 2
 181 227 l 1
 455 227 l 1
EndSplineSet
Position2: "'cpsp' Capital Spacing in Latin lookup 0 subtable" dx=5 dy=0 dh=10 dv=0
EndChar

StartChar: uni01CE
Encoding: 411 462 252
Width: 517
GlyphClass: 2
Flags: MW
HStem: -12 33<198 267> 0 21G 283 33<213 275 200 277> 490 33<245 305.5> 576 36<274 274 274 290 258 274>
VStem: 73 39<114 198 114 209.5> 398 36<0 80 80 80 122 233 233 233 267 343 343 358 0 403.5>
AnchorPoint: "Anchor-0" 238 0 basechar 0
LayerCount: 2
Fore
SplineSet
290 576 m 1xbe
 258 576 l 1
 107 732 l 1
 144 732 l 1
 274 612 l 1
 404 732 l 1
 441 732 l 1
 290 576 l 1xbe
398 0 m 1x7e
 398 80 l 1
 358 24 298 -12 236 -12 c 0xbe
 136 -12 73 47 73 154 c 0
 73 265 152 316 248 316 c 0
 302 316 352 297 398 267 c 1
 398 343 l 2
 398 464 338 490 273 490 c 0
 217 490 159 465 119 441 c 1
 108 472 l 1
 146 494 206 523 276 523 c 0
 347 523 434 493 434 358 c 2
 434 0 l 1
 398 0 l 1x7e
236 21 m 0
 312 21 363 74 398 122 c 1
 398 233 l 1
 359 259 306 283 248 283 c 0
 178 283 112 242 112 154 c 0
 112 74 160 21 236 21 c 0
EndSplineSet
EndChar

StartChar: AEacute
Encoding: 412 508 253
Width: 849
GlyphClass: 2
Flags: MW
HStem: 0 33<442 764 442 764> 197 30<173 406 173 406 157 406> 346 33<442 635 442 635> 667 33<442 742 442 442>
VStem: 406 36<33 197 197 197 227 346 379 636 636 636>
AnchorPoint: "Anchor-0" 425 0 basechar 0
LayerCount: 2
Fore
SplineSet
404 765 m 1
 555 921 l 1
 610 921 l 1
 441 765 l 1
 404 765 l 1
3 0 m 1
 407 700 l 1
 742 700 l 1
 742 667 l 1
 442 667 l 1
 442 379 l 1
 635 379 l 1
 635 346 l 1
 442 346 l 1
 442 33 l 1
 764 33 l 1
 764 0 l 1
 406 0 l 1
 406 197 l 1
 157 197 l 1
 44 0 l 1
 3 0 l 1
173 227 m 1
 406 227 l 1
 406 636 l 1
 398 620 390 606 382 592 c 2
 173 227 l 1
EndSplineSet
Position2: "'cpsp' Capital Spacing in Latin lookup 0 subtable" dx=5 dy=0 dh=10 dv=0
EndChar

StartChar: aeacute
Encoding: 413 509 254
Width: 846
Flags: MW
HStem: -12 33<198 265> -12 36<560.5 625.5 555 630.5> 245 33<437 750 437 788 437 750> 283 33<213 275 200 277> 490 33<245 305.5 564.5 633.5>
VStem: 73 39<114 198 114 209.5> 398 39<245 278 245 343> 750 38<245 278>
LayerCount: 2
Fore
SplineSet
365 576 m 1xaf
 516 732 l 1
 571 732 l 1
 402 576 l 1
 365 576 l 1xaf
236 -12 m 0
 136 -12 73 47 73 154 c 0
 73 265 152 316 248 316 c 0
 302 316 352 297 398 267 c 1x9f
 398 343 l 2
 398 464 338 490 273 490 c 0
 217 490 159 465 119 441 c 1
 108 472 l 1
 146 494 206 523 276 523 c 0
 337 523 415 501 428 399 c 1
 458 482 526 523 603 523 c 0
 712 523 788 442 788 256 c 2
 788 245 l 1
 437 245 l 1
 442 91 504 24 606 24 c 0
 645 24 689 37 726 67 c 1x6f
 747 41 l 1
 711 10 658 -12 603 -12 c 0
 518 -12 456 32 424 109 c 1
 369 20 294 -12 236 -12 c 0
437 278 m 1
 750 278 l 1
 749 453 664 490 603 490 c 0
 512 490 445 429 437 278 c 1
236 21 m 0
 311 21 371 76 411 145 c 1
 403 173 400 200 398 233 c 1
 359 259 306 283 248 283 c 0x9f
 178 283 112 242 112 154 c 0
 112 74 160 21 236 21 c 0
EndSplineSet
EndChar

StartChar: Cacute
Encoding: 414 262 255
Width: 640
GlyphClass: 2
Flags: MW
HStem: -12 36<272 403 272 412.5> 676 36<276.5 405>
VStem: 85 39<267 434 267 443>
AnchorPoint: "Anchor-0" 356 0 basechar 0
LayerCount: 2
Fore
SplineSet
289 765 m 1
 440 921 l 1
 495 921 l 1
 326 765 l 1
 289 765 l 1
356 -12 m 0
 162 -12 85 167 85 350 c 0
 85 536 171 712 355 712 c 0
 473 712 522 656 555 599 c 1
 524 581 l 1
 496 629 455 676 355 676 c 0
 198 676 124 518 124 350 c 0
 124 184 188 24 356 24 c 0
 450 24 506 76 532 129 c 1
 565 116 l 1
 535 52 469 -12 356 -12 c 0
EndSplineSet
Position2: "'cpsp' Capital Spacing in Latin lookup 0 subtable" dx=5 dy=0 dh=10 dv=0
EndChar

StartChar: cacute
Encoding: 415 263 256
Width: 473
GlyphClass: 2
Flags: MW
HStem: -12 36<208 282.5 208 291.5> 487 36<208.5 285>
VStem: 68 39<182 330.5 182 339>
AnchorPoint: "Anchor-0" 252 0 basechar 0
LayerCount: 2
Fore
SplineSet
197 576 m 1
 348 732 l 1
 403 732 l 1
 234 576 l 1
 197 576 l 1
252 -12 m 0
 140 -12 68 85 68 255 c 0
 68 423 140 523 259 523 c 0
 328 523 383 485 408 416 c 1
 372 402 l 1
 353 456 311 487 259 487 c 0
 158 487 107 406 107 255 c 0
 107 109 164 24 252 24 c 0
 313 24 362 61 379 118 c 1
 415 105 l 1
 393 33 331 -12 252 -12 c 0
EndSplineSet
EndChar

StartChar: Ccircumflex
Encoding: 416 264 257
Width: 640
GlyphClass: 2
Flags: MW
HStem: -12 36<272 403 272 412.5> 676 36<276.5 405> 885 36<353 353>
VStem: 85 39<267 434 267 443>
AnchorPoint: "Anchor-0" 356 0 basechar 0
LayerCount: 2
Fore
SplineSet
483 765 m 1
 353 885 l 1
 223 765 l 1
 186 765 l 1
 337 921 l 1
 369 921 l 1
 520 765 l 1
 483 765 l 1
356 -12 m 0
 162 -12 85 167 85 350 c 0
 85 536 171 712 355 712 c 0
 473 712 522 656 555 599 c 1
 524 581 l 1
 496 629 455 676 355 676 c 0
 198 676 124 518 124 350 c 0
 124 184 188 24 356 24 c 0
 450 24 506 76 532 129 c 1
 565 116 l 1
 535 52 469 -12 356 -12 c 0
EndSplineSet
Position2: "'cpsp' Capital Spacing in Latin lookup 0 subtable" dx=5 dy=0 dh=10 dv=0
EndChar

StartChar: ccircumflex
Encoding: 417 265 258
Width: 473
GlyphClass: 2
Flags: MW
HStem: -12 36<208 282.5 208 291.5> 487 36<208.5 285> 696 36<257 257>
VStem: 68 39<182 330.5 182 339>
AnchorPoint: "Anchor-0" 252 0 basechar 0
LayerCount: 2
Fore
SplineSet
387 576 m 1
 257 696 l 1
 127 576 l 1
 90 576 l 1
 241 732 l 1
 273 732 l 1
 424 576 l 1
 387 576 l 1
252 -12 m 0
 140 -12 68 85 68 255 c 0
 68 423 140 523 259 523 c 0
 328 523 383 485 408 416 c 1
 372 402 l 1
 353 456 311 487 259 487 c 0
 158 487 107 406 107 255 c 0
 107 109 164 24 252 24 c 0
 313 24 362 61 379 118 c 1
 415 105 l 1
 393 33 331 -12 252 -12 c 0
EndSplineSet
EndChar

StartChar: Cdotaccent
Encoding: 418 266 259
Width: 640
GlyphClass: 2
Flags: MW
HStem: -12 36<272 403 272 412.5> 676 36<276.5 405> 795 60<346 362.5>
VStem: 85 39<267 434 267 443> 325 58<816 832.5>
AnchorPoint: "Anchor-0" 356 0 basechar 0
LayerCount: 2
Fore
SplineSet
354 795 m 0
 338 795 325 808 325 824 c 0
 325 841 338 855 354 855 c 0
 371 855 383 841 383 824 c 0
 383 808 371 795 354 795 c 0
356 -12 m 0
 162 -12 85 167 85 350 c 0
 85 536 171 712 355 712 c 0
 473 712 522 656 555 599 c 1
 524 581 l 1
 496 629 455 676 355 676 c 0
 198 676 124 518 124 350 c 0
 124 184 188 24 356 24 c 0
 450 24 506 76 532 129 c 1
 565 116 l 1
 535 52 469 -12 356 -12 c 0
EndSplineSet
Position2: "'cpsp' Capital Spacing in Latin lookup 0 subtable" dx=5 dy=0 dh=10 dv=0
EndChar

StartChar: cdotaccent
Encoding: 419 267 260
Width: 473
GlyphClass: 2
Flags: MW
HStem: -12 36<208 282.5 208 291.5> 487 36<208.5 285> 606 60<250 266.5>
VStem: 68 39<182 330.5 182 339> 229 58<627 643.5>
AnchorPoint: "Anchor-0" 252 0 basechar 0
LayerCount: 2
Fore
SplineSet
258 606 m 0
 242 606 229 619 229 635 c 0
 229 652 242 666 258 666 c 0
 275 666 287 652 287 635 c 0
 287 619 275 606 258 606 c 0
252 -12 m 0
 140 -12 68 85 68 255 c 0
 68 423 140 523 259 523 c 0
 328 523 383 485 408 416 c 1
 372 402 l 1
 353 456 311 487 259 487 c 0
 158 487 107 406 107 255 c 0
 107 109 164 24 252 24 c 0
 313 24 362 61 379 118 c 1
 415 105 l 1
 393 33 331 -12 252 -12 c 0
EndSplineSet
EndChar

StartChar: Ccaron
Encoding: 420 268 261
Width: 640
GlyphClass: 2
Flags: MW
HStem: -12 36<272 403 272 412.5> 676 36<276.5 405> 765 36<354 354 354 370 338 354>
VStem: 85 39<267 434 267 443>
AnchorPoint: "Anchor-0" 356 0 basechar 0
LayerCount: 2
Fore
SplineSet
370 765 m 1
 338 765 l 1
 187 921 l 1
 224 921 l 1
 354 801 l 1
 484 921 l 1
 521 921 l 1
 370 765 l 1
356 -12 m 0
 162 -12 85 167 85 350 c 0
 85 536 171 712 355 712 c 0
 473 712 522 656 555 599 c 1
 524 581 l 1
 496 629 455 676 355 676 c 0
 198 676 124 518 124 350 c 0
 124 184 188 24 356 24 c 0
 450 24 506 76 532 129 c 1
 565 116 l 1
 535 52 469 -12 356 -12 c 0
EndSplineSet
Position2: "'cpsp' Capital Spacing in Latin lookup 0 subtable" dx=5 dy=0 dh=10 dv=0
EndChar

StartChar: ccaron
Encoding: 421 269 262
Width: 473
GlyphClass: 2
Flags: MW
HStem: -12 36<208 282.5 208 291.5> 487 36<208.5 285> 576 36<258 258 258 274 242 258>
VStem: 68 39<182 330.5 182 339>
AnchorPoint: "Anchor-0" 252 0 basechar 0
LayerCount: 2
Fore
SplineSet
274 576 m 1
 242 576 l 1
 91 732 l 1
 128 732 l 1
 258 612 l 1
 388 732 l 1
 425 732 l 1
 274 576 l 1
252 -12 m 0
 140 -12 68 85 68 255 c 0
 68 423 140 523 259 523 c 0
 328 523 383 485 408 416 c 1
 372 402 l 1
 353 456 311 487 259 487 c 0
 158 487 107 406 107 255 c 0
 107 109 164 24 252 24 c 0
 313 24 362 61 379 118 c 1
 415 105 l 1
 393 33 331 -12 252 -12 c 0
EndSplineSet
EndChar

StartChar: Dcaron
Encoding: 422 270 263
Width: 665
GlyphClass: 2
Flags: MW
HStem: 0 36<146 266 146 266> 664 36<146 270 146 146> 765 36<290 290 290 306 274 290>
VStem: 110 36<36 664 36 700> 541 39<278 427.5>
AnchorPoint: "Anchor-0" 333 0 basechar 0
LayerCount: 2
Fore
SplineSet
306 765 m 1
 274 765 l 1
 123 921 l 1
 160 921 l 1
 290 801 l 1
 420 921 l 1
 457 921 l 1
 306 765 l 1
110 700 m 1
 270 700 l 2
 502 700 580 523 580 350 c 0
 580 189 512 0 266 0 c 2
 110 0 l 1
 110 700 l 1
266 36 m 2
 482 36 541 206 541 350 c 0
 541 505 473 664 270 664 c 2
 146 664 l 1
 146 36 l 1
 266 36 l 2
EndSplineSet
Position2: "'cpsp' Capital Spacing in Latin lookup 0 subtable" dx=5 dy=0 dh=10 dv=0
EndChar

StartChar: dcaron
Encoding: 423 271 264
Width: 656
GlyphClass: 2
Flags: MW
HStem: -12 36<233 304> 0 21G<428 464 428 428> 487 36<230.5 319.5> 684 20G<428 428> 692 20G<582 618 618 618>
VStem: 81 39<192 329.5 192 340> 428 36<0 73 73 73 129 384 384 384 436 704 704 704> 582 36<660 694 694 712>
AnchorPoint: "Anchor-0" 290 0 basechar 0
LayerCount: 2
Fore
SplineSet
275 -12 m 0xaf
 155 -12 81 93 81 256 c 0
 81 424 155 523 283 523 c 0
 357 523 402 477 428 436 c 1
 428 704 l 1
 464 722 l 1
 464 0 l 1
 428 0 l 1x77
 428 73 l 1
 387 14 333 -12 275 -12 c 0xaf
618 712 m 1
 618 694 l 2
 618 598 597 528 562 484 c 1
 552 492 l 1
 570 531 582 608 582 712 c 1
 618 712 l 1
283 24 m 0
 341 24 398 71 428 129 c 1
 428 384 l 1
 405 423 356 487 283 487 c 0
 178 487 120 403 120 256 c 0
 120 128 183 24 283 24 c 0
EndSplineSet
EndChar

StartChar: Dcroat
Encoding: 424 272 265
Width: 665
Flags: MW
HStem: 0 36<146 266 146 266> 331 36<40 110 40 110 146 321> 664 36<146 270 146 146>
VStem: 110 36<36 331 36 331 36 331 367 664> 541 39<278 427.5>
LayerCount: 2
Fore
SplineSet
110 331 m 1
 40 331 l 1
 40 367 l 1
 110 367 l 1
 110 700 l 1
 270 700 l 2
 502 700 580 523 580 350 c 0
 580 189 512 0 266 0 c 2
 110 0 l 1
 110 331 l 1
266 36 m 2
 482 36 541 206 541 350 c 0
 541 505 473 664 270 664 c 2
 146 664 l 1
 146 367 l 1
 321 367 l 1
 321 331 l 1
 146 331 l 1
 146 36 l 1
 266 36 l 2
EndSplineSet
Position2: "'cpsp' Capital Spacing in Latin lookup 0 subtable" dx=5 dy=0 dh=10 dv=0
EndChar

StartChar: dcroat
Encoding: 425 273 266
Width: 554
Flags: MW
HStem: -12 37<220 291> 0 21G<415 451 415 415> 486 37<217.5 306.5> 568 33<271 415 271 415 451 523> 684 20G<415 415>
VStem: 68 39<192 329.5 192 340> 415 36<0 73 73 73 129 384 384 384 436 568 0 568 601 704 704 704>
LayerCount: 2
Fore
SplineSet
451 568 m 1xbe
 451 0 l 1
 415 0 l 1x7e
 415 73 l 1
 374 14 320 -12 262 -12 c 0
 142 -12 68 93 68 256 c 0
 68 424 142 523 270 523 c 0
 344 523 389 477 415 436 c 1
 415 568 l 1
 271 568 l 1
 271 601 l 1
 415 601 l 1
 415 704 l 1
 451 722 l 1
 451 601 l 1
 523 601 l 1
 523 568 l 1
 451 568 l 1xbe
270 25 m 0xbe
 328 25 385 71 415 129 c 1
 415 384 l 1
 392 423 343 486 270 486 c 0
 165 486 107 403 107 256 c 0
 107 128 170 25 270 25 c 0xbe
EndSplineSet
EndChar

StartChar: Emacron
Encoding: 426 274 267
Width: 582
GlyphClass: 2
Flags: MW
HStem: 0 33<146 497 146 497> 346 33<146 368 146 368> 667 33<146 475 146 146> 812 33<130 460 130 460>
VStem: 110 36<33 346 379 667>
AnchorPoint: "Anchor-0" 291 0 basechar 0
LayerCount: 2
Fore
SplineSet
130 812 m 1
 130 845 l 1
 460 845 l 1
 460 812 l 1
 130 812 l 1
110 0 m 1
 110 700 l 1
 475 700 l 1
 475 667 l 1
 146 667 l 1
 146 379 l 1
 368 379 l 1
 368 346 l 1
 146 346 l 1
 146 33 l 1
 497 33 l 1
 497 0 l 1
 110 0 l 1
EndSplineSet
Position2: "'cpsp' Capital Spacing in Latin lookup 0 subtable" dx=5 dy=0 dh=10 dv=0
EndChar

StartChar: emacron
Encoding: 427 275 268
Width: 521
GlyphClass: 2
Flags: MW
HStem: -12 36<225 295.5 225 300.5> 245 33<107 420 107 458 107 420> 490 33<227.5 303.5> 623 33<106 436 106 436>
VStem: 68 39<245 245 245 278 245 341> 420 38<245 278>
AnchorPoint: "Anchor-0" 273 0 basechar 0
LayerCount: 2
Fore
SplineSet
106 623 m 1
 106 656 l 1
 436 656 l 1
 436 623 l 1
 106 623 l 1
273 -12 m 0
 143 -12 68 91 68 256 c 0
 68 426 154 523 273 523 c 0
 382 523 458 442 458 256 c 2
 458 245 l 1
 107 245 l 1
 112 92 174 24 276 24 c 0
 315 24 359 37 396 67 c 1
 417 41 l 1
 381 10 328 -12 273 -12 c 0
107 278 m 1
 420 278 l 1
 419 450 334 490 273 490 c 0
 182 490 115 426 107 278 c 1
EndSplineSet
EndChar

StartChar: Ebreve
Encoding: 428 276 269
Width: 582
GlyphClass: 2
Flags: MW
HStem: 0 33<146 497 146 497> 346 33<146 368 146 368> 667 33<146 475 146 146> 770 33<257 331.5 257 353>
VStem: 110 36<33 346 379 667> 125 34<888 931 888 931> 429 34<888 931>
AnchorPoint: "Anchor-0" 291 0 basechar 0
LayerCount: 2
Fore
SplineSet
294 770 m 0xf6
 177 770 125 842 125 931 c 1
 159 931 l 1
 159 845 220 803 294 803 c 0
 369 803 429 845 429 931 c 1
 463 931 l 1
 463 842 412 770 294 770 c 0xf6
110 0 m 1xfa
 110 700 l 1
 475 700 l 1
 475 667 l 1
 146 667 l 1
 146 379 l 1
 368 379 l 1
 368 346 l 1
 146 346 l 1
 146 33 l 1
 497 33 l 1
 497 0 l 1
 110 0 l 1xfa
EndSplineSet
Position2: "'cpsp' Capital Spacing in Latin lookup 0 subtable" dx=5 dy=0 dh=10 dv=0
EndChar

StartChar: ebreve
Encoding: 429 277 270
Width: 521
GlyphClass: 2
Flags: MW
HStem: -12 36<225 295.5 225 300.5> 245 33<107 420 107 458 107 420> 490 33<227.5 303.5> 581 33<234 308.5 234 330>
VStem: 68 39<245 245 245 278 245 341> 102 34<699 742 699 742> 406 34<699 742> 420 38<245 278>
AnchorPoint: "Anchor-0" 273 0 basechar 0
LayerCount: 2
Fore
SplineSet
271 581 m 0xf6
 154 581 102 653 102 742 c 1
 136 742 l 1
 136 656 197 614 271 614 c 0
 346 614 406 656 406 742 c 1
 440 742 l 1
 440 653 389 581 271 581 c 0xf6
273 -12 m 0xf9
 143 -12 68 91 68 256 c 0
 68 426 154 523 273 523 c 0
 382 523 458 442 458 256 c 2
 458 245 l 1
 107 245 l 1
 112 92 174 24 276 24 c 0
 315 24 359 37 396 67 c 1
 417 41 l 1
 381 10 328 -12 273 -12 c 0xf9
107 278 m 1
 420 278 l 1
 419 450 334 490 273 490 c 0
 182 490 115 426 107 278 c 1
EndSplineSet
EndChar

StartChar: Edotaccent
Encoding: 430 278 271
Width: 582
GlyphClass: 2
Flags: MW
HStem: 0 33<146 497 146 497> 346 33<146 368 146 368> 667 33<146 475 146 146> 795 60<292 308.5>
VStem: 110 36<33 346 379 667> 271 58<816 832.5>
AnchorPoint: "Anchor-0" 291 0 basechar 0
LayerCount: 2
Fore
SplineSet
300 795 m 0
 284 795 271 808 271 824 c 0
 271 841 284 855 300 855 c 0
 317 855 329 841 329 824 c 0
 329 808 317 795 300 795 c 0
110 0 m 1
 110 700 l 1
 475 700 l 1
 475 667 l 1
 146 667 l 1
 146 379 l 1
 368 379 l 1
 368 346 l 1
 146 346 l 1
 146 33 l 1
 497 33 l 1
 497 0 l 1
 110 0 l 1
EndSplineSet
Position2: "'cpsp' Capital Spacing in Latin lookup 0 subtable" dx=5 dy=0 dh=10 dv=0
EndChar

StartChar: edotaccent
Encoding: 431 279 272
Width: 521
GlyphClass: 2
Flags: MW
HStem: -12 36<225 295.5 225 300.5> 245 33<107 420 107 458 107 420> 490 33<227.5 303.5> 606 60<265 281.5>
VStem: 68 39<245 245 245 278 245 341> 244 58<627 643.5> 420 38<245 278>
AnchorPoint: "Anchor-0" 273 0 basechar 0
LayerCount: 2
Fore
SplineSet
273 606 m 0
 257 606 244 619 244 635 c 0
 244 652 257 666 273 666 c 0
 290 666 302 652 302 635 c 0
 302 619 290 606 273 606 c 0
273 -12 m 0
 143 -12 68 91 68 256 c 0
 68 426 154 523 273 523 c 0
 382 523 458 442 458 256 c 2
 458 245 l 1
 107 245 l 1
 112 92 174 24 276 24 c 0
 315 24 359 37 396 67 c 1
 417 41 l 1
 381 10 328 -12 273 -12 c 0
107 278 m 1
 420 278 l 1
 419 450 334 490 273 490 c 0
 182 490 115 426 107 278 c 1
EndSplineSet
EndChar

StartChar: Eogonek
Encoding: 432 280 273
Width: 582
Flags: MW
HStem: -234 29<363 395 363 399> 0 33<146 392 426.5 468 468 497> 346 33<146 368 146 368> 667 33<146 475 146 146>
VStem: 110 36<33 346 379 667> 282 34<-161 -107.5>
LayerCount: 2
Fore
SplineSet
378 -234 m 0
 327 -234 282 -204 282 -136 c 0
 282 -79 325 -24 392 0 c 1
 110 0 l 1
 110 700 l 1
 475 700 l 1
 475 667 l 1
 146 667 l 1
 146 379 l 1
 368 379 l 1
 368 346 l 1
 146 346 l 1
 146 33 l 1
 497 33 l 1
 497 0 l 1
 468 0 l 2
 385 0 316 -65 316 -136 c 0
 316 -186 348 -205 378 -205 c 0
 412 -205 431 -185 442 -173 c 1
 466 -190 l 1
 448 -212 420 -234 378 -234 c 0
EndSplineSet
Position2: "'cpsp' Capital Spacing in Latin lookup 0 subtable" dx=5 dy=0 dh=10 dv=0
EndChar

StartChar: eogonek
Encoding: 433 281 274
Width: 521
Flags: MW
HStem: -234 29<268 300 268 304> -12 36<225 273> 245 33<107 420 107 458 107 420> 490 33<227.5 303.5>
VStem: 68 39<245 245 245 278 245 341> 187 34<-161 -111.5> 420 38<245 278>
LayerCount: 2
Fore
SplineSet
283 -234 m 0
 232 -234 187 -204 187 -136 c 0
 187 -87 220 -40 273 -12 c 1
 143 -12 68 91 68 256 c 0
 68 426 154 523 273 523 c 0
 382 523 458 442 458 256 c 2
 458 245 l 1
 107 245 l 1
 112 91 174 24 276 24 c 0
 315 24 359 37 396 67 c 1
 417 41 l 1
 391 18 358 4 324 -9 c 0
 255 -35 221 -84 221 -136 c 0
 221 -186 253 -205 283 -205 c 0
 317 -205 336 -185 347 -173 c 1
 371 -190 l 1
 353 -212 325 -234 283 -234 c 0
273 490 m 0
 182 490 115 429 107 278 c 1
 420 278 l 1
 419 453 334 490 273 490 c 0
EndSplineSet
EndChar

StartChar: Ecaron
Encoding: 434 282 275
Width: 582
GlyphClass: 2
Flags: MW
HStem: 0 33<146 497 146 497> 346 33<146 368 146 368> 667 33<146 475 146 146> 765 36<302 302 302 318 286 302>
VStem: 110 36<33 346 379 667>
AnchorPoint: "Anchor-0" 291 0 basechar 0
LayerCount: 2
Fore
SplineSet
318 765 m 1
 286 765 l 1
 135 921 l 1
 172 921 l 1
 302 801 l 1
 432 921 l 1
 469 921 l 1
 318 765 l 1
110 0 m 1
 110 700 l 1
 475 700 l 1
 475 667 l 1
 146 667 l 1
 146 379 l 1
 368 379 l 1
 368 346 l 1
 146 346 l 1
 146 33 l 1
 497 33 l 1
 497 0 l 1
 110 0 l 1
EndSplineSet
Position2: "'cpsp' Capital Spacing in Latin lookup 0 subtable" dx=5 dy=0 dh=10 dv=0
EndChar

StartChar: ecaron
Encoding: 435 283 276
Width: 521
GlyphClass: 2
Flags: MW
HStem: -12 36<225 295.5 225 300.5> 245 33<107 420 107 458 107 420> 490 33<227.5 303.5> 576 36<273 273 273 289 257 273>
VStem: 68 39<245 245 245 278 245 341> 420 38<245 278>
AnchorPoint: "Anchor-0" 273 0 basechar 0
LayerCount: 2
Fore
SplineSet
289 576 m 1
 257 576 l 1
 106 732 l 1
 143 732 l 1
 273 612 l 1
 403 732 l 1
 440 732 l 1
 289 576 l 1
273 -12 m 0
 143 -12 68 91 68 256 c 0
 68 426 154 523 273 523 c 0
 382 523 458 442 458 256 c 2
 458 245 l 1
 107 245 l 1
 112 92 174 24 276 24 c 0
 315 24 359 37 396 67 c 1
 417 41 l 1
 381 10 328 -12 273 -12 c 0
107 278 m 1
 420 278 l 1
 419 450 334 490 273 490 c 0
 182 490 115 426 107 278 c 1
EndSplineSet
EndChar

StartChar: Gcircumflex
Encoding: 436 284 277
Width: 681
GlyphClass: 2
Flags: MW
HStem: -12 36<275.5 414 275.5 422> 281 34<395 542 395 580 395 580> 676 36<271.5 398> 885 36<357 357>
VStem: 85 39<265.5 426 265.5 445.5> 542 38<269 281 177 281>
AnchorPoint: "Anchor-0" 351 0 basechar 0
LayerCount: 2
Fore
SplineSet
487 765 m 1
 357 885 l 1
 227 765 l 1
 190 765 l 1
 341 921 l 1
 373 921 l 1
 524 765 l 1
 487 765 l 1
358 -12 m 0
 162 -12 85 167 85 350 c 0
 85 541 168 712 358 712 c 0
 457 712 515 662 549 616 c 1
 517 595 l 1
 486 638 438 676 358 676 c 0
 185 676 124 502 124 350 c 0
 124 181 193 24 358 24 c 0
 470 24 542 104 542 269 c 2
 542 281 l 1
 395 281 l 1
 395 315 l 1
 580 315 l 1
 580 281 l 2
 580 73 486 -12 358 -12 c 0
EndSplineSet
Position2: "'cpsp' Capital Spacing in Latin lookup 0 subtable" dx=5 dy=0 dh=10 dv=0
EndChar

StartChar: gcircumflex
Encoding: 437 285 278
Width: 556
GlyphClass: 2
Flags: MW
HStem: -213 32<210 229> -12 36<222 296> 487 36<216 297> 491 20G<417 453 453 453> 696 36<282 282>
VStem: 68 39<182 330 182 340> 417 36<-19 84 84 84 134 389 389 389 437 511>
AnchorPoint: "Anchor-0" 278 0 basechar 0
LayerCount: 2
Fore
SplineSet
412 576 m 1xee
 282 696 l 1
 152 576 l 1
 115 576 l 1
 266 732 l 1
 298 732 l 1
 449 576 l 1
 412 576 l 1xee
229 -213 m 1
 210 -181 l 1
 361 -173 417 -119 417 -19 c 2
 417 84 l 1
 385 18 328 -12 264 -12 c 0
 159 -12 68 78 68 256 c 0
 68 424 149 523 268 523 c 0
 344 523 396 478 417 437 c 1xee
 417 511 l 1
 453 511 l 1xde
 453 -23 l 2
 453 -169 340 -205 229 -213 c 1
265 24 m 0
 335 24 390 77 417 134 c 1
 417 389 l 1
 383 453 326 487 268 487 c 0
 164 487 107 404 107 256 c 0
 107 108 179 24 265 24 c 0
EndSplineSet
EndChar

StartChar: Gbreve
Encoding: 438 286 279
Width: 681
GlyphClass: 2
Flags: MW
HStem: -12 36<275.5 414 275.5 422> 281 34<395 542 395 580 395 580> 676 36<271.5 398> 770 33<319 393.5 319 415>
VStem: 85 39<265.5 426 265.5 445.5> 187 34<888 931 888 931> 491 34<888 931> 542 38<269 281 177 281>
AnchorPoint: "Anchor-0" 351 0 basechar 0
LayerCount: 2
Fore
SplineSet
356 770 m 0
 239 770 187 842 187 931 c 1
 221 931 l 1
 221 845 282 803 356 803 c 0
 431 803 491 845 491 931 c 1
 525 931 l 1xff
 525 842 474 770 356 770 c 0
358 -12 m 0
 162 -12 85 167 85 350 c 0
 85 541 168 712 358 712 c 0
 457 712 515 662 549 616 c 1
 517 595 l 1
 486 638 438 676 358 676 c 0
 185 676 124 502 124 350 c 0
 124 181 193 24 358 24 c 0
 470 24 542 104 542 269 c 2
 542 281 l 1
 395 281 l 1
 395 315 l 1
 580 315 l 1
 580 281 l 2
 580 73 486 -12 358 -12 c 0
EndSplineSet
Position2: "'cpsp' Capital Spacing in Latin lookup 0 subtable" dx=5 dy=0 dh=10 dv=0
EndChar

StartChar: gbreve
Encoding: 439 287 280
Width: 556
GlyphClass: 2
Flags: MW
HStem: -213 32<210 229> -12 36<222 296> 487 36<216 297> 491 20G<417 453 453 453> 581 33<246 320.5 246 342>
VStem: 68 39<182 330 182 340> 114 34<699 742 699 742> 417 36<-19 84 84 84 134 389 389 389 437 511>
AnchorPoint: "Anchor-0" 278 0 basechar 0
LayerCount: 2
Fore
SplineSet
283 581 m 0xdb
 166 581 114 653 114 742 c 1
 148 742 l 1
 148 656 209 614 283 614 c 0
 358 614 418 656 418 742 c 1
 452 742 l 1
 452 653 401 581 283 581 c 0xdb
229 -213 m 1
 210 -181 l 1
 361 -173 417 -119 417 -19 c 2
 417 84 l 1
 385 18 328 -12 264 -12 c 0
 159 -12 68 78 68 256 c 0
 68 424 149 523 268 523 c 0
 344 523 396 478 417 437 c 1xed
 417 511 l 1
 453 511 l 1
 453 -23 l 2
 453 -169 340 -205 229 -213 c 1
265 24 m 0
 335 24 390 77 417 134 c 1
 417 389 l 1
 383 453 326 487 268 487 c 0
 164 487 107 404 107 256 c 0
 107 108 179 24 265 24 c 0
EndSplineSet
EndChar

StartChar: Gdotaccent
Encoding: 440 288 281
Width: 681
GlyphClass: 2
Flags: MW
HStem: -12 36<275.5 414 275.5 422> 281 34<395 542 395 580 395 580> 676 36<271.5 398> 795 60<350 366.5>
VStem: 85 39<265.5 426 265.5 445.5> 329 58<816 832.5> 542 38<269 281 177 281>
AnchorPoint: "Anchor-0" 351 0 basechar 0
LayerCount: 2
Fore
SplineSet
358 795 m 0
 342 795 329 808 329 824 c 0
 329 841 342 855 358 855 c 0
 375 855 387 841 387 824 c 0
 387 808 375 795 358 795 c 0
358 -12 m 0
 162 -12 85 167 85 350 c 0
 85 541 168 712 358 712 c 0
 457 712 515 662 549 616 c 1
 517 595 l 1
 486 638 438 676 358 676 c 0
 185 676 124 502 124 350 c 0
 124 181 193 24 358 24 c 0
 470 24 542 104 542 269 c 2
 542 281 l 1
 395 281 l 1
 395 315 l 1
 580 315 l 1
 580 281 l 2
 580 73 486 -12 358 -12 c 0
EndSplineSet
Position2: "'cpsp' Capital Spacing in Latin lookup 0 subtable" dx=5 dy=0 dh=10 dv=0
EndChar

StartChar: gdotaccent
Encoding: 441 289 282
Width: 556
GlyphClass: 2
Flags: MW
HStem: -213 32<210 229> -12 36<222 296> 487 36<216 297> 491 20G<417 453 453 453> 606 60<275 291.5>
VStem: 68 39<182 330 182 340> 254 58<627 643.5> 417 36<-19 84 84 84 134 389 389 389 437 511>
AnchorPoint: "Anchor-0" 278 0 basechar 0
LayerCount: 2
Fore
SplineSet
283 606 m 0xef
 267 606 254 619 254 635 c 0
 254 652 267 666 283 666 c 0
 300 666 312 652 312 635 c 0
 312 619 300 606 283 606 c 0xef
229 -213 m 1
 210 -181 l 1
 361 -173 417 -119 417 -19 c 2
 417 84 l 1
 385 18 328 -12 264 -12 c 0
 159 -12 68 78 68 256 c 0
 68 424 149 523 268 523 c 0
 344 523 396 478 417 437 c 1xef
 417 511 l 1
 453 511 l 1xdf
 453 -23 l 2
 453 -169 340 -205 229 -213 c 1
265 24 m 0
 335 24 390 77 417 134 c 1
 417 389 l 1
 383 453 326 487 268 487 c 0
 164 487 107 404 107 256 c 0
 107 108 179 24 265 24 c 0
EndSplineSet
EndChar

StartChar: Gcommaaccent
Encoding: 442 290 283
Width: 681
GlyphClass: 2
Flags: MW
HStem: -118 60<345 354> -12 36<275.5 414 275.5 422> 281 34<395 542 395 580 395 580> 676 36<271.5 398>
VStem: 85 39<265.5 426 265.5 445.5> 354 30<-132.5 -118> 542 38<269 281 177 281>
AnchorPoint: "Anchor-0" 353 -245 basechar 0
LayerCount: 2
Fore
SplineSet
358 -12 m 0
 162 -12 85 167 85 350 c 0
 85 541 168 712 358 712 c 0
 457 712 515 662 549 616 c 1
 517 595 l 1
 486 638 438 676 358 676 c 0
 185 676 124 502 124 350 c 0
 124 181 193 24 358 24 c 0
 470 24 542 104 542 269 c 2
 542 281 l 1
 395 281 l 1
 395 315 l 1
 580 315 l 1
 580 281 l 2
 580 73 486 -12 358 -12 c 0
322 -242 m 1
 348 -203 354 -161 354 -118 c 1
 336 -118 322 -106 322 -89 c 0
 322 -71 335 -58 351 -58 c 0
 369 -58 384 -70 384 -104 c 0
 384 -161 356 -220 331 -245 c 1
 322 -242 l 1
EndSplineSet
Position2: "'cpsp' Capital Spacing in Latin lookup 0 subtable" dx=5 dy=0 dh=10 dv=0
EndChar

StartChar: gcommaaccent
Encoding: 443 291 284
Width: 556
GlyphClass: 2
Flags: MW
HStem: -213 32<210 229> -12 36<222 296> 487 36<216 297> 491 20G<417 453 453 453> 603 60<277 286 277 288>
VStem: 68 39<182 330 182 340> 247 30<663 677.5> 417 36<-19 84 84 84 134 389 389 389 437 511>
AnchorPoint: "Anchor-0" 278 0 basechar 0
LayerCount: 2
Fore
SplineSet
280 603 m 0xef
 262 603 247 615 247 649 c 0
 247 706 275 765 300 790 c 1
 309 787 l 1
 283 748 277 706 277 663 c 1
 295 663 309 651 309 634 c 0
 309 616 296 603 280 603 c 0xef
229 -213 m 1
 210 -181 l 1
 361 -173 417 -119 417 -19 c 2
 417 84 l 1
 385 18 328 -12 264 -12 c 0
 159 -12 68 78 68 256 c 0
 68 424 149 523 268 523 c 0
 344 523 396 478 417 437 c 1xef
 417 511 l 1
 453 511 l 1xdf
 453 -23 l 2
 453 -169 340 -205 229 -213 c 1
265 24 m 0
 335 24 390 77 417 134 c 1
 417 389 l 1
 383 453 326 487 268 487 c 0
 164 487 107 404 107 256 c 0
 107 108 179 24 265 24 c 0
EndSplineSet
EndChar

StartChar: Hcircumflex
Encoding: 444 292 285
Width: 668
GlyphClass: 2
Flags: MW
HStem: 0 21G<110 146 110 110 522 558 522 522> 347 34<146 522 146 522> 680 20G<110 146 146 146 522 558 558 558> 885 36<333 333>
VStem: 110 36<0 347 0 381 381 700> 522 36<0 347 347 347 381 700 0 700>
AnchorPoint: "Anchor-0" 334 0 basechar 0
LayerCount: 2
Fore
SplineSet
463 765 m 1
 333 885 l 1
 203 765 l 1
 166 765 l 1
 317 921 l 1
 349 921 l 1
 500 765 l 1
 463 765 l 1
522 0 m 1
 522 347 l 1
 146 347 l 1
 146 0 l 1
 110 0 l 1
 110 700 l 1
 146 700 l 1
 146 381 l 1
 522 381 l 1
 522 700 l 1
 558 700 l 1
 558 0 l 1
 522 0 l 1
EndSplineSet
Position2: "'cpsp' Capital Spacing in Latin lookup 0 subtable" dx=5 dy=0 dh=10 dv=0
EndChar

StartChar: hcircumflex
Encoding: 445 293 286
Width: 552
GlyphClass: 2
Flags: MW
HStem: 0 21G<103 103 103 139 418 418 418 454> 489 34<263.5 326.5> 684 20G<103 103> 885 36<286 286>
VStem: 103 36<0 297 419 704 704 704> 418 36<0 312 0 320 0 382>
AnchorPoint: "Anchor-0" 276 0 basechar 0
LayerCount: 2
Fore
SplineSet
416 765 m 1
 286 885 l 1
 156 765 l 1
 119 765 l 1
 270 921 l 1
 302 921 l 1
 453 765 l 1
 416 765 l 1
103 0 m 1
 103 704 l 1
 139 722 l 1
 139 419 l 1
 167 495 237 523 290 523 c 0
 397 523 454 455 454 312 c 2
 454 0 l 1
 418 0 l 1
 418 320 l 2
 418 444 366 489 287 489 c 0
 203 489 139 440 139 297 c 2
 139 0 l 1
 103 0 l 1
EndSplineSet
EndChar

StartChar: Hbar
Encoding: 446 294 287
Width: 668
Flags: MW
HStem: 0 21G<110 146 110 110 522 558 522 522> 347 34<146 522 146 522> 548 34<27 110 27 110 146 522 558 641> 548 152<27 146 27 146 110 146 110 522>
VStem: 110 36<0 347 0 381 381 548 582 700> 522 36<0 347 347 347 381 548 0 548 582 700>
LayerCount: 2
Fore
SplineSet
522 0 m 1xec
 522 347 l 1
 146 347 l 1
 146 0 l 1
 110 0 l 1
 110 548 l 1
 27 548 l 1
 27 582 l 1
 110 582 l 1xec
 110 700 l 1
 146 700 l 1xdc
 146 582 l 1
 522 582 l 1xec
 522 700 l 1
 558 700 l 1xdc
 558 582 l 1
 641 582 l 1
 641 548 l 1
 558 548 l 1
 558 0 l 1
 522 0 l 1xec
522 381 m 1
 522 548 l 1
 146 548 l 1
 146 381 l 1
 522 381 l 1
EndSplineSet
Position2: "'cpsp' Capital Spacing in Latin lookup 0 subtable" dx=5 dy=0 dh=10 dv=0
EndChar

StartChar: hbar
Encoding: 447 295 288
Width: 552
Flags: MW
HStem: 0 21G<103 103 103 139 418 418 418 454> 455 34<263.5 326.5> 549 33<35 103 35 103 139 292> 684 20G<103 103>
VStem: 103 36<0 263 385 549 582 704 704 704> 418 36<0 278 0 286 0 348>
LayerCount: 2
Fore
SplineSet
103 0 m 1
 103 549 l 1
 35 549 l 1
 35 582 l 1
 103 582 l 1
 103 704 l 1
 139 722 l 1
 139 582 l 1
 292 582 l 1
 292 549 l 1
 139 549 l 1
 139 385 l 1
 167 461 237 489 290 489 c 0
 397 489 454 421 454 278 c 2
 454 0 l 1
 418 0 l 1
 418 286 l 2
 418 410 366 455 287 455 c 0
 203 455 139 406 139 263 c 2
 139 0 l 1
 103 0 l 1
EndSplineSet
EndChar

StartChar: Itilde
Encoding: 448 296 289
Width: 256
GlyphClass: 2
Flags: MW
HStem: 0 21G<110 110 110 146> 680 20G<110 146 146 146> 791 33<185.5 228.5 185.5 234.5> 872 33<24.5 67.5>
VStem: -39 27<795 827> 110 36<0 700 0 700> 265 27<869 901>
AnchorPoint: "Anchor-0" 128 0 basechar 0
LayerCount: 2
Fore
SplineSet
206 791 m 0
 140 791 95 872 40 872 c 0
 9 872 -10 845 -12 795 c 1
 -39 795 l 1
 -39 859 -10 905 47 905 c 0
 113 905 158 824 213 824 c 0
 244 824 263 851 265 901 c 1
 292 901 l 1
 292 837 263 791 206 791 c 0
110 0 m 1
 110 700 l 1
 146 700 l 1
 146 0 l 1
 110 0 l 1
EndSplineSet
Position2: "'cpsp' Capital Spacing in Latin lookup 0 subtable" dx=5 dy=0 dh=10 dv=0
EndChar

StartChar: itilde
Encoding: 449 297 290
Width: 248
GlyphClass: 2
Flags: MW
HStem: 0 21G<106 106 106 142> 491 20G<106 142 142 142> 602 33<181.5 224.5 181.5 230.5> 683 33<20.5 63.5> 692 20G<261 288 288 288>
VStem: -43 27<606 638> 106 36<0 511 0 511> 261 27<680 712>
AnchorPoint: "Anchor-0" 124 0 basechar 0
LayerCount: 2
Fore
SplineSet
202 602 m 0xf7
 136 602 91 683 36 683 c 0
 5 683 -14 656 -16 606 c 1
 -43 606 l 1
 -43 670 -14 716 43 716 c 0xf7
 109 716 154 635 209 635 c 0
 240 635 259 662 261 712 c 1
 288 712 l 1xef
 288 648 259 602 202 602 c 0xf7
106 0 m 1xef
 106 511 l 1
 142 511 l 1
 142 0 l 1
 106 0 l 1xef
EndSplineSet
EndChar

StartChar: Imacron
Encoding: 450 298 291
Width: 256
GlyphClass: 2
Flags: MW
HStem: 0 21G<110 110 110 146> 680 20G<110 146 146 146> 812 33<-39 291 -39 291>
VStem: 110 36<0 700 0 700>
AnchorPoint: "Anchor-0" 128 0 basechar 0
LayerCount: 2
Fore
SplineSet
-39 812 m 1
 -39 845 l 1
 291 845 l 1
 291 812 l 1
 -39 812 l 1
110 0 m 1
 110 700 l 1
 146 700 l 1
 146 0 l 1
 110 0 l 1
EndSplineSet
Position2: "'cpsp' Capital Spacing in Latin lookup 0 subtable" dx=5 dy=0 dh=10 dv=0
EndChar

StartChar: imacron
Encoding: 451 299 292
Width: 248
GlyphClass: 2
Flags: MW
HStem: 0 21G<106 106 106 142> 491 20G<106 142 142 142> 623 33<-43 287 -43 287>
VStem: 106 36<0 511 0 511>
AnchorPoint: "Anchor-0" 124 0 basechar 0
LayerCount: 2
Fore
SplineSet
-43 623 m 1
 -43 656 l 1
 287 656 l 1
 287 623 l 1
 -43 623 l 1
106 0 m 1
 106 511 l 1
 142 511 l 1
 142 0 l 1
 106 0 l 1
EndSplineSet
EndChar

StartChar: Ibreve
Encoding: 452 300 293
Width: 256
GlyphClass: 2
Flags: MW
HStem: 0 21G<110 110 110 146> 680 20G<110 146 146 146> 770 33<89 163.5 89 185>
VStem: -43 34<888 931 888 931> 110 36<0 700 0 700> 261 34<888 931>
AnchorPoint: "Anchor-0" 128 0 basechar 0
LayerCount: 2
Fore
SplineSet
126 770 m 0
 9 770 -43 842 -43 931 c 1
 -9 931 l 1
 -9 845 52 803 126 803 c 0
 201 803 261 845 261 931 c 1
 295 931 l 1
 295 842 244 770 126 770 c 0
110 0 m 1
 110 700 l 1
 146 700 l 1
 146 0 l 1
 110 0 l 1
EndSplineSet
Position2: "'cpsp' Capital Spacing in Latin lookup 0 subtable" dx=5 dy=0 dh=10 dv=0
EndChar

StartChar: ibreve
Encoding: 453 301 294
Width: 248
GlyphClass: 2
Flags: MW
HStem: 0 21G<106 106 106 142> 491 20G<106 142 142 142> 581 33<85 159.5 85 181>
VStem: -47 34<699 742 699 742> 106 36<0 511 0 511> 257 34<699 742>
AnchorPoint: "Anchor-0" 124 0 basechar 0
LayerCount: 2
Fore
SplineSet
122 581 m 0
 5 581 -47 653 -47 742 c 1
 -13 742 l 1
 -13 656 48 614 122 614 c 0
 197 614 257 656 257 742 c 1
 291 742 l 1
 291 653 240 581 122 581 c 0
106 0 m 1
 106 511 l 1
 142 511 l 1
 142 0 l 1
 106 0 l 1
EndSplineSet
EndChar

StartChar: Iogonek
Encoding: 454 302 295
Width: 256
Flags: MW
HStem: -234 29<111 143 111 147> 0 21G<146 146> 680 20G<110 146 146 146>
VStem: 30 34<-161 -116> 110 36<3 700 0 700>
LayerCount: 2
Fore
SplineSet
126 -234 m 0
 75 -234 30 -204 30 -136 c 0
 30 -96 53 -34 110 3 c 1
 110 700 l 1
 146 700 l 1
 146 0 l 1
 87 -35 64 -90 64 -136 c 0
 64 -186 96 -205 126 -205 c 0
 160 -205 179 -185 190 -173 c 1
 214 -190 l 1
 196 -212 168 -234 126 -234 c 0
EndSplineSet
Position2: "'cpsp' Capital Spacing in Latin lookup 0 subtable" dx=5 dy=0 dh=10 dv=0
EndChar

StartChar: iogonek
Encoding: 455 303 296
Width: 248
Flags: MW
HStem: -234 29<107 139 107 143> 0 21G<142 142> 491 20G<106 142 142 142> 633 60<116 132.5>
VStem: 26 34<-161 -116> 95 58<654 670.5> 106 36<3 511 0 511>
LayerCount: 2
Fore
SplineSet
124 633 m 0xfc
 108 633 95 646 95 662 c 0
 95 679 108 693 124 693 c 0
 141 693 153 679 153 662 c 0
 153 646 141 633 124 633 c 0xfc
122 -234 m 0
 71 -234 26 -204 26 -136 c 0
 26 -96 49 -34 106 3 c 1
 106 511 l 1
 142 511 l 1
 142 0 l 1xea
 83 -35 60 -90 60 -136 c 0
 60 -186 92 -205 122 -205 c 0
 156 -205 175 -185 186 -173 c 1
 210 -190 l 1
 192 -212 164 -234 122 -234 c 0
EndSplineSet
EndChar

StartChar: Idotaccent
Encoding: 456 304 297
Width: 256
GlyphClass: 2
Flags: MW
HStem: 0 21G<110 110 110 146> 680 20G<110 146 146 146> 795 60<120 136.5>
VStem: 99 58<816 832.5> 110 36<0 700 0 700>
AnchorPoint: "Anchor-0" 128 0 basechar 0
LayerCount: 2
Fore
SplineSet
128 795 m 0xf0
 112 795 99 808 99 824 c 0
 99 841 112 855 128 855 c 0
 145 855 157 841 157 824 c 0
 157 808 145 795 128 795 c 0xf0
110 0 m 1xe8
 110 700 l 1
 146 700 l 1
 146 0 l 1
 110 0 l 1xe8
EndSplineSet
Position2: "'cpsp' Capital Spacing in Latin lookup 0 subtable" dx=5 dy=0 dh=10 dv=0
EndChar

StartChar: i.TRK
Encoding: 457 -1 298
Width: 248
GlyphClass: 2
Flags: MW
HStem: 0 21G<106 106 106 142> 491 20G<106 142 142 142> 633 60<116 132.5>
VStem: 95 58<654 670.5> 106 36<0 511 0 511>
AnchorPoint: "Anchor-0" 124 0 basechar 0
LayerCount: 2
Fore
SplineSet
124 633 m 0xf0
 108 633 95 646 95 662 c 0
 95 679 108 693 124 693 c 0
 141 693 153 679 153 662 c 0
 153 646 141 633 124 633 c 0xf0
106 0 m 1xe8
 106 511 l 1
 142 511 l 1
 142 0 l 1
 106 0 l 1xe8
EndSplineSet
EndChar

StartChar: uni01CF
Encoding: 458 463 299
Width: 256
GlyphClass: 2
Flags: MW
HStem: 0 21G<110 110 110 146> 680 20G<110 146 146 146> 765 36<128 128 128 144 112 128>
VStem: 110 36<0 700 0 700>
AnchorPoint: "Anchor-0" 128 0 basechar 0
LayerCount: 2
Fore
SplineSet
144 765 m 1
 112 765 l 1
 -39 921 l 1
 -2 921 l 1
 128 801 l 1
 258 921 l 1
 295 921 l 1
 144 765 l 1
110 0 m 1
 110 700 l 1
 146 700 l 1
 146 0 l 1
 110 0 l 1
EndSplineSet
Position2: "'cpsp' Capital Spacing in Latin lookup 0 subtable" dx=5 dy=0 dh=10 dv=0
EndChar

StartChar: uni01D0
Encoding: 459 464 300
Width: 248
GlyphClass: 2
Flags: MW
HStem: 0 21G<106 106 106 142> 491 20G<106 142 142 142> 576 36<124 124 124 140 108 124>
VStem: 106 36<0 511 0 511>
AnchorPoint: "Anchor-0" 124 0 basechar 0
LayerCount: 2
Fore
SplineSet
140 576 m 1
 108 576 l 1
 -43 732 l 1
 -6 732 l 1
 124 612 l 1
 254 732 l 1
 291 732 l 1
 140 576 l 1
106 0 m 1
 106 511 l 1
 142 511 l 1
 142 0 l 1
 106 0 l 1
EndSplineSet
EndChar

StartChar: IJ
Encoding: 460 306 301
Width: 798
GlyphClass: 2
Flags: MW
HStem: -12 34<445 523 445 531.5> 0 21G<110 110 110 146> 680 20G<110 146 146 146 656 692 692 692>
VStem: 110 36<0 700 0 700> 656 36<223 225 225 700>
AnchorPoint: "Anchor-0" 532 0 basechar 0
LayerCount: 2
Fore
SplineSet
110 0 m 1x78
 110 700 l 1
 146 700 l 1
 146 0 l 1
 110 0 l 1x78
486 -12 m 0xb8
 385 -12 335 33 304 107 c 1
 334 123 l 1
 361 63 404 22 486 22 c 0
 560 22 656 61 656 223 c 2
 656 700 l 1
 692 700 l 1
 692 225 l 2
 692 34 577 -12 486 -12 c 0xb8
EndSplineSet
Position2: "'cpsp' Capital Spacing in Latin lookup 0 subtable" dx=5 dy=0 dh=10 dv=0
EndChar

StartChar: ij
Encoding: 461 307 302
Width: 496
GlyphClass: 2
Flags: MW
HStem: -213 31<230 248> 0 21G<106 106 106 142> 491 20G<106 142 142 142 355 391 391 391> 633 60<116 132.5 364 380.5>
VStem: 95 58<654 670.5> 106 36<0 511 0 511> 343 58<654 670.5> 355 36<-51 -49 -49 511>
AnchorPoint: "Anchor-0" 124 0 basechar 0
LayerCount: 2
Fore
SplineSet
124 633 m 0xfa
 108 633 95 646 95 662 c 0
 95 679 108 693 124 693 c 0
 141 693 153 679 153 662 c 0
 153 646 141 633 124 633 c 0xfa
372 633 m 0
 356 633 343 646 343 662 c 0
 343 679 356 693 372 693 c 0
 389 693 401 679 401 662 c 0
 401 646 389 633 372 633 c 0
106 0 m 1xf5
 106 511 l 1
 142 511 l 1
 142 0 l 1
 106 0 l 1xf5
248 -213 m 1
 230 -182 l 1
 315 -175 355 -140 355 -51 c 2
 355 511 l 1
 391 511 l 1
 391 -49 l 2
 391 -108 376 -146 352 -171 c 0
 325 -198 288 -209 248 -213 c 1
EndSplineSet
EndChar

StartChar: uni0237
Encoding: 462 567 303
Width: 248
GlyphClass: 2
Flags: MW
HStem: -213 31<-18 0> 491 20G<107 143 143 143>
VStem: 107 36<-51 -49 -49 511>
AnchorPoint: "Anchor-0" 127 0 basechar 0
LayerCount: 2
Fore
SplineSet
0 -213 m 1
 -18 -182 l 1
 67 -175 107 -140 107 -51 c 2
 107 511 l 1
 143 511 l 1
 143 -49 l 2
 143 -108 128 -146 104 -171 c 0
 77 -198 40 -209 0 -213 c 1
EndSplineSet
EndChar

StartChar: Jcircumflex
Encoding: 463 308 304
Width: 532
GlyphClass: 2
Flags: MW
HStem: -12 34<179 257 179 265.5> 680 20G<390 426 426 426> 885 36<407 407>
VStem: 390 36<223 225 225 700>
AnchorPoint: "Anchor-0" 266 0 basechar 0
LayerCount: 2
Fore
SplineSet
537 765 m 1
 407 885 l 1
 277 765 l 1
 240 765 l 1
 391 921 l 1
 423 921 l 1
 574 765 l 1
 537 765 l 1
220 -12 m 0
 119 -12 69 33 38 107 c 1
 68 123 l 1
 95 63 138 22 220 22 c 0
 294 22 390 61 390 223 c 2
 390 700 l 1
 426 700 l 1
 426 225 l 2
 426 34 311 -12 220 -12 c 0
EndSplineSet
Position2: "'cpsp' Capital Spacing in Latin lookup 0 subtable" dx=5 dy=0 dh=10 dv=0
EndChar

StartChar: jcircumflex
Encoding: 464 309 305
Width: 248
GlyphClass: 2
Flags: MW
HStem: -213 31<-18 0> 491 20G<107 143 143 143> 696 36<126 126>
VStem: 107 36<-51 -49 -49 511>
AnchorPoint: "Anchor-0" 127 0 basechar 0
LayerCount: 2
Fore
SplineSet
256 576 m 1
 126 696 l 1
 -4 576 l 1
 -41 576 l 1
 110 732 l 1
 142 732 l 1
 293 576 l 1
 256 576 l 1
0 -213 m 1
 -18 -182 l 1
 67 -175 107 -140 107 -51 c 2
 107 511 l 1
 143 511 l 1
 143 -49 l 2
 143 -108 128 -146 104 -171 c 0
 77 -198 40 -209 0 -213 c 1
EndSplineSet
EndChar

StartChar: Jacute
Encoding: 465 -1 306
Width: 532
GlyphClass: 2
Flags: MW
HStem: -12 34<179 257 179 265.5> 680 20G<390 426 426 426>
VStem: 390 36<223 225 225 700>
AnchorPoint: "Anchor-0" 266 0 basechar 0
LayerCount: 2
Fore
SplineSet
347 765 m 1
 498 921 l 1
 553 921 l 1
 384 765 l 1
 347 765 l 1
220 -12 m 0
 119 -12 69 33 38 107 c 1
 68 123 l 1
 95 63 138 22 220 22 c 0
 294 22 390 61 390 223 c 2
 390 700 l 1
 426 700 l 1
 426 225 l 2
 426 34 311 -12 220 -12 c 0
EndSplineSet
EndChar

StartChar: jacute
Encoding: 466 -1 307
Width: 248
GlyphClass: 2
Flags: MW
HStem: -213 31<-18 0> 491 20G<107 143 143 143>
VStem: 107 36<-51 -49 -49 511>
AnchorPoint: "Anchor-0" 127 0 basechar 0
LayerCount: 2
Fore
SplineSet
58 576 m 1
 209 732 l 1
 264 732 l 1
 95 576 l 1
 58 576 l 1
0 -213 m 1
 -18 -182 l 1
 67 -175 107 -140 107 -51 c 2
 107 511 l 1
 143 511 l 1
 143 -49 l 2
 143 -108 128 -146 104 -171 c 0
 77 -198 40 -209 0 -213 c 1
EndSplineSet
EndChar

StartChar: Kcommaaccent
Encoding: 467 310 308
Width: 619
GlyphClass: 2
Flags: MW
HStem: -118 60<304 313> 0 21G<110 146 110 110 514 556 514 514> 680 20G<110 146 146 146 450 493 493 493>
VStem: 110 36<0 264 317 700> 313 30<-132.5 -118>
AnchorPoint: "Anchor-0" 312 -245 basechar 0
LayerCount: 2
Fore
SplineSet
514 0 m 1
 279 431 l 1
 146 264 l 1
 146 0 l 1
 110 0 l 1
 110 700 l 1
 146 700 l 1
 146 317 l 1
 450 700 l 1
 493 700 l 1
 304 462 l 1
 556 0 l 1
 514 0 l 1
281 -242 m 1
 307 -203 313 -161 313 -118 c 1
 295 -118 281 -106 281 -89 c 0
 281 -71 294 -58 310 -58 c 0
 328 -58 343 -70 343 -104 c 0
 343 -161 315 -220 290 -245 c 1
 281 -242 l 1
EndSplineSet
Position2: "'cpsp' Capital Spacing in Latin lookup 0 subtable" dx=5 dy=0 dh=10 dv=0
EndChar

StartChar: kcommaaccent
Encoding: 468 311 309
Width: 503
GlyphClass: 2
Flags: MW
HStem: -118 60<246 255> 0 21G<103 139 103 103 424 465 424 424> 491 20G<357 402 402 402> 684 20G<103 103>
VStem: 103 36<0 227 272 704 704 704> 255 30<-132.5 -118>
AnchorPoint: "Anchor-0" 254 -245 basechar 0
LayerCount: 2
Fore
SplineSet
465 0 m 1
 424 0 l 1
 248 343 l 1
 139 227 l 1
 139 0 l 1
 103 0 l 1
 103 704 l 1
 139 722 l 1
 139 272 l 1
 357 511 l 1
 402 511 l 1
 274 371 l 1
 465 0 l 1
223 -242 m 1
 249 -203 255 -161 255 -118 c 1
 237 -118 223 -106 223 -89 c 0
 223 -71 236 -58 252 -58 c 0
 270 -58 285 -70 285 -104 c 0
 285 -161 257 -220 232 -245 c 1
 223 -242 l 1
EndSplineSet
EndChar

StartChar: kgreenlandic
Encoding: 469 312 310
Width: 516
Flags: MW
HStem: 0 21G<103 139 103 103 438 478 438 438> 491 20G<103 139 139 139 406 452 452 452>
VStem: 103 36<0 115 169 511>
LayerCount: 2
Fore
SplineSet
438 0 m 1
 281 294 l 1
 139 115 l 1
 139 0 l 1
 103 0 l 1
 103 511 l 1
 139 511 l 1
 139 169 l 1
 406 511 l 1
 452 511 l 1
 305 324 l 1
 478 0 l 1
 438 0 l 1
EndSplineSet
EndChar

StartChar: Lacute
Encoding: 470 313 311
Width: 533
GlyphClass: 2
Flags: MW
HStem: 0 33<146 493 146 493> 680 20G<110 146 146 146>
VStem: 110 36<33 700 33 700 33 700>
AnchorPoint: "Anchor-0" 301 0 basechar 0
LayerCount: 2
Fore
SplineSet
68 765 m 1
 219 921 l 1
 274 921 l 1
 105 765 l 1
 68 765 l 1
110 0 m 1
 110 700 l 1
 146 700 l 1
 146 33 l 1
 493 33 l 1
 493 0 l 1
 110 0 l 1
EndSplineSet
Position2: "'cpsp' Capital Spacing in Latin lookup 0 subtable" dx=5 dy=0 dh=10 dv=0
EndChar

StartChar: lacute
Encoding: 471 314 312
Width: 242
GlyphClass: 2
Flags: MW
HStem: 0 21G<103 103 103 139> 684 20G<103 103>
VStem: 103 36<0 704 704 704>
AnchorPoint: "Anchor-0" 121 0 basechar 0
LayerCount: 2
Fore
SplineSet
60 756 m 1
 211 912 l 1
 266 912 l 1
 97 756 l 1
 60 756 l 1
103 0 m 1
 103 704 l 1
 139 722 l 1
 139 0 l 1
 103 0 l 1
EndSplineSet
EndChar

StartChar: Lcommaaccent
Encoding: 472 315 313
Width: 533
GlyphClass: 2
Flags: MW
HStem: -118 60<295 304> 0 33<146 493 146 493> 680 20G<110 146 146 146>
VStem: 110 36<33 700 33 700 33 700> 304 30<-132.5 -118>
AnchorPoint: "Anchor-0" 303 -245 basechar 0
LayerCount: 2
Fore
SplineSet
110 0 m 1
 110 700 l 1
 146 700 l 1
 146 33 l 1
 493 33 l 1
 493 0 l 1
 110 0 l 1
272 -242 m 1
 298 -203 304 -161 304 -118 c 1
 286 -118 272 -106 272 -89 c 0
 272 -71 285 -58 301 -58 c 0
 319 -58 334 -70 334 -104 c 0
 334 -161 306 -220 281 -245 c 1
 272 -242 l 1
EndSplineSet
Position2: "'cpsp' Capital Spacing in Latin lookup 0 subtable" dx=5 dy=0 dh=10 dv=0
EndChar

StartChar: lcommaaccent
Encoding: 473 316 314
Width: 242
GlyphClass: 2
Flags: MW
HStem: -118 60<115 124> 0 21G<103 103 103 139> 684 20G<103 103>
VStem: 103 36<0 704 704 704> 124 30<-132.5 -118>
AnchorPoint: "Anchor-0" 123 -245 basechar 0
LayerCount: 2
Fore
SplineSet
103 0 m 1xf0
 103 704 l 1
 139 722 l 1
 139 0 l 1
 103 0 l 1xf0
92 -242 m 1xe8
 118 -203 124 -161 124 -118 c 1
 106 -118 92 -106 92 -89 c 0
 92 -71 105 -58 121 -58 c 0
 139 -58 154 -70 154 -104 c 0
 154 -161 126 -220 101 -245 c 1
 92 -242 l 1xe8
EndSplineSet
EndChar

StartChar: Lcaron
Encoding: 474 317 315
Width: 533
GlyphClass: 2
Flags: MW
HStem: 0 33<146 493 146 493> 680 20G<110 146 146 146> 765 36<129 129 129 145 113 129>
VStem: 110 36<33 700 33 700 33 700>
AnchorPoint: "Anchor-0" 301 0 basechar 0
LayerCount: 2
Fore
SplineSet
145 765 m 1
 113 765 l 1
 -38 921 l 1
 -1 921 l 1
 129 801 l 1
 259 921 l 1
 296 921 l 1
 145 765 l 1
110 0 m 1
 110 700 l 1
 146 700 l 1
 146 33 l 1
 493 33 l 1
 493 0 l 1
 110 0 l 1
EndSplineSet
Position2: "'cpsp' Capital Spacing in Latin lookup 0 subtable" dx=5 dy=0 dh=10 dv=0
EndChar

StartChar: lcaron
Encoding: 475 318 316
Width: 343
GlyphClass: 2
Flags: MW
HStem: 0 21G<116 116 116 152> 684 20G<116 116> 692 20G<295 331 331 331>
VStem: 116 36<0 704 704 704> 295 36<660 694 694 712>
AnchorPoint: "Anchor-0" 134 0 basechar 0
LayerCount: 2
Fore
SplineSet
116 0 m 1xb8
 116 704 l 1
 152 722 l 1xd8
 152 0 l 1
 116 0 l 1xb8
331 712 m 1xb8
 331 694 l 2
 331 598 310 528 275 484 c 1
 265 492 l 1
 283 531 295 608 295 712 c 1
 331 712 l 1xb8
EndSplineSet
EndChar

StartChar: Ldot
Encoding: 476 319 317
Width: 533
GlyphClass: 2
Flags: MW
HStem: 0 33<146 493 146 493> 301 60<388 404.5> 680 20G<110 146 146 146>
VStem: 110 36<33 700 33 700 33 700> 367 58<322 338.5>
AnchorPoint: "Anchor-0" 301 0 basechar 0
LayerCount: 2
Fore
SplineSet
110 0 m 1
 110 700 l 1
 146 700 l 1
 146 33 l 1
 493 33 l 1
 493 0 l 1
 110 0 l 1
396 301 m 0
 380 301 367 314 367 330 c 0
 367 347 380 361 396 361 c 0
 413 361 425 347 425 330 c 0
 425 314 413 301 396 301 c 0
EndSplineSet
Ligature2: "Ligature Substitution lookup 20 subtable" L periodcentered
Position2: "'cpsp' Capital Spacing in Latin lookup 0 subtable" dx=5 dy=0 dh=10 dv=0
EndChar

StartChar: ldot
Encoding: 477 320 318
Width: 334
GlyphClass: 2
Flags: MW
HStem: 0 21G<116 116 116 152> 267 60<287 303.5> 684 20G<116 116>
VStem: 116 36<0 704 704 704> 266 58<288 304.5>
AnchorPoint: "Anchor-0" 134 0 basechar 0
LayerCount: 2
Fore
SplineSet
116 0 m 1
 116 704 l 1
 152 722 l 1
 152 0 l 1
 116 0 l 1
295 267 m 0
 279 267 266 280 266 296 c 0
 266 313 279 327 295 327 c 0
 312 327 324 313 324 296 c 0
 324 280 312 267 295 267 c 0
EndSplineSet
Ligature2: "Ligature Substitution lookup 20 subtable" l periodcentered
EndChar

StartChar: Nacute
Encoding: 478 323 319
Width: 681
GlyphClass: 2
Flags: MW
HStem: 0 21G<110 146 110 110 536 571 536 536> 680 20G<110 145 145 145 535 571 571 571>
VStem: 110 36<0 581 581 632> 535 36<68 119 119 700>
AnchorPoint: "Anchor-0" 341 0 basechar 0
LayerCount: 2
Fore
SplineSet
288 766 m 1
 439 922 l 1
 494 922 l 1
 325 766 l 1
 288 766 l 1
571 0 m 1
 536 0 l 1
 177 581 l 1
 146 632 l 1
 146 615 146 598 146 581 c 2
 146 0 l 1
 110 0 l 1
 110 700 l 1
 145 700 l 1
 504 119 l 1
 535 68 l 1
 535 85 535 102 535 119 c 2
 535 700 l 1
 571 700 l 1
 571 0 l 1
EndSplineSet
Position2: "'cpsp' Capital Spacing in Latin lookup 0 subtable" dx=5 dy=0 dh=10 dv=0
EndChar

StartChar: nacute
Encoding: 479 324 320
Width: 552
GlyphClass: 2
Flags: MW
HStem: 0 21G<103 139 103 103 418 454 418 418> 489 34<263 326.5> 491 20G<103 139 139 139>
VStem: 103 36<0 297 419 511> 418 36<0 312 0 319 0 381>
AnchorPoint: "Anchor-0" 276 0 basechar 0
LayerCount: 2
Fore
SplineSet
226 576 m 1xd8
 377 732 l 1
 432 732 l 1
 263 576 l 1
 226 576 l 1xd8
418 0 m 1
 418 319 l 2
 418 443 366 489 287 489 c 0xd8
 203 489 139 440 139 297 c 2
 139 0 l 1
 103 0 l 1
 103 511 l 1
 139 511 l 1xb8
 139 419 l 1
 167 495 236 523 290 523 c 0
 397 523 454 455 454 312 c 2
 454 0 l 1
 418 0 l 1
EndSplineSet
EndChar

StartChar: Ncommaaccent
Encoding: 480 325 321
Width: 681
GlyphClass: 2
Flags: MW
HStem: -118 60<335 344> 0 21G<110 146 110 110 536 571 536 536> 680 20G<110 145 145 145 535 571 571 571>
VStem: 110 36<0 581 581 632> 344 30<-132.5 -118> 535 36<68 119 119 700>
AnchorPoint: "Anchor-0" 343 -245 basechar 0
LayerCount: 2
Fore
SplineSet
571 0 m 1
 536 0 l 1
 177 581 l 1
 146 632 l 1
 146 615 146 598 146 581 c 2
 146 0 l 1
 110 0 l 1
 110 700 l 1
 145 700 l 1
 504 119 l 1
 535 68 l 1
 535 85 535 102 535 119 c 2
 535 700 l 1
 571 700 l 1
 571 0 l 1
312 -242 m 1
 338 -203 344 -161 344 -118 c 1
 326 -118 312 -106 312 -89 c 0
 312 -71 325 -58 341 -58 c 0
 359 -58 374 -70 374 -104 c 0
 374 -161 346 -220 321 -245 c 1
 312 -242 l 1
EndSplineSet
Position2: "'cpsp' Capital Spacing in Latin lookup 0 subtable" dx=5 dy=0 dh=10 dv=0
EndChar

StartChar: ncommaaccent
Encoding: 481 326 322
Width: 552
GlyphClass: 2
Flags: MW
HStem: -118 60<270 279> 0 21G<103 139 103 103 418 454 418 418> 489 34<263 326.5> 491 20G<103 139 139 139>
VStem: 103 36<0 297 419 511> 279 30<-132.5 -118> 418 36<0 312 0 319 0 381>
AnchorPoint: "Anchor-0" 278 -245 basechar 0
LayerCount: 2
Fore
SplineSet
418 0 m 1xee
 418 319 l 2
 418 443 366 489 287 489 c 0xee
 203 489 139 440 139 297 c 2
 139 0 l 1
 103 0 l 1
 103 511 l 1
 139 511 l 1xde
 139 419 l 1
 167 495 236 523 290 523 c 0
 397 523 454 455 454 312 c 2
 454 0 l 1
 418 0 l 1xee
247 -242 m 1
 273 -203 279 -161 279 -118 c 1
 261 -118 247 -106 247 -89 c 0
 247 -71 260 -58 276 -58 c 0
 294 -58 309 -70 309 -104 c 0
 309 -161 281 -220 256 -245 c 1
 247 -242 l 1
EndSplineSet
EndChar

StartChar: Ncaron
Encoding: 482 327 323
Width: 681
GlyphClass: 2
Flags: MW
HStem: 0 21G<110 146 110 110 536 571 536 536> 680 20G<110 145 145 145 535 571 571 571> 765 36<341 341 341 357 325 341>
VStem: 110 36<0 581 581 632> 535 36<68 119 119 700>
AnchorPoint: "Anchor-0" 341 0 basechar 0
LayerCount: 2
Fore
SplineSet
357 765 m 1
 325 765 l 1
 174 921 l 1
 211 921 l 1
 341 801 l 1
 471 921 l 1
 508 921 l 1
 357 765 l 1
571 0 m 1
 536 0 l 1
 177 581 l 1
 146 632 l 1
 146 615 146 598 146 581 c 2
 146 0 l 1
 110 0 l 1
 110 700 l 1
 145 700 l 1
 504 119 l 1
 535 68 l 1
 535 85 535 102 535 119 c 2
 535 700 l 1
 571 700 l 1
 571 0 l 1
EndSplineSet
Position2: "'cpsp' Capital Spacing in Latin lookup 0 subtable" dx=5 dy=0 dh=10 dv=0
EndChar

StartChar: ncaron
Encoding: 483 328 324
Width: 552
GlyphClass: 2
Flags: MW
HStem: 0 21G<103 139 103 103 418 454 418 418> 489 34<263 326.5> 491 20G<103 139 139 139> 576 36<287 287 287 303 271 287>
VStem: 103 36<0 297 419 511> 418 36<0 312 0 319 0 381>
AnchorPoint: "Anchor-0" 276 0 basechar 0
LayerCount: 2
Fore
SplineSet
303 576 m 1xdc
 271 576 l 1
 120 732 l 1
 157 732 l 1
 287 612 l 1
 417 732 l 1
 454 732 l 1
 303 576 l 1xdc
418 0 m 1
 418 319 l 2
 418 443 366 489 287 489 c 0xdc
 203 489 139 440 139 297 c 2
 139 0 l 1
 103 0 l 1
 103 511 l 1
 139 511 l 1xbc
 139 419 l 1
 167 495 236 523 290 523 c 0
 397 523 454 455 454 312 c 2
 454 0 l 1
 418 0 l 1
EndSplineSet
EndChar

StartChar: napostrophe
Encoding: 484 329 325
Width: 728
GlyphClass: 2
Flags: MW
HStem: 0 21G<292 328 292 292 607 643 607 607> 489 34<452 515.5> 491 20G<292 328 328 328> 652 60<108 117> 692 20G<106 123>
VStem: 117 30<637.5 652> 292 36<0 297 419 511> 607 36<0 312 0 319 0 381>
AnchorPoint: "Anchor-0" 465 0 basechar 0
LayerCount: 2
Fore
SplineSet
85 528 m 1xcf
 111 567 117 609 117 652 c 1xd7
 99 652 85 664 85 681 c 0
 85 699 98 712 114 712 c 0
 132 712 147 700 147 666 c 0
 147 609 119 550 94 525 c 1
 85 528 l 1xcf
607 0 m 1
 607 319 l 2
 607 443 555 489 476 489 c 0xcf
 392 489 328 440 328 297 c 2
 328 0 l 1
 292 0 l 1
 292 511 l 1
 328 511 l 1xaf
 328 419 l 1
 356 495 425 523 479 523 c 0
 586 523 643 455 643 312 c 2
 643 0 l 1
 607 0 l 1
EndSplineSet
EndChar

